<?xml version="1.0" standalone="no"?>
<!DOCTYPE svg PUBLIC "-//W3C//DTD SVG 1.1//EN" "http://www.w3.org/Graphics/SVG/1.1/DTD/svg11.dtd" >
<svg xmlns="http://www.w3.org/2000/svg" xmlns:xlink="http://www.w3.org/1999/xlink" version="1.1">
<metadata>
Created by FontForge 20170731 at Sat Nov 15 17:02:41 2014
 By Aleksey,,,
Copyright (c) 2014 by Volkswagen AG. All rights reserved.
</metadata>
<defs>
<font id="VWHead-Bold" horiz-adv-x="590" >
  <font-face 
    font-family="VW Head Bold"
    font-weight="700"
    font-stretch="normal"
    units-per-em="1000"
    panose-1="2 11 8 3 4 2 0 0 0 3"
    ascent="787"
    descent="-213"
    x-height="482"
    cap-height="680"
    bbox="-200 -221 1133 996"
    underline-thickness="90"
    underline-position="-290"
    unicode-range="U+000D-FB02"
  />
<missing-glyph horiz-adv-x="513" 
d="M50 0v680h413v-680h-413zM108 58h297v564h-297v-564z" />
    <glyph glyph-name=".notdef" horiz-adv-x="513" 
d="M50 0v680h413v-680h-413zM108 58h297v564h-297v-564z" />
    <glyph glyph-name=".null" horiz-adv-x="0" 
 />
    <glyph glyph-name=".null" horiz-adv-x="0" 
 />
    <glyph glyph-name="nonmarkingreturn" horiz-adv-x="333" 
 />
    <glyph glyph-name="CR" unicode="&#xd;" horiz-adv-x="231" 
 />
    <glyph glyph-name="space" unicode=" " horiz-adv-x="231" 
 />
    <glyph glyph-name="exclam" unicode="!" horiz-adv-x="281" 
d="M213 529l-28 -289h-89l-28 289v151h145v-151zM55 71q0 39 23 62.5t62 23.5t62 -23.5t23 -62.5t-23 -62.5t-62 -23.5t-62 23.5t-23 62.5z" />
    <glyph glyph-name="quotedbl" unicode="&#x22;" horiz-adv-x="444" 
d="M388 586l-28 -181h-83l-28 181v94h139v-94zM195 586l-28 -181h-83l-28 181v94h139v-94z" />
    <glyph glyph-name="numbersign" unicode="#" horiz-adv-x="727" 
d="M190 0h-106v10l42 149h-95v93h122l49 170h-90v93h116l48 165h106v-10l-45 -155h151l48 165h106v-10l-45 -155h99v-93h-125l-49 -170h93v-93h-120l-45 -159h-106v10l42 149h-151zM311 422l-49 -170h151l49 170h-151z" />
    <glyph glyph-name="dollar" unicode="$" 
d="M53 50l43 109q69 -45 163 -56v184l-32 11q-163 54 -161 189q0 83 49.5 137.5t143.5 66.5v79h89v-77q97 -13 166 -47l-42 -111q-53 27 -124 40v-177q99 -31 144.5 -76.5t45.5 -121.5q0 -85 -50 -140.5t-140 -69.5v-98h-89v94q-116 11 -206 64zM196 499q0 -30 14 -49.5
t51 -32.5v164q-36 -11 -50.5 -30.5t-14.5 -51.5zM407 188q0 49 -62 78v-165q62 24 62 87z" />
    <glyph glyph-name="percent" unicode="%" horiz-adv-x="808" 
d="M129 503q0 -102 55 -102q59 0 59 102q0 104 -59 104q-55 0 -55 -104zM339 503q0 -84 -41 -133.5t-114 -49.5q-70 0 -111 50t-41 133q0 84 41 134.5t111 50.5q73 0 114 -50t41 -135zM566 175q0 -102 55 -102q59 0 59 102q0 104 -59 104q-55 0 -55 -104zM776 175
q0 -84 -41 -133.5t-114 -49.5q-70 0 -111 50t-41 133q0 84 41 134.5t111 50.5q73 0 114 -50t41 -135zM230 0h-104v10l456 670h104v-10z" />
    <glyph glyph-name="ampersand" unicode="&#x26;" horiz-adv-x="743" 
d="M608 370l93 -62q-65 -98 -117 -155l145 -143v-10h-161l-70 70q-109 -85 -231 -85q-101 0 -161 50.5t-60 134.5q0 36 14 66.5t42.5 55t47 36.5t52.5 31l7 4l-2 2q-84 81 -84 154q0 74 56.5 125t148.5 51q84 0 141 -51.5t57 -123.5q0 -56 -31 -93.5t-85 -70.5l-19 -11
l114 -113q43 50 103 138zM284 104q70 0 134 47l-132 134l-12 -7q-24 -13 -38.5 -22.5t-30.5 -31t-16 -45.5q0 -34 24.5 -54.5t70.5 -20.5zM256 514q0 -38 38 -73l17 -18l28 17q60 33 60 74q0 26 -20 45.5t-51 19.5q-34 0 -53 -18.5t-19 -46.5z" />
    <glyph glyph-name="quotesingle" unicode="'" horiz-adv-x="251" 
d="M195 586l-28 -181h-83l-28 181v94h139v-94z" />
    <glyph glyph-name="parenleft" unicode="(" horiz-adv-x="288" 
d="M42 251q0 136 37.5 257t96.5 208l78 -34q-87 -190 -87 -431t87 -431l-78 -34q-59 87 -96.5 208t-37.5 257z" />
    <glyph glyph-name="parenright" unicode=")" horiz-adv-x="288" 
d="M246 251q0 -136 -37.5 -257t-96.5 -208l-78 34q87 190 87 431t-87 431l78 34q59 -87 96.5 -208t37.5 -257z" />
    <glyph glyph-name="asterisk" unicode="*" horiz-adv-x="441" 
d="M185 461l-2 1l-90 -67l-48 84l104 45v2l-104 45l47 84l90 -67l2 1l-12 111h97l-13 -111l2 -1l90 67l48 -84l-104 -44v-2l104 -46l-47 -84l-91 68l-2 -1l13 -113h-97z" />
    <glyph glyph-name="plus" unicode="+" 
d="M347 536v-213h202v-103h-202v-214h-107v214h-201v103h201v213h107z" />
    <glyph glyph-name="comma" unicode="," horiz-adv-x="270" 
d="M15 -161v10l66 293h135v-10l-100 -293h-101z" />
    <glyph glyph-name="hyphen" unicode="-" horiz-adv-x="414" 
d="M352 220h-290v103h290v-103z" />
    <glyph glyph-name="period" unicode="." horiz-adv-x="272" 
d="M51 71q0 39 23 62.5t62 23.5t62 -23.5t23 -62.5t-23 -62.5t-62 -23.5t-62 23.5t-23 62.5z" />
    <glyph glyph-name="slash" unicode="/" horiz-adv-x="448" 
d="M141 0h-116v10l282 670h116v-10z" />
    <glyph glyph-name="zero" unicode="0" 
d="M176 340q0 -123 27 -179.5t92 -56.5q64 0 90.5 56.5t26.5 179.5t-26.5 179.5t-90.5 56.5q-65 0 -92 -56.5t-27 -179.5zM557 340q0 -355 -262 -355q-264 0 -264 355t264 355q262 0 262 -355z" />
    <glyph glyph-name="one" unicode="1" 
d="M124 505h-12v119l168 56h104v-564h132v-116h-424v116h153v426h-2z" />
    <glyph glyph-name="two" unicode="2" 
d="M243 118v-2h286v-116h-475v100l254 247q34 32 51.5 62t17.5 70t-29.5 68.5t-74.5 28.5q-44 0 -78 -18.5t-70 -52.5l-73 90q35 38 94 69t127 31q112 0 180.5 -57.5t68.5 -158.5q0 -95 -108 -203z" />
    <glyph glyph-name="three" unicode="3" 
d="M145 285v116h116q108 0 108 89q0 86 -108 86q-81 0 -164 -34l-40 108q93 45 204 45q124 0 188.5 -50.5t64.5 -142.5q0 -56 -30.5 -94.5t-71.5 -52.5v-2q54 -19 87 -62.5t33 -107.5q0 -92 -70.5 -145t-200.5 -53q-128 0 -220 51l37 110q79 -42 183 -42q56 0 91 23.5
t35 65.5q0 48 -29 70t-97 22h-116z" />
    <glyph glyph-name="four" unicode="4" 
d="M344 459h139v-199h77v-116h-77v-144h-139v144h-324v100l192 436h139l-178 -418v-2h171v199z" />
    <glyph glyph-name="five" unicode="5" 
d="M108 306l-17 17l38 357h374v-116h-256l-14 -135q22 2 44 2q253 0 253 -219q0 -107 -75.5 -167t-208.5 -60q-98 0 -203 37l32 117q84 -35 175 -35q67 0 101 28t34 80q0 100 -140 100q-51 0 -137 -6z" />
    <glyph glyph-name="six" unicode="6" 
d="M427 680v-10l-157 -230l1 -2q28 13 75 13q93 0 153 -64.5t60 -165.5t-69 -168.5t-191 -67.5q-125 0 -193.5 67t-68.5 169q0 88 48 165l188 294h154zM414 221q0 111 -115 111q-56 0 -86.5 -27.5t-30.5 -83.5t31 -86.5t86 -30.5q54 0 84.5 30.5t30.5 86.5z" />
    <glyph glyph-name="seven" unicode="7" 
d="M127 0v10l255 552v2h-319v116h470v-100l-260 -580h-146z" />
    <glyph glyph-name="eight" unicode="8" 
d="M295 104q58 0 86.5 25.5t28.5 69.5t-28.5 69.5t-86.5 25.5q-115 0 -115 -95q0 -44 28.5 -69.5t86.5 -25.5zM295 695q116 0 174.5 -52t58.5 -138q0 -107 -88 -146v-2q53 -21 84 -65.5t31 -107.5q0 -92 -67 -145.5t-193 -53.5t-193 53.5t-67 145.5q0 63 31 107.5t84 65.5v2
q-88 39 -88 146q0 86 58.5 138t174.5 52zM295 410q88 0 88 83t-88 83t-88 -83t88 -83z" />
    <glyph glyph-name="nine" unicode="9" 
d="M162 0v10l157 230l-1 2q-28 -13 -75 -13q-93 0 -153 64.5t-60 165.5t69 168.5t191 67.5q123 0 192.5 -67.5t69.5 -168.5q0 -88 -48 -165l-188 -294h-154zM175 459q0 -111 115 -111q56 0 86.5 27.5t30.5 83.5t-31 86.5t-86 30.5q-54 0 -84.5 -30.5t-30.5 -86.5z" />
    <glyph glyph-name="colon" unicode=":" horiz-adv-x="294" 
d="M62 411q0 39 23 62.5t62 23.5t62 -23.5t23 -62.5t-23 -62.5t-62 -23.5t-62 23.5t-23 62.5zM62 71q0 39 23 62.5t62 23.5t62 -23.5t23 -62.5t-23 -62.5t-62 -23.5t-62 23.5t-23 62.5z" />
    <glyph glyph-name="semicolon" unicode=";" horiz-adv-x="295" 
d="M21 -161v10l66 293h135v-10l-100 -293h-101zM70 411q0 39 23 62.5t62 23.5t62 -23.5t23 -62.5t-23 -62.5t-62 -23.5t-62 23.5t-23 62.5z" />
    <glyph glyph-name="less" unicode="&#x3c;" 
d="M534 -4h-10l-500 225v99l500 225h10v-109l-390 -164v-3l390 -164v-109z" />
    <glyph glyph-name="equal" unicode="=" 
d="M530 333h-470v103h470v-103zM530 107h-470v103h470v-103z" />
    <glyph glyph-name="greater" unicode="&#x3e;" 
d="M66 -4h-10v109l390 164v3l-390 164v109h10l500 -225v-99z" />
    <glyph glyph-name="question" unicode="?" horiz-adv-x="504" 
d="M290 240h-109l-6 129q68 20 108.5 54t40.5 77q0 31 -23.5 53.5t-64.5 22.5q-69 0 -140 -71l-71 93q32 37 89.5 67t121.5 30q108 0 170.5 -50.5t62.5 -137.5q0 -125 -166 -205zM150 71q0 39 23 62.5t62 23.5t62 -23.5t23 -62.5t-23 -62.5t-62 -23.5t-62 23.5t-23 62.5z
" />
    <glyph glyph-name="at" unicode="@" horiz-adv-x="900" 
d="M619 -35l20 -74q-82 -31 -181 -31q-193 0 -304 109t-111 311q0 116 51.5 214t153.5 159.5t236 61.5q177 0 281 -107t104 -266q0 -135 -64 -214.5t-149 -79.5q-89 0 -123 64h-2q-67 -52 -133 -52q-69 0 -112.5 48.5t-43.5 126.5q0 106 57 188.5t151 82.5q57 0 113 -47h1
l23 35h78l-48 -266q-18 -98 47 -98q47 0 82.5 54.5t35.5 156.5q0 127 -75 210.5t-224 83.5q-163 0 -256 -104t-93 -251q0 -160 84 -250.5t240 -90.5q69 0 161 26zM508 183l33 203q-29 26 -73 26q-52 0 -84 -49.5t-32 -121.5q0 -86 73 -86q46 0 83 28z" />
    <glyph glyph-name="A" unicode="A" horiz-adv-x="668" 
d="M415 680l250 -680h-153l-45 140h-266l-46 -140h-152l250 680h162zM335 538h-3l-93 -286h189z" />
    <glyph glyph-name="B" unicode="B" horiz-adv-x="652" 
d="M218 294v-178h129q62 0 89.5 21t27.5 67q0 47 -28 68.5t-95 21.5h-123zM79 680h249q126 0 189 -44.5t63 -139.5q0 -52 -24.5 -88t-63.5 -53v-2q117 -40 117 -159q0 -98 -60 -146t-190 -48h-280v680zM218 564v-160h104q61 0 87 17.5t26 61.5q0 46 -25.5 63.5t-89.5 17.5
h-102z" />
    <glyph glyph-name="C" unicode="C" horiz-adv-x="605" 
d="M46 340q0 162 86.5 258.5t244.5 96.5q97 0 193 -44l-37 -110q-80 35 -156 35q-89 0 -137.5 -64t-48.5 -172t48.5 -172t137.5 -64q76 0 156 35l37 -110q-96 -44 -193 -44q-158 0 -244.5 96.5t-86.5 258.5z" />
    <glyph glyph-name="D" unicode="D" horiz-adv-x="690" 
d="M79 0v680h213q186 0 267 -84.5t81 -255.5t-81 -255.5t-267 -84.5h-213zM218 116h61q127 0 171.5 51t44.5 173t-44.5 173t-171.5 51h-61v-448z" />
    <glyph glyph-name="E" unicode="E" 
d="M79 680h456v-116h-317v-163h284v-116h-284v-169h320v-116h-459v680z" />
    <glyph glyph-name="F" unicode="F" horiz-adv-x="571" 
d="M79 680h456v-116h-317v-187h284v-116h-284v-261h-139v680z" />
    <glyph glyph-name="G" unicode="G" horiz-adv-x="686" 
d="M368 365h260v-321q-113 -59 -259 -59q-157 0 -240 96.5t-83 258.5q0 153 87.5 254t255.5 101q123 0 231 -49l-40 -108q-92 38 -191 38q-102 0 -150 -62.5t-48 -173.5q0 -236 184 -236q70 0 114 18v127l-121 17v99z" />
    <glyph glyph-name="H" unicode="H" horiz-adv-x="722" 
d="M504 0v285h-286v-285h-139v680h139v-279h286v279h139v-680h-139z" />
    <glyph glyph-name="I" unicode="I" horiz-adv-x="297" 
d="M218 680v-680h-139v680h139z" />
    <glyph glyph-name="J" unicode="J" horiz-adv-x="482" 
d="M7 56l63 100q29 -26 53.5 -39t60.5 -13q44 0 64.5 31t20.5 81v464h139v-473q0 -109 -58.5 -165.5t-165.5 -56.5q-98 0 -177 71z" />
    <glyph glyph-name="K" unicode="K" horiz-adv-x="643" 
d="M220 304h-2v-304h-139v680h139v-329h2l248 329h154v-10l-260 -337l273 -323v-10h-162z" />
    <glyph glyph-name="L" unicode="L" horiz-adv-x="533" 
d="M79 680h139v-564h293v-116h-432v680z" />
    <glyph glyph-name="M" unicode="M" horiz-adv-x="842" 
d="M420 316h2l207 364h134v-680h-139v442h-2l-146 -271h-110l-146 271h-2v-442h-139v680h134z" />
    <glyph glyph-name="N" unicode="N" horiz-adv-x="736" 
d="M515 211h3v469h139v-680h-147l-289 469h-3v-469h-139v680h147z" />
    <glyph glyph-name="O" unicode="O" horiz-adv-x="749" 
d="M192 340q0 -108 43.5 -172t139.5 -64q95 0 138.5 64t43.5 172t-43.5 172t-138.5 64q-96 0 -139.5 -64t-43.5 -172zM702 340q0 -157 -83 -256t-244 -99q-110 0 -185.5 48.5t-109 126.5t-33.5 180t33.5 180t109 126.5t185.5 48.5q161 0 244 -99t83 -256z" />
    <glyph glyph-name="P" unicode="P" horiz-adv-x="596" 
d="M218 0h-139v680h259q118 0 173.5 -60.5t55.5 -164.5t-56 -165t-173 -61h-120v-229zM218 564v-219h110q94 0 94 110q0 109 -94 109h-110z" />
    <glyph glyph-name="Q" unicode="Q" horiz-adv-x="749" 
d="M702 340q0 -196 -118 -290l148 -72l-62 -115l-238 126q-25 -4 -57 -4q-110 0 -185.5 48.5t-109 126.5t-33.5 180t33.5 180t109 126.5t185.5 48.5q161 0 244 -99t83 -256zM192 340q0 -108 43.5 -172t139.5 -64q95 0 138.5 64t43.5 172t-43.5 172t-138.5 64
q-96 0 -139.5 -64t-43.5 -172z" />
    <glyph glyph-name="R" unicode="R" horiz-adv-x="664" 
d="M218 0h-139v680h287q236 0 236 -205q0 -161 -149 -197l186 -262v-16h-152l-182 269h-87v-269zM218 385h141q47 0 72.5 24t25.5 66t-25.5 65.5t-72.5 23.5h-141v-179z" />
    <glyph glyph-name="S" unicode="S" horiz-adv-x="561" 
d="M38 50l43 109q35 -22 89.5 -39.5t98.5 -17.5q112 0 112 86q0 32 -20.5 49.5t-75.5 36.5l-73 24q-161 52 -161 189q0 95 64 151.5t183 56.5q105 0 201 -49l-42 -111q-88 43 -159 43q-105 0 -105 -79q0 -28 15.5 -47t54.5 -31l71 -23q98 -31 143.5 -76.5t45.5 -121.5
q0 -100 -68 -157.5t-186 -57.5q-117 0 -231 65z" />
    <glyph glyph-name="T" unicode="T" horiz-adv-x="568" 
d="M23 680h522v-116h-192v-564h-139v564h-191v116z" />
    <glyph glyph-name="U" unicode="U" horiz-adv-x="706" 
d="M71 680h139v-401q0 -175 143 -175q74 0 108.5 47.5t34.5 127.5v401h139v-401q0 -294 -282 -294t-282 294v401z" />
    <glyph glyph-name="V" unicode="V" horiz-adv-x="661" 
d="M655 680v-10l-240 -670h-169l-240 670v10h151l173 -534h3l171 534h151z" />
    <glyph glyph-name="W" unicode="W" horiz-adv-x="1014" 
d="M995 680v-10l-185 -670h-165l-137 527h-1l-137 -527h-166l-185 670v10h149l115 -530h2l141 530h162l141 -530h2l114 530h150z" />
    <glyph glyph-name="X" unicode="X" horiz-adv-x="624" 
d="M21 680h151l139 -256h2l140 256h150v-10l-192 -329l192 -331v-10h-152l-138 257h-2l-138 -257h-152v10l191 331l-191 329v10z" />
    <glyph glyph-name="Y" unicode="Y" horiz-adv-x="604" 
d="M-3 680h152l151 -280h2l151 280h152v-10l-234 -396v-274h-139v274l-235 396v10z" />
    <glyph glyph-name="Z" unicode="Z" horiz-adv-x="587" 
d="M58 680h483v-100l-333 -462v-2h333v-116h-504v100l332 462v2h-311v116z" />
    <glyph glyph-name="bracketleft" unicode="[" horiz-adv-x="335" 
d="M70 700h232v-73l-117 -23v-706l117 -23v-73h-232v898z" />
    <glyph glyph-name="backslash" unicode="\" horiz-adv-x="448" 
d="M423 0h-116l-282 670v10h116l282 -670v-10z" />
    <glyph glyph-name="bracketright" unicode="]" horiz-adv-x="335" 
d="M33 700h232v-898h-232v73l117 23v706l-117 23v73z" />
    <glyph glyph-name="asciicircum" unicode="^" horiz-adv-x="504" 
d="M492 382v-10h-133l-112 203h-4l-112 -203h-133v10l184 318h126z" />
    <glyph glyph-name="underscore" unicode="_" horiz-adv-x="504" 
d="M443 -113h-382v93h382v-93z" />
    <glyph glyph-name="grave" unicode="`" 
d="M184 704v9h142l79 -136v-10h-118z" />
    <glyph glyph-name="a" unicode="a" horiz-adv-x="543" 
d="M467 302v-197q0 -12 2.5 -15t13.5 -3h35v-92q-37 -7 -70 -7q-70 0 -96 57h-2q-27 -23 -70.5 -41.5t-84.5 -18.5q-79 0 -121 42t-42 110q0 81 56 119.5t182 38.5h65v22q0 40 -25.5 54.5t-56.5 14.5q-82 0 -160 -35l-32 103q95 43 199 43q103 0 155 -50.5t52 -144.5z
M335 208h-51q-123 0 -123 -59q0 -58 64 -58t110 33v84z" />
    <glyph glyph-name="b" unicode="b" horiz-adv-x="586" 
d="M198 357v-232q49 -29 97 -29q58 0 86.5 39t28.5 106t-28.5 106t-86.5 39q-48 0 -97 -29zM63 700h135v-253h2q69 50 137 50q100 0 155.5 -73t55.5 -183t-55.5 -183t-155.5 -73q-33 0 -65 11t-46.5 20t-41.5 27h-2l-19 -43h-100v700z" />
    <glyph glyph-name="c" unicode="c" horiz-adv-x="479" 
d="M38 241q0 118 67 187t189 69q73 0 150 -29l-27 -103q-65 21 -107 21q-59 0 -96.5 -35.5t-37.5 -109.5q0 -75 36.5 -110t97.5 -35q42 0 107 21l27 -103q-77 -29 -150 -29q-122 0 -189 69t-67 187z" />
    <glyph glyph-name="d" unicode="d" horiz-adv-x="587" 
d="M389 125v232q-49 29 -97 29q-58 0 -86.5 -39t-28.5 -106t28.5 -106t86.5 -39q48 0 97 29zM389 700h135v-700h-100l-19 43h-2q-25 -18 -40.5 -27.5t-47.5 -20t-65 -10.5q-100 0 -155.5 73t-55.5 183t55.5 183t155.5 73q68 0 137 -50h2v253z" />
    <glyph glyph-name="e" unicode="e" horiz-adv-x="539" 
d="M496 202h-322q4 -51 35.5 -80t85.5 -29q71 0 154 30l31 -97q-86 -41 -195 -41q-120 0 -184 72.5t-64 184.5q0 108 64 181.5t177 73.5q111 0 168 -58.5t57 -149.5q0 -47 -7 -87zM174 286h205q1 5 1 15q0 98 -101 98q-48 0 -75.5 -33t-29.5 -80z" />
    <glyph glyph-name="f" unicode="f" horiz-adv-x="381" 
d="M240 0h-135v379h-85v73l85 30v64q0 81 43.5 120t120.5 39q49 0 86 -7v-111q-33 7 -65 7q-28 0 -39 -11t-11 -43v-58h120v-103h-120v-379z" />
    <glyph glyph-name="g" unicode="g" horiz-adv-x="586" 
d="M388 132v224q-51 30 -97 30q-114 0 -114 -142q0 -139 114 -139q48 0 97 27zM523 482v-451q0 -120 -64.5 -182t-184.5 -62q-101 0 -189 47l39 99q67 -35 150 -35q60 0 87 24.5t27 83.5v36h-2q-66 -48 -137 -48q-101 0 -155.5 70t-54.5 180t55 181.5t155 71.5q13 0 26 -2
t22.5 -3.5t21.5 -6.5l18 -7.5t17.5 -10t15 -9.5t15.5 -10.5t13 -9.5h2l18 44h105z" />
    <glyph glyph-name="h" unicode="h" horiz-adv-x="581" 
d="M523 0h-135v290q0 96 -86 96q-58 0 -104 -46v-340h-135v700h135v-258h2q60 55 144 55q85 0 132 -52.5t47 -141.5v-303z" />
    <glyph glyph-name="i" unicode="i" horiz-adv-x="261" 
d="M198 0h-135v482h135v-482zM53 640q0 33 21.5 53.5t56.5 20.5q36 0 57.5 -20.5t21.5 -53.5t-21.5 -53.5t-57.5 -20.5q-35 0 -56.5 20.5t-21.5 53.5z" />
    <glyph glyph-name="j" unicode="j" horiz-adv-x="261" 
d="M63 482h135v-513q0 -182 -173 -182q-33 0 -70 7v109q21 -5 53 -5q29 0 42 15t13 48v521zM53 640q0 33 21.5 53.5t56.5 20.5q36 0 57.5 -20.5t21.5 -53.5t-21.5 -53.5t-57.5 -20.5q-35 0 -56.5 20.5t-21.5 53.5z" />
    <glyph glyph-name="k" unicode="k" horiz-adv-x="538" 
d="M200 223h-2v-223h-135v700h135v-435h2l169 217h147v-10l-183 -224l192 -238v-10h-153z" />
    <glyph glyph-name="l" unicode="l" horiz-adv-x="290" 
d="M61 700h135v-592q0 -12 2.5 -15t13.5 -3h53v-92q-37 -7 -80 -7q-68 0 -96 33.5t-28 107.5v568z" />
    <glyph glyph-name="m" unicode="m" horiz-adv-x="905" 
d="M63 482h107l17 -47h3q69 62 155 62q101 0 147 -74h2q2 1 12 10t14.5 12.5t16 12t20 12.5t22 10t26.5 9t30 5.5t35 2.5q86 0 131.5 -52t45.5 -141v-304h-135v290q0 49 -19 72.5t-65 23.5q-51 0 -109 -46q4 -15 4 -36v-304h-135v290q0 48 -19.5 72t-65.5 24q-50 0 -105 -41
v-345h-135v482z" />
    <glyph glyph-name="n" unicode="n" horiz-adv-x="581" 
d="M63 482h108l18 -47h2q69 62 154 62q84 0 131 -52.5t47 -140.5v-304h-135v290q0 96 -86 96q-50 0 -104 -41v-345h-135v482z" />
    <glyph glyph-name="o" unicode="o" horiz-adv-x="583" 
d="M175 241q0 -71 31.5 -108t84.5 -37q55 0 86 37t31 108t-31 108t-86 37q-53 0 -84.5 -37t-31.5 -108zM546 241q0 -110 -67 -183t-188 -73q-119 0 -186.5 73t-67.5 183t67.5 183t186.5 73q121 0 188 -73t67 -183z" />
    <glyph glyph-name="p" unicode="p" horiz-adv-x="586" 
d="M198 357v-232q45 -29 97 -29q58 0 86 38.5t28 106.5t-28 106.5t-86 38.5q-52 0 -97 -29zM63 482h99l19 -43h2q77 58 154 58q100 0 155 -72.5t55 -183.5t-55 -183.5t-155 -72.5q-31 0 -60.5 10t-40.5 16.5t-36 23.5h-2v-233h-135v680z" />
    <glyph glyph-name="q" unicode="q" horiz-adv-x="586" 
d="M388 125v232q-45 29 -97 29q-58 0 -86 -38.5t-28 -106.5t28 -106.5t86 -38.5q52 0 97 29zM523 482v-680h-135v233h-2q-25 -17 -36 -23.5t-40.5 -16.5t-60.5 -10q-100 0 -155 72.5t-55 183.5t55 183.5t155 72.5q33 0 65.5 -11t47 -20t41.5 -27h2l19 43h99z" />
    <glyph glyph-name="r" unicode="r" horiz-adv-x="378" 
d="M63 482h109l19 -58h2q17 29 48 51t74 22q24 0 48 -6l-12 -113q-20 4 -48 4q-67 0 -105 -47v-335h-135v482z" />
    <glyph glyph-name="s" unicode="s" horiz-adv-x="468" 
d="M32 31l40 97q80 -41 155 -41q76 0 76 47q0 20 -15.5 31t-50.5 20l-63 15q-131 31 -131 142q0 72 53.5 113.5t146.5 41.5q95 0 180 -35l-37 -96q-78 29 -139 29q-73 0 -73 -44q0 -20 14.5 -30t47.5 -19l61 -15q137 -34 137 -144q0 -74 -55 -116t-148 -42q-109 0 -199 46z
" />
    <glyph glyph-name="t" unicode="t" horiz-adv-x="415" 
d="M109 594h135v-112h138v-103h-138v-228q0 -55 57 -55q32 0 78 14v-110q-60 -15 -113 -15q-80 0 -118.5 34t-38.5 107v253h-88v73l88 30v112z" />
    <glyph glyph-name="u" unicode="u" horiz-adv-x="575" 
d="M58 482h135v-290q0 -48 19.5 -72t62.5 -24q48 0 102 41v345h135v-482h-109l-18 47h-2q-70 -62 -150 -62q-84 0 -129.5 52t-45.5 141v304z" />
    <glyph glyph-name="v" unicode="v" horiz-adv-x="538" 
d="M527 482v-10l-185 -472h-146l-185 472v10h136l121 -345h2l121 345h136z" />
    <glyph glyph-name="w" unicode="w" horiz-adv-x="840" 
d="M822 482v-10l-144 -472h-147l-110 347h-2l-110 -347h-147l-144 472v10h135l89 -334h2l103 334h146l103 -334h2l89 334h135z" />
    <glyph glyph-name="x" unicode="x" horiz-adv-x="539" 
d="M271 168h-2l-103 -168h-145v10l153 231l-153 231v10h145l103 -169h2l102 169h145v-10l-153 -231l153 -231v-10h-145z" />
    <glyph glyph-name="y" unicode="y" horiz-adv-x="530" 
d="M519 482v-10l-207 -531q-61 -154 -193 -154q-38 0 -79 9v107q29 -5 62 -5q62 0 82 53l20 54l-194 467v10h140l116 -328h3l110 328h140z" />
    <glyph glyph-name="z" unicode="z" horiz-adv-x="472" 
d="M49 482h382v-71l-232 -306v-2h232v-103h-397v71l231 306v2h-216v103z" />
    <glyph glyph-name="braceleft" unicode="{" horiz-adv-x="367" 
d="M24 203v96q40 0 64.5 20.5t24.5 58.5v132q0 96 40 143t145 47h36v-73q-106 0 -106 -108v-138q0 -60 -20 -90.5t-66 -38.5v-2q46 -8 66 -38.5t20 -90.5v-138q0 -108 106 -108v-73h-36q-105 0 -145 47t-40 143v132q0 38 -24.5 58.5t-64.5 20.5z" />
    <glyph glyph-name="bar" unicode="|" horiz-adv-x="229" 
d="M159 700v-898h-89v898h89z" />
    <glyph glyph-name="braceright" unicode="}" horiz-adv-x="367" 
d="M343 299v-96q-40 0 -64.5 -20.5t-24.5 -58.5v-132q0 -96 -40 -143t-145 -47h-36v73q106 0 106 108v138q0 60 20 90.5t66 38.5v2q-46 8 -66 38.5t-20 90.5v138q0 108 -106 108v73h36q105 0 145 -47t40 -143v-132q0 -38 24.5 -58.5t64.5 -20.5z" />
    <glyph glyph-name="asciitilde" unicode="~" horiz-adv-x="559" 
d="M93 222l-48 63q46 65 130 65q44 0 113 -27.5t105 -27.5q44 0 71 24l48 -63q-47 -64 -129 -64q-39 0 -110.5 27.5t-108.5 27.5q-46 0 -71 -25z" />
    <glyph glyph-name="uni00A0" unicode="&#xa0;" horiz-adv-x="231" 
 />
    <glyph glyph-name="exclamdown" unicode="&#xa1;" horiz-adv-x="268" 
d="M61 -47l28 289h89l28 -289v-151h-145v151zM219 411q0 -39 -23 -62.5t-62 -23.5t-62 23.5t-23 62.5t23 62.5t62 23.5t62 -23.5t23 -62.5z" />
    <glyph glyph-name="cent" unicode="&#xa2;" 
d="M395 578v-85q54 -7 103 -25l-27 -103q-42 14 -76 19v-286q34 5 76 19l27 -103q-49 -18 -103 -25v-85h-89v84q-103 12 -158.5 79t-55.5 174q0 105 55.5 173t158.5 80v84h89zM230 241q0 -102 76 -133v265q-76 -31 -76 -132z" />
    <glyph glyph-name="sterling" unicode="&#xa3;" 
d="M443 283h-165q4 -25 4 -56q0 -58 -51 -109v-2h293v-116h-456v96q69 38 69 106q0 32 -7 81h-72v103h58q-5 47 -5 93q0 216 235 216q98 0 193 -45l-37 -110q-84 36 -156 36q-90 0 -90 -97q0 -39 7 -93h180v-103z" />
    <glyph glyph-name="currency" unicode="&#xa4;" horiz-adv-x="599" 
d="M484 270q0 -53 -21 -91l94 -92l-73 -74l-93 93q-37 -21 -94 -21q-54 0 -91 19l-90 -91l-74 74l90 90q-21 38 -21 93q0 53 22 94l-91 91l74 73l91 -92q37 19 90 19q55 0 92 -21l95 94l73 -73l-94 -94q21 -39 21 -91zM224 270q0 -44 19.5 -66t53.5 -22t54 22t20 66t-20 66
t-54 22t-53.5 -22t-19.5 -66z" />
    <glyph glyph-name="yen" unicode="&#xa5;" 
d="M550 124h-184v-124h-139v124h-187v103h187v66h-187v103h128l-156 274v10h152l131 -260h2l131 260h152v-10l-156 -274h126v-103h-184v-66h184v-103z" />
    <glyph glyph-name="brokenbar" unicode="&#xa6;" horiz-adv-x="237" 
d="M74 134h89v-332h-89v332zM163 368h-89v332h89v-332z" />
    <glyph glyph-name="section" unicode="&#xa7;" horiz-adv-x="579" 
d="M342 298l-117 44q-30 -18 -30 -60q0 -50 54 -70l115 -44q30 20 30 59q0 51 -52 71zM449 136v-2q83 -44 83 -130q0 -88 -67 -136t-178 -48q-120 0 -240 54l43 119q120 -58 194 -58q106 0 106 52q0 22 -15.5 36.5t-62.5 31.5l-116 43q-73 28 -106 62.5t-33 94.5
q0 78 83 119v2q-83 44 -83 136q0 86 64 134.5t179 48.5q118 0 205 -37l-42 -113q-84 35 -164 35q-100 0 -100 -56q0 -21 15 -35.5t55 -28.5l97 -34q90 -32 128 -69.5t38 -94.5q0 -80 -83 -126z" />
    <glyph glyph-name="dieresis" unicode="&#xa8;" 
d="M106 640q0 33 21.5 53.5t56.5 20.5q36 0 57.5 -20.5t21.5 -53.5t-21.5 -53.5t-57.5 -20.5q-35 0 -56.5 20.5t-21.5 53.5zM326 640q0 33 21.5 53.5t56.5 20.5q36 0 57.5 -20.5t21.5 -53.5t-21.5 -53.5t-57.5 -20.5q-35 0 -56.5 20.5t-21.5 53.5z" />
    <glyph glyph-name="copyright" unicode="&#xa9;" horiz-adv-x="802" 
d="M46 340q0 151 102 253t253 102t253 -102t102 -253t-102 -253t-253 -102t-253 102t-102 253zM117 340q0 -122 84 -204.5t207 -82.5q121 0 199 82t78 205t-81 205t-203 82t-203 -82t-81 -205zM214 340q0 89 50.5 142t142.5 53q59 0 113 -24l-24 -72q-44 20 -89 20
q-43 0 -70.5 -33t-27.5 -86t27.5 -86t70.5 -33q45 0 89 20l24 -72q-54 -24 -113 -24q-92 0 -142.5 53t-50.5 142z" />
    <glyph glyph-name="ordfeminine" unicode="&#xaa;" horiz-adv-x="435" 
d="M259 478h-46q-50 0 -50 -32q0 -31 34 -31q30 0 62 19v44zM357 350h-73l-15 27h-1q-43 -36 -96 -36q-54 0 -80.5 26.5t-26.5 69.5q0 101 138 101h56v9q0 19 -11.5 28t-39.5 9q-51 0 -106 -20l-20 75q70 24 131 24q69 0 106.5 -34.5t37.5 -94.5v-184zM357 196h-283v87h283
v-87z" />
    <glyph glyph-name="guillemotleft" unicode="&#xab;" horiz-adv-x="542" 
d="M34 264v12l161 219l83 -49l-107 -177l108 -176l-84 -48zM255 264v12l161 219l83 -49l-107 -177l108 -176l-84 -48z" />
    <glyph glyph-name="logicalnot" unicode="&#xac;" 
d="M455 99v121h-417v103h510v-224h-93z" />
    <glyph glyph-name="uni00AD" unicode="&#xad;" horiz-adv-x="414" 
d="M352 220h-290v103h290v-103z" />
    <glyph glyph-name="registered" unicode="&#xae;" horiz-adv-x="548" 
d="M46 561q0 97 65.5 163t162.5 66t162.5 -66t65.5 -163t-65.5 -162.5t-162.5 -65.5t-162.5 65.5t-65.5 162.5zM101 561q0 -74 51 -125t127 -51q73 0 120.5 50.5t47.5 125.5t-49 125.5t-124 50.5t-124 -50.5t-49 -125.5zM239 455h-55v218h99q81 0 81 -69q0 -51 -49 -65
l60 -79v-5h-63l-53 80h-20v-80zM239 579h41q29 0 29 24t-29 24h-41v-48z" />
    <glyph glyph-name="macron" unicode="&#xaf;" 
d="M440 579h-290v103h290v-103z" />
    <glyph glyph-name="degree" unicode="&#xb0;" horiz-adv-x="441" 
d="M140 528q0 -37 22 -57.5t59 -20.5t58.5 20t21.5 58q0 35 -21.5 56t-58.5 21q-36 0 -58.5 -21t-22.5 -56zM44 528q0 77 48.5 122t128.5 45t128 -45t48 -122q0 -78 -48.5 -124t-127.5 -46q-80 0 -128.5 46t-48.5 124z" />
    <glyph glyph-name="plusminus" unicode="&#xb1;" 
d="M348 626v-193h202v-103h-202v-144h-107v144h-201v103h201v193h107zM40 103h510v-103h-510v103z" />
    <glyph glyph-name="twosuperior" unicode="&#xb2;" horiz-adv-x="328" 
d="M159 526v-2h141v-76h-275v70l147 117q26 21 26 50q0 19 -12 31.5t-32 12.5q-35 0 -77 -42l-53 60q54 61 135 61q60 0 98 -30.5t38 -86.5q0 -61 -68 -112z" />
    <glyph glyph-name="threesuperior" unicode="&#xb3;" horiz-adv-x="324" 
d="M78 585v77h69q45 0 45 33q0 34 -50 34q-51 0 -90 -17l-26 73q59 23 119 23q69 0 106 -26t37 -74q0 -34 -16.5 -53t-39.5 -22v-1q66 -20 66 -88q0 -104 -158 -104q-69 0 -123 27l24 75q44 -22 98 -22q63 0 63 37q0 17 -12 22.5t-42 5.5h-70z" />
    <glyph glyph-name="acute" unicode="&#xb4;" 
d="M405 713v-9l-103 -137h-118v10l79 136h142z" />
    <glyph glyph-name="mu" unicode="&#xb5;" horiz-adv-x="577" 
d="M203 -198h-135v680h135v-290q0 -48 19.5 -72t62.5 -24q48 0 102 41v345h135v-482h-109l-18 47h-2q-67 -62 -133 -62q-34 0 -57 16v-199z" />
    <glyph glyph-name="paragraph" unicode="&#xb6;" horiz-adv-x="600" 
d="M213 -198v526q-80 0 -132.5 46.5t-52.5 128.5t53 129.5t132 47.5h357v-85h-95v-793h-88v793h-85v-793h-89z" />
    <glyph glyph-name="periodcentered" unicode="&#xb7;" horiz-adv-x="278" 
d="M54 291q0 39 23 62.5t62 23.5t62 -23.5t23 -62.5t-23 -62.5t-62 -23.5t-62 23.5t-23 62.5z" />
    <glyph glyph-name="cedilla" unicode="&#xb8;" 
d="M232 -94l-4 6l37 95h80l-23 -52q69 -11 69 -73q0 -45 -31 -70t-87 -25q-42 0 -75 12l14 63q24 -8 43 -8q35 0 35 25q0 27 -58 27z" />
    <glyph glyph-name="onesuperior" unicode="&#xb9;" horiz-adv-x="261" 
d="M25 658h-9v84l130 58h70v-352h-92v254h-2z" />
    <glyph glyph-name="ordmasculine" unicode="&#xba;" horiz-adv-x="439" 
d="M150 502q0 -78 69 -78t69 78t-69 78t-69 -78zM388 502q0 -69 -45 -115t-124 -46q-78 0 -123.5 46t-45.5 115t45.5 115t123.5 46q79 0 124 -46t45 -115zM360 196h-283v87h283v-87z" />
    <glyph glyph-name="guillemotright" unicode="&#xbb;" horiz-adv-x="543" 
d="M288 276v-12l-161 -219l-83 49l107 177l-108 176l84 48zM509 276v-12l-161 -219l-83 49l107 177l-108 176l84 48z" />
    <glyph glyph-name="onequarter" unicode="&#xbc;" horiz-adv-x="755" 
d="M196 0h-104v10l456 670h104v-10zM590 244h91v-93h42v-76h-42v-75h-91v75h-172v68l90 209h93l-81 -200v-1h70v93zM39 538h-9v84l130 58h70v-352h-92v254h-2z" />
    <glyph glyph-name="onehalf" unicode="&#xbd;" horiz-adv-x="774" 
d="M593 78v-2h141v-76h-275v70l147 117q26 21 26 50q0 19 -12 31.5t-32 12.5q-35 0 -77 -42l-53 60q54 61 135 61q60 0 98 -30.5t38 -86.5q0 -61 -68 -112zM196 0h-104v10l456 670h104v-10zM39 538h-9v84l130 58h70v-352h-92v254h-2z" />
    <glyph glyph-name="threequarters" unicode="&#xbe;" horiz-adv-x="796" 
d="M238 0h-104v10l456 670h104v-10zM632 244h91v-93h42v-76h-42v-75h-91v75h-172v68l90 209h93l-81 -200v-1h70v93zM94 462v77h69q45 0 45 33q0 34 -50 34q-51 0 -90 -17l-26 73q59 23 119 23q69 0 106 -26t37 -74q0 -34 -16.5 -53t-39.5 -22v-1q66 -20 66 -88
q0 -104 -158 -104q-69 0 -123 27l24 75q44 -22 98 -22q63 0 63 37q0 17 -12 22.5t-42 5.5h-70z" />
    <glyph glyph-name="questiondown" unicode="&#xbf;" horiz-adv-x="501" 
d="M212 242h109l6 -129q-149 -50 -149 -131q0 -32 23.5 -54t64.5 -22q69 0 140 71l71 -93q-35 -38 -90.5 -67.5t-120.5 -29.5q-108 0 -170.5 50.5t-62.5 137.5q0 125 166 205zM352 411q0 -39 -23 -62.5t-62 -23.5t-62 23.5t-23 62.5t23 62.5t62 23.5t62 -23.5t23 -62.5z" />
    <glyph glyph-name="Agrave" unicode="&#xc0;" horiz-adv-x="668" 
d="M415 680l250 -680h-153l-45 140h-266l-46 -140h-152l250 680h162zM335 538h-3l-93 -286h189zM198 887v9h152l59 -136v-10h-128z" />
    <glyph glyph-name="Aacute" unicode="&#xc1;" horiz-adv-x="668" 
d="M415 680l250 -680h-153l-45 140h-266l-46 -140h-152l250 680h162zM335 538h-3l-93 -286h189zM471 896v-9l-83 -137h-128v10l59 136h152z" />
    <glyph glyph-name="Acircumflex" unicode="&#xc2;" horiz-adv-x="668" 
d="M415 680l250 -680h-153l-45 140h-266l-46 -140h-152l250 680h162zM335 538h-3l-93 -286h189zM398 896l111 -136v-10h-112l-63 79l-62 -79h-112v10l111 136h127z" />
    <glyph glyph-name="Atilde" unicode="&#xc3;" horiz-adv-x="668" 
d="M415 680l250 -680h-153l-45 140h-266l-46 -140h-152l250 680h162zM335 538h-3l-93 -286h189zM187 761l-27 70q16 29 45 47.5t61 18.5q33 0 78.5 -22.5t70.5 -22.5q40 0 67 34l27 -68q-17 -31 -46 -49t-59 -18q-31 0 -80 22.5t-70 22.5q-38 0 -67 -35z" />
    <glyph glyph-name="Adieresis" unicode="&#xc4;" horiz-adv-x="668" 
d="M415 680l250 -680h-153l-45 140h-266l-46 -140h-152l250 680h162zM335 538h-3l-93 -286h189zM125 819q0 33 21.5 53.5t56.5 20.5q36 0 57.5 -20.5t21.5 -53.5t-21.5 -53.5t-57.5 -20.5q-35 0 -56.5 20.5t-21.5 53.5zM386 819q0 33 21.5 53.5t56.5 20.5q36 0 57.5 -20.5
t21.5 -53.5t-21.5 -53.5t-57.5 -20.5q-35 0 -56.5 20.5t-21.5 53.5z" />
    <glyph glyph-name="Aring" unicode="&#xc5;" horiz-adv-x="666" 
d="M211 751q0 51 33.5 81.5t88.5 30.5q54 0 87.5 -30.5t33.5 -81.5q0 -56 -47 -89l257 -661h-153l-45 140h-266l-46 -140h-152l256 660q-47 33 -47 90zM334 539h-3l-93 -286h189zM291 751q0 -18 11.5 -28.5t30.5 -10.5q41 0 41 39q0 18 -11 28.5t-30 10.5t-30.5 -10.5
t-11.5 -28.5z" />
    <glyph glyph-name="AE" unicode="&#xc6;" horiz-adv-x="958" 
d="M-19 0v10l403 670h519v-116h-317v-163h284v-116h-284v-169h320v-116h-459v140h-234l-83 -140h-149zM447 544h-3l-167 -292h170v292z" />
    <glyph glyph-name="Ccedilla" unicode="&#xc7;" horiz-adv-x="606" 
d="M288 -94l-4 6l30 78q-128 18 -197.5 111.5t-69.5 238.5q0 162 86.5 258.5t244.5 96.5q97 0 193 -44l-37 -110q-80 35 -156 35q-89 0 -137.5 -64t-48.5 -172t48.5 -172t137.5 -64q76 0 156 35l37 -110q-86 -39 -180 -44l-13 -30q69 -11 69 -73q0 -45 -31 -70t-87 -25
q-42 0 -75 12l14 63q24 -8 43 -8q35 0 35 25q0 27 -58 27z" />
    <glyph glyph-name="Egrave" unicode="&#xc8;" 
d="M79 680h456v-116h-317v-163h284v-116h-284v-169h320v-116h-459v680zM169 887v9h152l59 -136v-10h-128z" />
    <glyph glyph-name="Eacute" unicode="&#xc9;" 
d="M79 680h456v-116h-317v-163h284v-116h-284v-169h320v-116h-459v680zM457 896v-9l-83 -137h-128v10l59 136h152z" />
    <glyph glyph-name="Ecircumflex" unicode="&#xca;" 
d="M79 680h456v-116h-317v-163h284v-116h-284v-169h320v-116h-459v680zM373 896l111 -136v-10h-112l-63 79l-62 -79h-112v10l111 136h127z" />
    <glyph glyph-name="Edieresis" unicode="&#xcb;" 
d="M79 680h456v-116h-317v-163h284v-116h-284v-169h320v-116h-459v680zM96 819q0 33 21.5 53.5t56.5 20.5q36 0 57.5 -20.5t21.5 -53.5t-21.5 -53.5t-57.5 -20.5q-35 0 -56.5 20.5t-21.5 53.5zM357 819q0 33 21.5 53.5t56.5 20.5q36 0 57.5 -20.5t21.5 -53.5t-21.5 -53.5
t-57.5 -20.5q-35 0 -56.5 20.5t-21.5 53.5z" />
    <glyph glyph-name="Igrave" unicode="&#xcc;" horiz-adv-x="297" 
d="M218 680v-680h-139v680h139zM6 887v9h152l59 -136v-10h-128z" />
    <glyph glyph-name="Iacute" unicode="&#xcd;" horiz-adv-x="297" 
d="M218 680v-680h-139v680h139zM295 896v-9l-83 -137h-128v10l59 136h152z" />
    <glyph glyph-name="Icircumflex" unicode="&#xce;" horiz-adv-x="297" 
d="M218 680v-680h-139v680h139zM212 896l111 -136v-10h-112l-63 79l-62 -79h-112v10l111 136h127z" />
    <glyph glyph-name="Idieresis" unicode="&#xcf;" horiz-adv-x="297" 
d="M218 680v-680h-139v680h139zM-62 819q0 33 21.5 53.5t56.5 20.5q36 0 57.5 -20.5t21.5 -53.5t-21.5 -53.5t-57.5 -20.5q-35 0 -56.5 20.5t-21.5 53.5zM199 819q0 33 21.5 53.5t56.5 20.5q36 0 57.5 -20.5t21.5 -53.5t-21.5 -53.5t-57.5 -20.5q-35 0 -56.5 20.5
t-21.5 53.5z" />
    <glyph glyph-name="Eth" unicode="&#xd0;" horiz-adv-x="705" 
d="M94 0v277h-48v116h48v287h213q186 0 267 -84.5t81 -255.5t-81 -255.5t-267 -84.5h-213zM233 116h61q127 0 171.5 51t44.5 173t-44.5 173t-171.5 51h-61v-171h113v-116h-113v-161z" />
    <glyph glyph-name="Ntilde" unicode="&#xd1;" horiz-adv-x="736" 
d="M515 211h3v469h139v-680h-147l-289 469h-3v-469h-139v680h147zM216 761l-27 70q16 29 45 47.5t61 18.5q33 0 78.5 -22.5t70.5 -22.5q40 0 67 34l27 -68q-17 -31 -46 -49t-59 -18q-31 0 -80 22.5t-70 22.5q-38 0 -67 -35z" />
    <glyph glyph-name="Ograve" unicode="&#xd2;" horiz-adv-x="749" 
d="M192 340q0 -108 43.5 -172t139.5 -64q95 0 138.5 64t43.5 172t-43.5 172t-138.5 64q-96 0 -139.5 -64t-43.5 -172zM702 340q0 -157 -83 -256t-244 -99q-110 0 -185.5 48.5t-109 126.5t-33.5 180t33.5 180t109 126.5t185.5 48.5q161 0 244 -99t83 -256zM248 887v9h152
l59 -136v-10h-128z" />
    <glyph glyph-name="Oacute" unicode="&#xd3;" horiz-adv-x="749" 
d="M192 340q0 -108 43.5 -172t139.5 -64q95 0 138.5 64t43.5 172t-43.5 172t-138.5 64q-96 0 -139.5 -64t-43.5 -172zM702 340q0 -157 -83 -256t-244 -99q-110 0 -185.5 48.5t-109 126.5t-33.5 180t33.5 180t109 126.5t185.5 48.5q161 0 244 -99t83 -256zM519 896v-9
l-83 -137h-128v10l59 136h152z" />
    <glyph glyph-name="Ocircumflex" unicode="&#xd4;" horiz-adv-x="749" 
d="M192 340q0 -108 43.5 -172t139.5 -64q95 0 138.5 64t43.5 172t-43.5 172t-138.5 64q-96 0 -139.5 -64t-43.5 -172zM702 340q0 -157 -83 -256t-244 -99q-110 0 -185.5 48.5t-109 126.5t-33.5 180t33.5 180t109 126.5t185.5 48.5q161 0 244 -99t83 -256zM445 896l111 -136
v-10h-112l-63 79l-62 -79h-112v10l111 136h127z" />
    <glyph glyph-name="Otilde" unicode="&#xd5;" horiz-adv-x="749" 
d="M192 340q0 -108 43.5 -172t139.5 -64q95 0 138.5 64t43.5 172t-43.5 172t-138.5 64q-96 0 -139.5 -64t-43.5 -172zM702 340q0 -157 -83 -256t-244 -99q-110 0 -185.5 48.5t-109 126.5t-33.5 180t33.5 180t109 126.5t185.5 48.5q161 0 244 -99t83 -256zM230 761l-27 70
q16 29 45 47.5t61 18.5q33 0 78.5 -22.5t70.5 -22.5q40 0 67 34l27 -68q-17 -31 -46 -49t-59 -18q-31 0 -80 22.5t-70 22.5q-38 0 -67 -35z" />
    <glyph glyph-name="Odieresis" unicode="&#xd6;" horiz-adv-x="749" 
d="M192 340q0 -108 43.5 -172t139.5 -64q95 0 138.5 64t43.5 172t-43.5 172t-138.5 64q-96 0 -139.5 -64t-43.5 -172zM702 340q0 -157 -83 -256t-244 -99q-110 0 -185.5 48.5t-109 126.5t-33.5 180t33.5 180t109 126.5t185.5 48.5q161 0 244 -99t83 -256zM168 819
q0 33 21.5 53.5t56.5 20.5q36 0 57.5 -20.5t21.5 -53.5t-21.5 -53.5t-57.5 -20.5q-35 0 -56.5 20.5t-21.5 53.5zM429 819q0 33 21.5 53.5t56.5 20.5q36 0 57.5 -20.5t21.5 -53.5t-21.5 -53.5t-57.5 -20.5q-35 0 -56.5 20.5t-21.5 53.5z" />
    <glyph glyph-name="multiply" unicode="&#xd7;" 
d="M130 509l164 -165l166 165l73 -73l-166 -165l166 -165l-73 -73l-166 165l-164 -165l-73 73l164 165l-164 165z" />
    <glyph glyph-name="Oslash" unicode="&#xd8;" horiz-adv-x="749" 
d="M173 -32l-78 51l40 59q-88 94 -88 262q0 102 33.5 180t109 126.5t185.5 48.5q89 0 158 -33l35 53l77 -52l-38 -55q95 -96 95 -268q0 -157 -83 -256t-244 -99q-95 0 -167 37zM557 340q0 91 -31 150l-247 -363q41 -23 96 -23q95 0 138.5 64t43.5 172zM192 340
q0 -90 25 -141l244 358q-36 19 -86 19q-96 0 -139.5 -64t-43.5 -172z" />
    <glyph glyph-name="Ugrave" unicode="&#xd9;" horiz-adv-x="706" 
d="M71 680h139v-401q0 -175 143 -175q74 0 108.5 47.5t34.5 127.5v401h139v-401q0 -294 -282 -294t-282 294v401zM215 887v9h152l59 -136v-10h-128z" />
    <glyph glyph-name="Uacute" unicode="&#xda;" horiz-adv-x="706" 
d="M71 680h139v-401q0 -175 143 -175q74 0 108.5 47.5t34.5 127.5v401h139v-401q0 -294 -282 -294t-282 294v401zM499 896v-9l-83 -137h-128v10l59 136h152z" />
    <glyph glyph-name="Ucircumflex" unicode="&#xdb;" horiz-adv-x="706" 
d="M71 680h139v-401q0 -175 143 -175q74 0 108.5 47.5t34.5 127.5v401h139v-401q0 -294 -282 -294t-282 294v401zM416 896l111 -136v-10h-112l-63 79l-62 -79h-112v10l111 136h127z" />
    <glyph glyph-name="Udieresis" unicode="&#xdc;" horiz-adv-x="706" 
d="M71 680h139v-401q0 -175 143 -175q74 0 108.5 47.5t34.5 127.5v401h139v-401q0 -294 -282 -294t-282 294v401zM143 819q0 33 21.5 53.5t56.5 20.5q36 0 57.5 -20.5t21.5 -53.5t-21.5 -53.5t-57.5 -20.5q-35 0 -56.5 20.5t-21.5 53.5zM404 819q0 33 21.5 53.5t56.5 20.5
q36 0 57.5 -20.5t21.5 -53.5t-21.5 -53.5t-57.5 -20.5q-35 0 -56.5 20.5t-21.5 53.5z" />
    <glyph glyph-name="Yacute" unicode="&#xdd;" horiz-adv-x="604" 
d="M-3 680h152l151 -280h2l151 280h152v-10l-234 -396v-274h-139v274l-235 396v10zM444 896v-9l-83 -137h-128v10l59 136h152z" />
    <glyph glyph-name="Thorn" unicode="&#xde;" horiz-adv-x="603" 
d="M218 0h-139v680h139v-106h120q118 0 173.5 -60.5t55.5 -164.5t-56 -165t-173 -61h-120v-123zM218 458v-219h110q94 0 94 110q0 109 -94 109h-110z" />
    <glyph glyph-name="germandbls" unicode="&#xdf;" horiz-adv-x="628" 
d="M63 0v457q0 121 67.5 184.5t183.5 63.5q100 0 162.5 -50.5t62.5 -141.5q0 -103 -79 -138v-2q57 -20 94 -64.5t37 -113.5q0 -210 -262 -210q-39 0 -55 4v110q17 -3 55 -3q64 0 94 26.5t30 82.5q0 103 -133 103h-27v103h26q39 0 60.5 24t21.5 69q0 42 -26 66t-74 24
q-103 0 -103 -134v-460h-135z" />
    <glyph glyph-name="agrave" unicode="&#xe0;" horiz-adv-x="543" 
d="M467 302v-197q0 -12 2.5 -15t13.5 -3h35v-92q-37 -7 -70 -7q-70 0 -96 57h-2q-27 -23 -70.5 -41.5t-84.5 -18.5q-79 0 -121 42t-42 110q0 81 56 119.5t182 38.5h65v22q0 40 -25.5 54.5t-56.5 14.5q-82 0 -160 -35l-32 103q95 43 199 43q103 0 155 -50.5t52 -144.5z
M335 208h-51q-123 0 -123 -59q0 -58 64 -58t110 33v84zM138 704v9h142l79 -136v-10h-118z" />
    <glyph glyph-name="aacute" unicode="&#xe1;" horiz-adv-x="543" 
d="M467 302v-197q0 -12 2.5 -15t13.5 -3h35v-92q-37 -7 -70 -7q-70 0 -96 57h-2q-27 -23 -70.5 -41.5t-84.5 -18.5q-79 0 -121 42t-42 110q0 81 56 119.5t182 38.5h65v22q0 40 -25.5 54.5t-56.5 14.5q-82 0 -160 -35l-32 103q95 43 199 43q103 0 155 -50.5t52 -144.5z
M335 208h-51q-123 0 -123 -59q0 -58 64 -58t110 33v84zM434 713v-9l-103 -137h-118v10l79 136h142z" />
    <glyph glyph-name="acircumflex" unicode="&#xe2;" horiz-adv-x="543" 
d="M467 302v-197q0 -12 2.5 -15t13.5 -3h35v-92q-37 -7 -70 -7q-70 0 -96 57h-2q-27 -23 -70.5 -41.5t-84.5 -18.5q-79 0 -121 42t-42 110q0 81 56 119.5t182 38.5h65v22q0 40 -25.5 54.5t-56.5 14.5q-82 0 -160 -35l-32 103q95 43 199 43q103 0 155 -50.5t52 -144.5z
M335 208h-51q-123 0 -123 -59q0 -58 64 -58t110 33v84zM363 713l91 -136v-10h-112l-53 69l-52 -69h-112v10l91 136h147z" />
    <glyph glyph-name="atilde" unicode="&#xe3;" horiz-adv-x="543" 
d="M467 302v-197q0 -12 2.5 -15t13.5 -3h35v-92q-37 -7 -70 -7q-70 0 -96 57h-2q-27 -23 -70.5 -41.5t-84.5 -18.5q-79 0 -121 42t-42 110q0 81 56 119.5t182 38.5h65v22q0 40 -25.5 54.5t-56.5 14.5q-82 0 -160 -35l-32 103q95 43 199 43q103 0 155 -50.5t52 -144.5z
M335 208h-51q-123 0 -123 -59q0 -58 64 -58t110 33v84zM141 577l-27 70q16 29 45 47.5t61 18.5q33 0 78.5 -22.5t70.5 -22.5q40 0 67 34l27 -68q-17 -31 -46 -49t-59 -18q-31 0 -80 22.5t-70 22.5q-38 0 -67 -35z" />
    <glyph glyph-name="adieresis" unicode="&#xe4;" horiz-adv-x="543" 
d="M467 302v-197q0 -12 2.5 -15t13.5 -3h35v-92q-37 -7 -70 -7q-70 0 -96 57h-2q-27 -23 -70.5 -41.5t-84.5 -18.5q-79 0 -121 42t-42 110q0 81 56 119.5t182 38.5h65v22q0 40 -25.5 54.5t-56.5 14.5q-82 0 -160 -35l-32 103q95 43 199 43q103 0 155 -50.5t52 -144.5z
M335 208h-51q-123 0 -123 -59q0 -58 64 -58t110 33v84zM100 640q0 33 21.5 53.5t56.5 20.5q36 0 57.5 -20.5t21.5 -53.5t-21.5 -53.5t-57.5 -20.5q-35 0 -56.5 20.5t-21.5 53.5zM320 640q0 33 21.5 53.5t56.5 20.5q36 0 57.5 -20.5t21.5 -53.5t-21.5 -53.5t-57.5 -20.5
q-35 0 -56.5 20.5t-21.5 53.5z" />
    <glyph glyph-name="aring" unicode="&#xe5;" horiz-adv-x="543" 
d="M467 302v-197q0 -12 2.5 -15t13.5 -3h35v-92q-37 -7 -70 -7q-70 0 -96 57h-2q-27 -23 -70.5 -41.5t-84.5 -18.5q-79 0 -121 42t-42 110q0 81 56 119.5t182 38.5h65v22q0 40 -25.5 54.5t-56.5 14.5q-82 0 -160 -35l-32 103q95 43 199 43q103 0 155 -50.5t52 -144.5z
M335 208h-51q-123 0 -123 -59q0 -58 64 -58t110 33v84zM248 643q0 -18 11.5 -28.5t30.5 -10.5q41 0 41 39q0 18 -11 28.5t-30 10.5t-30.5 -10.5t-11.5 -28.5zM168 643q0 51 33.5 81.5t88.5 30.5q54 0 87.5 -30.5t33.5 -81.5q0 -53 -33 -83t-88 -30t-88.5 30.5t-33.5 82.5z
" />
    <glyph glyph-name="ae" unicode="&#xe6;" horiz-adv-x="831" 
d="M788 202h-314q11 -109 118 -109q66 0 149 30l31 -97q-86 -41 -190 -41q-114 0 -183 86q-37 -40 -81.5 -63t-116.5 -23q-79 0 -124 42t-45 110q0 156 216 156h90v24q0 20 -7.5 34t-16 20.5t-24 10t-23 4t-21.5 0.5q-75 0 -153 -35l-32 103q95 43 192 43q106 0 163 -65
q63 65 159 65q111 0 165.5 -58.5t54.5 -149.5q0 -47 -7 -87zM472 286h199q1 5 1 15q0 98 -98 98q-48 0 -74 -32.5t-28 -80.5zM340 206h-88q-94 0 -94 -60q0 -57 63 -57q47 0 83 33t36 84z" />
    <glyph glyph-name="ccedilla" unicode="&#xe7;" horiz-adv-x="479" 
d="M208 -94l-4 6l30 79q-93 16 -144.5 83t-51.5 167q0 116 67.5 186t188.5 70q73 0 150 -29l-27 -103q-65 21 -101 21q-60 0 -100 -35.5t-40 -109.5t40 -109.5t100 -35.5q36 0 101 21l27 -103q-63 -24 -133 -28l-13 -31q69 -11 69 -73q0 -45 -31 -70t-87 -25q-42 0 -75 12
l14 63q24 -8 43 -8q35 0 35 25q0 27 -58 27z" />
    <glyph glyph-name="egrave" unicode="&#xe8;" horiz-adv-x="539" 
d="M496 202h-322q4 -51 35.5 -80t85.5 -29q71 0 154 30l31 -97q-86 -41 -195 -41q-120 0 -184 72.5t-64 184.5q0 108 64 181.5t177 73.5q111 0 168 -58.5t57 -149.5q0 -47 -7 -87zM174 286h205q1 5 1 15q0 98 -101 98q-48 0 -75.5 -33t-29.5 -80zM139 704v9h142l79 -136v-10
h-118z" />
    <glyph glyph-name="eacute" unicode="&#xe9;" horiz-adv-x="539" 
d="M496 202h-322q4 -51 35.5 -80t85.5 -29q71 0 154 30l31 -97q-86 -41 -195 -41q-120 0 -184 72.5t-64 184.5q0 108 64 181.5t177 73.5q111 0 168 -58.5t57 -149.5q0 -47 -7 -87zM174 286h205q1 5 1 15q0 98 -101 98q-48 0 -75.5 -33t-29.5 -80zM443 713v-9l-103 -137h-118
v10l79 136h142z" />
    <glyph glyph-name="ecircumflex" unicode="&#xea;" horiz-adv-x="539" 
d="M496 202h-322q4 -51 35.5 -80t85.5 -29q71 0 154 30l31 -97q-86 -41 -195 -41q-120 0 -184 72.5t-64 184.5q0 108 64 181.5t177 73.5q111 0 168 -58.5t57 -149.5q0 -47 -7 -87zM174 286h205q1 5 1 15q0 98 -101 98q-48 0 -75.5 -33t-29.5 -80zM357 713l91 -136v-10h-112
l-53 69l-52 -69h-112v10l91 136h147z" />
    <glyph glyph-name="edieresis" unicode="&#xeb;" horiz-adv-x="539" 
d="M496 202h-322q4 -51 35.5 -80t85.5 -29q71 0 154 30l31 -97q-86 -41 -195 -41q-120 0 -184 72.5t-64 184.5q0 108 64 181.5t177 73.5q111 0 168 -58.5t57 -149.5q0 -47 -7 -87zM174 286h205q1 5 1 15q0 98 -101 98q-48 0 -75.5 -33t-29.5 -80zM95 640q0 33 21.5 53.5
t56.5 20.5q36 0 57.5 -20.5t21.5 -53.5t-21.5 -53.5t-57.5 -20.5q-35 0 -56.5 20.5t-21.5 53.5zM315 640q0 33 21.5 53.5t56.5 20.5q36 0 57.5 -20.5t21.5 -53.5t-21.5 -53.5t-57.5 -20.5q-35 0 -56.5 20.5t-21.5 53.5z" />
    <glyph glyph-name="igrave" unicode="&#xec;" horiz-adv-x="261" 
d="M198 0h-135v482h135v-482zM-26 704v9h142l79 -136v-10h-118z" />
    <glyph glyph-name="iacute" unicode="&#xed;" horiz-adv-x="261" 
d="M198 0h-135v482h135v-482zM288 713v-9l-103 -137h-118v10l79 136h142z" />
    <glyph glyph-name="icircumflex" unicode="&#xee;" horiz-adv-x="261" 
d="M198 0h-135v482h135v-482zM204 713l91 -136v-10h-112l-53 69l-52 -69h-112v10l91 136h147z" />
    <glyph glyph-name="idieresis" unicode="&#xef;" horiz-adv-x="261" 
d="M198 0h-135v482h135v-482zM-58 640q0 33 21.5 53.5t56.5 20.5q36 0 57.5 -20.5t21.5 -53.5t-21.5 -53.5t-57.5 -20.5q-35 0 -56.5 20.5t-21.5 53.5zM162 640q0 33 21.5 53.5t56.5 20.5q36 0 57.5 -20.5t21.5 -53.5t-21.5 -53.5t-57.5 -20.5q-35 0 -56.5 20.5t-21.5 53.5z
" />
    <glyph glyph-name="eth" unicode="&#xf0;" horiz-adv-x="593" 
d="M471 604l-62 -17q60 -76 102.5 -167t42.5 -169q0 -120 -67 -193t-192 -73q-122 0 -189.5 70.5t-67.5 180.5q0 109 61 177t160 68q66 0 115 -34l1 2q-33 63 -72 105l-116 -32l-21 72l83 23q-58 63 -69 73v10h133l40 -47l99 23zM175 236q0 -66 30.5 -102.5t89.5 -36.5
q122 0 122 139q0 133 -122 133q-120 0 -120 -133z" />
    <glyph glyph-name="ntilde" unicode="&#xf1;" horiz-adv-x="581" 
d="M63 482h108l18 -47h2q69 62 154 62q84 0 131 -52.5t47 -140.5v-304h-135v290q0 96 -86 96q-50 0 -104 -41v-345h-135v482zM145 577l-27 70q16 29 45 47.5t61 18.5q33 0 78.5 -22.5t70.5 -22.5q40 0 67 34l27 -68q-17 -31 -46 -49t-59 -18q-31 0 -80 22.5t-70 22.5
q-38 0 -67 -35z" />
    <glyph glyph-name="ograve" unicode="&#xf2;" horiz-adv-x="583" 
d="M175 241q0 -71 31.5 -108t84.5 -37q55 0 86 37t31 108t-31 108t-86 37q-53 0 -84.5 -37t-31.5 -108zM546 241q0 -110 -67 -183t-188 -73q-119 0 -186.5 73t-67.5 183t67.5 183t186.5 73q121 0 188 -73t67 -183zM133 704v9h142l79 -136v-10h-118z" />
    <glyph glyph-name="oacute" unicode="&#xf3;" horiz-adv-x="583" 
d="M175 241q0 -71 31.5 -108t84.5 -37q55 0 86 37t31 108t-31 108t-86 37q-53 0 -84.5 -37t-31.5 -108zM546 241q0 -110 -67 -183t-188 -73q-119 0 -186.5 73t-67.5 183t67.5 183t186.5 73q121 0 188 -73t67 -183zM452 713v-9l-103 -137h-118v10l79 136h142z" />
    <glyph glyph-name="ocircumflex" unicode="&#xf4;" horiz-adv-x="583" 
d="M175 241q0 -71 31.5 -108t84.5 -37q55 0 86 37t31 108t-31 108t-86 37q-53 0 -84.5 -37t-31.5 -108zM546 241q0 -110 -67 -183t-188 -73q-119 0 -186.5 73t-67.5 183t67.5 183t186.5 73q121 0 188 -73t67 -183zM364 713l91 -136v-10h-112l-53 69l-52 -69h-112v10l91 136
h147z" />
    <glyph glyph-name="otilde" unicode="&#xf5;" horiz-adv-x="583" 
d="M175 241q0 -71 31.5 -108t84.5 -37q55 0 86 37t31 108t-31 108t-86 37q-53 0 -84.5 -37t-31.5 -108zM546 241q0 -110 -67 -183t-188 -73q-119 0 -186.5 73t-67.5 183t67.5 183t186.5 73q121 0 188 -73t67 -183zM143 577l-27 70q16 29 45 47.5t61 18.5q33 0 78.5 -22.5
t70.5 -22.5q40 0 67 34l27 -68q-17 -31 -46 -49t-59 -18q-31 0 -80 22.5t-70 22.5q-38 0 -67 -35z" />
    <glyph glyph-name="odieresis" unicode="&#xf6;" horiz-adv-x="583" 
d="M175 241q0 -71 31.5 -108t84.5 -37q55 0 86 37t31 108t-31 108t-86 37q-53 0 -84.5 -37t-31.5 -108zM546 241q0 -110 -67 -183t-188 -73q-119 0 -186.5 73t-67.5 183t67.5 183t186.5 73q121 0 188 -73t67 -183zM103 640q0 33 21.5 53.5t56.5 20.5q36 0 57.5 -20.5
t21.5 -53.5t-21.5 -53.5t-57.5 -20.5q-35 0 -56.5 20.5t-21.5 53.5zM323 640q0 33 21.5 53.5t56.5 20.5q36 0 57.5 -20.5t21.5 -53.5t-21.5 -53.5t-57.5 -20.5q-35 0 -56.5 20.5t-21.5 53.5z" />
    <glyph glyph-name="divide" unicode="&#xf7;" 
d="M40 323h510v-103h-510v103zM210 71q0 39 23 62.5t62 23.5t62 -23.5t23 -62.5t-23 -62.5t-62 -23.5t-62 23.5t-23 62.5zM210 477q0 39 23 62.5t62 23.5t62 -23.5t23 -62.5t-23 -62.5t-62 -23.5t-62 23.5t-23 62.5z" />
    <glyph glyph-name="oslash" unicode="&#xf8;" horiz-adv-x="583" 
d="M125 -34l-67 57l36 45q-57 69 -57 173q0 110 67.5 183t186.5 73q75 0 127 -28l35 44l69 -54l-35 -44q59 -71 59 -174q0 -110 -67 -183t-188 -73q-74 0 -129 29zM415 246q0 43 -10 70l-176 -217q27 -11 58 -11q60 0 94 40t34 118zM168 236q0 -44 9 -68l174 215
q-25 11 -56 11q-59 0 -93 -40t-34 -118z" />
    <glyph glyph-name="ugrave" unicode="&#xf9;" horiz-adv-x="575" 
d="M58 482h135v-290q0 -48 19.5 -72t62.5 -24q48 0 102 41v345h135v-482h-109l-18 47h-2q-70 -62 -150 -62q-84 0 -129.5 52t-45.5 141v304zM127 704v9h142l79 -136v-10h-118z" />
    <glyph glyph-name="uacute" unicode="&#xfa;" horiz-adv-x="575" 
d="M58 482h135v-290q0 -48 19.5 -72t62.5 -24q48 0 102 41v345h135v-482h-109l-18 47h-2q-70 -62 -150 -62q-84 0 -129.5 52t-45.5 141v304zM450 713v-9l-103 -137h-118v10l79 136h142z" />
    <glyph glyph-name="ucircumflex" unicode="&#xfb;" horiz-adv-x="575" 
d="M58 482h135v-290q0 -48 19.5 -72t62.5 -24q48 0 102 41v345h135v-482h-109l-18 47h-2q-70 -62 -150 -62q-84 0 -129.5 52t-45.5 141v304zM359 713l91 -136v-10h-112l-53 69l-52 -69h-112v10l91 136h147z" />
    <glyph glyph-name="udieresis" unicode="&#xfc;" horiz-adv-x="575" 
d="M58 482h135v-290q0 -48 19.5 -72t62.5 -24q48 0 102 41v345h135v-482h-109l-18 47h-2q-70 -62 -150 -62q-84 0 -129.5 52t-45.5 141v304zM101 640q0 33 21.5 53.5t56.5 20.5q36 0 57.5 -20.5t21.5 -53.5t-21.5 -53.5t-57.5 -20.5q-35 0 -56.5 20.5t-21.5 53.5zM321 640
q0 33 21.5 53.5t56.5 20.5q36 0 57.5 -20.5t21.5 -53.5t-21.5 -53.5t-57.5 -20.5q-35 0 -56.5 20.5t-21.5 53.5z" />
    <glyph glyph-name="yacute" unicode="&#xfd;" horiz-adv-x="530" 
d="M519 482v-10l-207 -531q-61 -154 -193 -154q-38 0 -79 9v107q29 -5 62 -5q62 0 82 53l20 54l-194 467v10h140l116 -328h3l110 328h140zM426 713v-9l-103 -137h-118v10l79 136h142z" />
    <glyph glyph-name="thorn" unicode="&#xfe;" horiz-adv-x="586" 
d="M198 357v-232q45 -29 97 -29q57 0 86 39t29 106t-28.5 106t-86.5 39q-48 0 -97 -29zM63 -198v898h135v-253h2q69 50 137 50q101 0 155.5 -72.5t54.5 -183.5t-55 -183.5t-155 -72.5q-31 0 -60.5 10t-40.5 16.5t-36 23.5h-2v-233h-135z" />
    <glyph glyph-name="ydieresis" unicode="&#xff;" horiz-adv-x="530" 
d="M519 482v-10l-207 -531q-61 -154 -193 -154q-38 0 -79 9v107q29 -5 62 -5q62 0 82 53l20 54l-194 467v10h140l116 -328h3l110 328h140zM79 640q0 33 21.5 53.5t56.5 20.5q36 0 57.5 -20.5t21.5 -53.5t-21.5 -53.5t-57.5 -20.5q-35 0 -56.5 20.5t-21.5 53.5zM299 640
q0 33 21.5 53.5t56.5 20.5q36 0 57.5 -20.5t21.5 -53.5t-21.5 -53.5t-57.5 -20.5q-35 0 -56.5 20.5t-21.5 53.5z" />
    <glyph glyph-name="Amacron" unicode="&#x100;" horiz-adv-x="668" 
d="M415 680l250 -680h-153l-45 140h-266l-46 -140h-152l250 680h162zM335 538h-3l-93 -286h189zM479 759h-290v103h290v-103z" />
    <glyph glyph-name="amacron" unicode="&#x101;" horiz-adv-x="543" 
d="M467 302v-197q0 -12 2.5 -15t13.5 -3h35v-92q-37 -7 -70 -7q-70 0 -96 57h-2q-27 -23 -70.5 -41.5t-84.5 -18.5q-79 0 -121 42t-42 110q0 81 56 119.5t182 38.5h65v22q0 40 -25.5 54.5t-56.5 14.5q-82 0 -160 -35l-32 103q95 43 199 43q103 0 155 -50.5t52 -144.5z
M335 208h-51q-123 0 -123 -59q0 -58 64 -58t110 33v84zM433 579h-290v103h290v-103z" />
    <glyph glyph-name="Abreve" unicode="&#x102;" horiz-adv-x="668" 
d="M415 680l250 -680h-153l-45 140h-266l-46 -140h-152l250 680h162zM335 538h-3l-93 -286h189zM333 858q89 0 133 34l42 -64q-53 -77 -175 -77q-120 0 -173 77l42 64q48 -34 131 -34z" />
    <glyph glyph-name="abreve" unicode="&#x103;" horiz-adv-x="543" 
d="M467 302v-197q0 -12 2.5 -15t13.5 -3h35v-92q-37 -7 -70 -7q-70 0 -96 57h-2q-27 -23 -70.5 -41.5t-84.5 -18.5q-79 0 -121 42t-42 110q0 81 56 119.5t182 38.5h65v22q0 40 -25.5 54.5t-56.5 14.5q-82 0 -160 -35l-32 103q95 43 199 43q103 0 155 -50.5t52 -144.5z
M335 208h-51q-123 0 -123 -59q0 -58 64 -58t110 33v84zM288 674q89 0 133 34l42 -64q-53 -77 -175 -77q-120 0 -173 77l42 64q48 -34 131 -34z" />
    <glyph glyph-name="Aogonek" unicode="&#x104;" horiz-adv-x="668" 
d="M559 -213q-55 0 -85.5 28.5t-30.5 74.5q0 68 69 110l-45 140h-266l-46 -140h-152l250 680h162l250 -680q-60 -11 -89 -35.5t-29 -50.5q0 -22 10 -31t31 -9q29 0 53 18l11 -80q-40 -25 -93 -25zM335 538h-3l-93 -286h189z" />
    <glyph glyph-name="aogonek" unicode="&#x105;" horiz-adv-x="543" 
d="M467 302v-197q0 -12 2.5 -15t13.5 -3h35v-92q-32 -13 -62.5 -37t-30.5 -49q0 -20 10 -27.5t31 -7.5q29 0 53 18l11 -80q-40 -25 -93 -25q-56 0 -86 28.5t-30 74.5q0 61 70 110q-24 12 -39 45h-2q-27 -23 -70.5 -41.5t-84.5 -18.5q-79 0 -121 42t-42 110q0 81 56 119.5
t182 38.5h65v22q0 40 -25.5 54.5t-56.5 14.5q-82 0 -160 -35l-32 103q95 43 199 43q103 0 155 -50.5t52 -144.5zM335 208h-51q-123 0 -123 -59q0 -58 64 -58t110 33v84z" />
    <glyph glyph-name="Cacute" unicode="&#x106;" horiz-adv-x="605" 
d="M46 340q0 162 86.5 258.5t244.5 96.5q97 0 193 -44l-37 -110q-80 35 -156 35q-89 0 -137.5 -64t-48.5 -172t48.5 -172t137.5 -64q76 0 156 35l37 -110q-96 -44 -193 -44q-158 0 -244.5 96.5t-86.5 258.5zM507 896v-9l-83 -137h-128v10l59 136h152z" />
    <glyph glyph-name="cacute" unicode="&#x107;" horiz-adv-x="479" 
d="M38 241q0 118 67 187t189 69q73 0 150 -29l-27 -103q-65 21 -107 21q-59 0 -96.5 -35.5t-37.5 -109.5q0 -75 36.5 -110t97.5 -35q42 0 107 21l27 -103q-77 -29 -150 -29q-122 0 -189 69t-67 187zM448 713v-9l-103 -137h-118v10l79 136h142z" />
    <glyph glyph-name="Ccircumflex" unicode="&#x108;" horiz-adv-x="605" 
d="M46 340q0 162 86.5 258.5t244.5 96.5q97 0 193 -44l-37 -110q-80 35 -156 35q-89 0 -137.5 -64t-48.5 -172t48.5 -172t137.5 -64q76 0 156 35l37 -110q-96 -44 -193 -44q-158 0 -244.5 96.5t-86.5 258.5zM434 896l111 -136v-10h-112l-63 79l-62 -79h-112v10l111 136h127z
" />
    <glyph glyph-name="ccircumflex" unicode="&#x109;" horiz-adv-x="479" 
d="M38 241q0 118 67 187t189 69q73 0 150 -29l-27 -103q-65 21 -107 21q-59 0 -96.5 -35.5t-37.5 -109.5q0 -75 36.5 -110t97.5 -35q42 0 107 21l27 -103q-77 -29 -150 -29q-122 0 -189 69t-67 187zM351 713l91 -136v-10h-112l-53 69l-52 -69h-112v10l91 136h147z" />
    <glyph glyph-name="Cdotaccent" unicode="&#x10a;" horiz-adv-x="605" 
d="M46 340q0 162 86.5 258.5t244.5 96.5q97 0 193 -44l-37 -110q-80 35 -156 35q-89 0 -137.5 -64t-48.5 -172t48.5 -172t137.5 -64q76 0 156 35l37 -110q-96 -44 -193 -44q-158 0 -244.5 96.5t-86.5 258.5zM295 819q0 33 21.5 53.5t56.5 20.5q36 0 57.5 -20.5t21.5 -53.5
t-21.5 -53.5t-57.5 -20.5q-35 0 -56.5 20.5t-21.5 53.5z" />
    <glyph glyph-name="cdotaccent" unicode="&#x10b;" horiz-adv-x="479" 
d="M38 241q0 118 67 187t189 69q73 0 150 -29l-27 -103q-65 21 -107 21q-59 0 -96.5 -35.5t-37.5 -109.5q0 -75 36.5 -110t97.5 -35q42 0 107 21l27 -103q-77 -29 -150 -29q-122 0 -189 69t-67 187zM199 640q0 33 21.5 53.5t56.5 20.5q36 0 57.5 -20.5t21.5 -53.5
t-21.5 -53.5t-57.5 -20.5q-35 0 -56.5 20.5t-21.5 53.5z" />
    <glyph glyph-name="Ccaron" unicode="&#x10c;" horiz-adv-x="605" 
d="M46 340q0 162 86.5 258.5t244.5 96.5q97 0 193 -44l-37 -110q-80 35 -156 35q-89 0 -137.5 -64t-48.5 -172t48.5 -172t137.5 -64q76 0 156 35l37 -110q-96 -44 -193 -44q-158 0 -244.5 96.5t-86.5 258.5zM305 750l-111 136v10h112l63 -79l62 79h112v-10l-111 -136h-127z
" />
    <glyph glyph-name="ccaron" unicode="&#x10d;" horiz-adv-x="479" 
d="M38 241q0 118 67 187t189 69q73 0 150 -29l-27 -103q-65 21 -107 21q-59 0 -96.5 -35.5t-37.5 -109.5q0 -75 36.5 -110t97.5 -35q42 0 107 21l27 -103q-77 -29 -150 -29q-122 0 -189 69t-67 187zM204 567l-91 136v10h112l53 -69l52 69h112v-10l-91 -136h-147z" />
    <glyph glyph-name="Dcaron" unicode="&#x10e;" horiz-adv-x="690" 
d="M79 0v680h213q186 0 267 -84.5t81 -255.5t-81 -255.5t-267 -84.5h-213zM218 116h61q127 0 171.5 51t44.5 173t-44.5 173t-171.5 51h-61v-448zM261 750l-111 136v10h112l63 -79l62 79h112v-10l-111 -136h-127z" />
    <glyph glyph-name="dcaron" unicode="&#x10f;" horiz-adv-x="587" 
d="M389 125v232q-49 29 -97 29q-58 0 -86.5 -39t-28.5 -106t28.5 -106t86.5 -39q48 0 97 29zM389 700h135v-700h-100l-19 43h-2q-25 -18 -40.5 -27.5t-47.5 -20t-65 -10.5q-100 0 -155.5 73t-55.5 183t55.5 183t155.5 73q68 0 137 -50h2v253zM564 514v10l25 156h135v-10
l-59 -156h-101z" />
    <glyph glyph-name="Dcroat" unicode="&#x110;" horiz-adv-x="705" 
d="M94 0v277h-48v116h48v287h213q186 0 267 -84.5t81 -255.5t-81 -255.5t-267 -84.5h-213zM233 116h61q127 0 171.5 51t44.5 173t-44.5 173t-171.5 51h-61v-171h113v-116h-113v-161z" />
    <glyph glyph-name="dcroat" unicode="&#x111;" horiz-adv-x="587" 
d="M574 541h-50v-541h-100l-19 43h-2q-25 -18 -40.5 -27.5t-47.5 -20t-65 -10.5q-100 0 -155.5 73t-55.5 183t55.5 183t155.5 73q68 0 137 -50h2v94h-105v103h105v56h135v-56h50v-103zM389 125v232q-49 29 -97 29q-58 0 -86.5 -39t-28.5 -106t28.5 -106t86.5 -39q48 0 97 29
z" />
    <glyph glyph-name="Emacron" unicode="&#x112;" 
d="M79 680h456v-116h-317v-163h284v-116h-284v-169h320v-116h-459v680zM455 759h-290v103h290v-103z" />
    <glyph glyph-name="emacron" unicode="&#x113;" horiz-adv-x="539" 
d="M496 202h-322q4 -51 35.5 -80t85.5 -29q71 0 154 30l31 -97q-86 -41 -195 -41q-120 0 -184 72.5t-64 184.5q0 108 64 181.5t177 73.5q111 0 168 -58.5t57 -149.5q0 -47 -7 -87zM174 286h205q1 5 1 15q0 98 -101 98q-48 0 -75.5 -33t-29.5 -80zM428 579h-290v103h290v-103
z" />
    <glyph glyph-name="Ebreve" unicode="&#x114;" 
d="M79 680h456v-116h-317v-163h284v-116h-284v-169h320v-116h-459v680zM314 858q89 0 133 34l42 -64q-53 -77 -175 -77q-120 0 -173 77l42 64q48 -34 131 -34z" />
    <glyph glyph-name="ebreve" unicode="&#x115;" horiz-adv-x="539" 
d="M496 202h-322q4 -51 35.5 -80t85.5 -29q71 0 154 30l31 -97q-86 -41 -195 -41q-120 0 -184 72.5t-64 184.5q0 108 64 181.5t177 73.5q111 0 168 -58.5t57 -149.5q0 -47 -7 -87zM174 286h205q1 5 1 15q0 98 -101 98q-48 0 -75.5 -33t-29.5 -80zM287 674q89 0 133 34
l42 -64q-53 -77 -175 -77q-120 0 -173 77l42 64q48 -34 131 -34z" />
    <glyph glyph-name="Edotaccent" unicode="&#x116;" 
d="M79 680h456v-116h-317v-163h284v-116h-284v-169h320v-116h-459v680zM236 819q0 33 21.5 53.5t56.5 20.5q36 0 57.5 -20.5t21.5 -53.5t-21.5 -53.5t-57.5 -20.5q-35 0 -56.5 20.5t-21.5 53.5z" />
    <glyph glyph-name="edotaccent" unicode="&#x117;" horiz-adv-x="539" 
d="M496 202h-322q4 -51 35.5 -80t85.5 -29q71 0 154 30l31 -97q-86 -41 -195 -41q-120 0 -184 72.5t-64 184.5q0 108 64 181.5t177 73.5q111 0 168 -58.5t57 -149.5q0 -47 -7 -87zM174 286h205q1 5 1 15q0 98 -101 98q-48 0 -75.5 -33t-29.5 -80zM205 640q0 33 21.5 53.5
t56.5 20.5q36 0 57.5 -20.5t21.5 -53.5t-21.5 -53.5t-57.5 -20.5q-35 0 -56.5 20.5t-21.5 53.5z" />
    <glyph glyph-name="Eogonek" unicode="&#x118;" 
d="M469 -213q-55 0 -85.5 28.5t-30.5 74.5q0 61 78 110h-352v680h456v-116h-317v-163h284v-116h-284v-169h320v-116q-31 -12 -56 -38t-25 -48t10 -31t31 -9q29 0 53 18l11 -80q-40 -25 -93 -25z" />
    <glyph glyph-name="eogonek" unicode="&#x119;" horiz-adv-x="539" 
d="M312 -16v2q-8 -1 -27 -1q-120 0 -184 72.5t-64 184.5q0 108 64 181.5t177 73.5q111 0 168 -58.5t57 -149.5q0 -47 -7 -87h-322q4 -51 35.5 -80t85.5 -29q71 0 154 30l31 -97q-6 -3 -16 -8.5t-15 -7.5q-82 -41 -82 -91q0 -45 41 -45q29 0 53 18l11 -80q-40 -25 -93 -25
q-55 0 -85.5 28.5t-30.5 74.5q0 50 49 94zM174 286h205q1 5 1 15q0 98 -101 98q-48 0 -75.5 -33t-29.5 -80z" />
    <glyph glyph-name="Ecaron" unicode="&#x11a;" 
d="M79 680h456v-116h-317v-163h284v-116h-284v-169h320v-116h-459v680zM253 750l-111 136v10h112l63 -79l62 79h112v-10l-111 -136h-127z" />
    <glyph glyph-name="ecaron" unicode="&#x11b;" horiz-adv-x="539" 
d="M496 202h-322q4 -51 35.5 -80t85.5 -29q71 0 154 30l31 -97q-86 -41 -195 -41q-120 0 -184 72.5t-64 184.5q0 108 64 181.5t177 73.5q111 0 168 -58.5t57 -149.5q0 -47 -7 -87zM174 286h205q1 5 1 15q0 98 -101 98q-48 0 -75.5 -33t-29.5 -80zM210 567l-91 136v10h112
l53 -69l52 69h112v-10l-91 -136h-147z" />
    <glyph glyph-name="Gcircumflex" unicode="&#x11c;" horiz-adv-x="686" 
d="M368 365h260v-321q-113 -59 -259 -59q-157 0 -240 96.5t-83 258.5q0 153 87.5 254t255.5 101q123 0 231 -49l-40 -108q-92 38 -191 38q-102 0 -150 -62.5t-48 -173.5q0 -236 184 -236q70 0 114 18v127l-121 17v99zM432 896l111 -136v-10h-112l-63 79l-62 -79h-112v10
l111 136h127z" />
    <glyph glyph-name="gcircumflex" unicode="&#x11d;" horiz-adv-x="586" 
d="M388 132v224q-51 30 -97 30q-114 0 -114 -142q0 -139 114 -139q48 0 97 27zM523 482v-451q0 -120 -64.5 -182t-184.5 -62q-101 0 -189 47l39 99q67 -35 150 -35q60 0 87 24.5t27 83.5v36h-2q-66 -48 -137 -48q-101 0 -155.5 70t-54.5 180t55 181.5t155 71.5q13 0 26 -2
t22.5 -3.5t21.5 -6.5l18 -7.5t17.5 -10t15 -9.5t15.5 -10.5t13 -9.5h2l18 44h105zM376 713l91 -136v-10h-112l-53 69l-52 -69h-112v10l91 136h147z" />
    <glyph glyph-name="Gbreve" unicode="&#x11e;" horiz-adv-x="686" 
d="M368 365h260v-321q-113 -59 -259 -59q-157 0 -240 96.5t-83 258.5q0 153 87.5 254t255.5 101q123 0 231 -49l-40 -108q-92 38 -191 38q-102 0 -150 -62.5t-48 -173.5q0 -236 184 -236q70 0 114 18v127l-121 17v99zM370 858q89 0 133 34l42 -64q-53 -77 -175 -77
q-120 0 -173 77l42 64q48 -34 131 -34z" />
    <glyph glyph-name="gbreve" unicode="&#x11f;" horiz-adv-x="586" 
d="M388 132v224q-51 30 -97 30q-114 0 -114 -142q0 -139 114 -139q48 0 97 27zM523 482v-451q0 -120 -64.5 -182t-184.5 -62q-101 0 -189 47l39 99q67 -35 150 -35q60 0 87 24.5t27 83.5v36h-2q-66 -48 -137 -48q-101 0 -155.5 70t-54.5 180t55 181.5t155 71.5q13 0 26 -2
t22.5 -3.5t21.5 -6.5l18 -7.5t17.5 -10t15 -9.5t15.5 -10.5t13 -9.5h2l18 44h105zM302 674q89 0 133 34l42 -64q-53 -77 -175 -77q-120 0 -173 77l42 64q48 -34 131 -34z" />
    <glyph glyph-name="Gdotaccent" unicode="&#x120;" horiz-adv-x="686" 
d="M368 365h260v-321q-113 -59 -259 -59q-157 0 -240 96.5t-83 258.5q0 153 87.5 254t255.5 101q123 0 231 -49l-40 -108q-92 38 -191 38q-102 0 -150 -62.5t-48 -173.5q0 -236 184 -236q70 0 114 18v127l-121 17v99zM291 819q0 33 21.5 53.5t56.5 20.5q36 0 57.5 -20.5
t21.5 -53.5t-21.5 -53.5t-57.5 -20.5q-35 0 -56.5 20.5t-21.5 53.5z" />
    <glyph glyph-name="gdotaccent" unicode="&#x121;" horiz-adv-x="586" 
d="M388 132v224q-51 30 -97 30q-114 0 -114 -142q0 -139 114 -139q48 0 97 27zM523 482v-451q0 -120 -64.5 -182t-184.5 -62q-101 0 -189 47l39 99q67 -35 150 -35q60 0 87 24.5t27 83.5v36h-2q-66 -48 -137 -48q-101 0 -155.5 70t-54.5 180t55 181.5t155 71.5q13 0 26 -2
t22.5 -3.5t21.5 -6.5l18 -7.5t17.5 -10t15 -9.5t15.5 -10.5t13 -9.5h2l18 44h105zM224 640q0 33 21.5 53.5t56.5 20.5q36 0 57.5 -20.5t21.5 -53.5t-21.5 -53.5t-57.5 -20.5q-35 0 -56.5 20.5t-21.5 53.5z" />
    <glyph glyph-name="Gcommaaccent" unicode="&#x122;" horiz-adv-x="686" 
d="M368 365h260v-321q-113 -59 -259 -59q-157 0 -240 96.5t-83 258.5q0 153 87.5 254t255.5 101q123 0 231 -49l-40 -108q-92 38 -191 38q-102 0 -150 -62.5t-48 -173.5q0 -236 184 -236q70 0 114 18v127l-121 17v99zM279 -218v10l25 156h135v-10l-59 -156h-101z" />
    <glyph glyph-name="gcommaaccent" unicode="&#x123;" horiz-adv-x="586" 
d="M388 132v224q-51 30 -97 30q-114 0 -114 -142q0 -139 114 -139q48 0 97 27zM523 482v-451q0 -120 -64.5 -182t-184.5 -62q-101 0 -189 47l39 99q67 -35 150 -35q60 0 87 24.5t27 83.5v36h-2q-66 -48 -137 -48q-101 0 -155.5 70t-54.5 180t55 181.5t155 71.5q13 0 26 -2
t22.5 -3.5t21.5 -6.5l18 -7.5t17.5 -10t15 -9.5t15.5 -10.5t13 -9.5h2l18 44h105zM394 723v-10l-25 -156h-135v10l59 156h101z" />
    <glyph glyph-name="Hcircumflex" unicode="&#x124;" horiz-adv-x="722" 
d="M504 0v285h-286v-285h-139v680h139v-279h286v279h139v-680h-139zM424 896l111 -136v-10h-112l-63 79l-62 -79h-112v10l111 136h127z" />
    <glyph glyph-name="hcircumflex" unicode="&#x125;" horiz-adv-x="581" 
d="M523 0h-135v290q0 96 -86 96q-58 0 -104 -46v-340h-135v700h135v-258h2q60 55 144 55q85 0 132 -52.5t47 -141.5v-303zM358 896l111 -136v-10h-112l-63 79l-62 -79h-112v10l111 136h127z" />
    <glyph glyph-name="Hbar" unicode="&#x126;" horiz-adv-x="754" 
d="M520 0v285h-286v-285h-139v493h-50v106h50v81h139v-81h286v81h139v-81h50v-106h-50v-493h-139zM234 401h286v92h-286v-92z" />
    <glyph glyph-name="hbar" unicode="&#x127;" horiz-adv-x="581" 
d="M303 540h-105v-98h2q60 55 144 55q85 0 132 -52.5t47 -141.5v-303h-135v290q0 96 -86 96q-58 0 -104 -46v-340h-135v540h-50v103h50v57h135v-57h105v-103z" />
    <glyph glyph-name="Itilde" unicode="&#x128;" horiz-adv-x="297" 
d="M218 680v-680h-139v680h139zM2 761l-27 70q16 29 45 47.5t61 18.5q33 0 78.5 -22.5t70.5 -22.5q40 0 67 34l27 -68q-17 -31 -46 -49t-59 -18q-31 0 -80 22.5t-70 22.5q-38 0 -67 -35z" />
    <glyph glyph-name="itilde" unicode="&#x129;" horiz-adv-x="261" 
d="M198 0h-135v482h135v-482zM-17 577l-27 70q16 29 45 47.5t61 18.5q33 0 78.5 -22.5t70.5 -22.5q40 0 67 34l27 -68q-17 -31 -46 -49t-59 -18q-31 0 -80 22.5t-70 22.5q-38 0 -67 -35z" />
    <glyph glyph-name="Imacron" unicode="&#x12a;" horiz-adv-x="297" 
d="M218 680v-680h-139v680h139zM292 759h-290v103h290v-103z" />
    <glyph glyph-name="imacron" unicode="&#x12b;" horiz-adv-x="261" 
d="M198 0h-135v482h135v-482zM276 579h-290v103h290v-103z" />
    <glyph glyph-name="Ibreve" unicode="&#x12c;" horiz-adv-x="297" 
d="M218 680v-680h-139v680h139zM149 858q89 0 133 34l42 -64q-53 -77 -175 -77q-120 0 -173 77l42 64q48 -34 131 -34z" />
    <glyph glyph-name="ibreve" unicode="&#x12d;" horiz-adv-x="261" 
d="M198 0h-135v482h135v-482zM130 674q89 0 133 34l42 -64q-53 -77 -175 -77q-120 0 -173 77l42 64q48 -34 131 -34z" />
    <glyph glyph-name="Iogonek" unicode="&#x12e;" horiz-adv-x="297" 
d="M126 -213q-55 0 -85.5 28.5t-30.5 74.5q0 68 69 110v680h139v-680q-51 -11 -77.5 -36t-26.5 -50q0 -22 10 -31t31 -9q29 0 53 18l11 -80q-40 -25 -93 -25z" />
    <glyph glyph-name="iogonek" unicode="&#x12f;" horiz-adv-x="261" 
d="M108 -213q-55 0 -85.5 28.5t-30.5 74.5q0 66 71 112v480h135v-482q-50 -11 -76 -36t-26 -50q0 -22 10 -31t31 -9q29 0 53 18l11 -80q-40 -25 -93 -25zM53 640q0 33 21.5 53.5t56.5 20.5q36 0 57.5 -20.5t21.5 -53.5t-21.5 -53.5t-57.5 -20.5q-35 0 -56.5 20.5t-21.5 53.5
z" />
    <glyph glyph-name="Idotaccent" unicode="&#x130;" horiz-adv-x="297" 
d="M218 680v-680h-139v680h139zM70 819q0 33 21.5 53.5t56.5 20.5q36 0 57.5 -20.5t21.5 -53.5t-21.5 -53.5t-57.5 -20.5q-35 0 -56.5 20.5t-21.5 53.5z" />
    <glyph glyph-name="dotlessi" unicode="&#x131;" horiz-adv-x="261" 
d="M198 0h-135v482h135v-482z" />
    <glyph glyph-name="IJ" unicode="&#x132;" horiz-adv-x="779" 
d="M218 680v-680h-139v680h139zM304 56l63 100q29 -26 53.5 -39t60.5 -13q44 0 64.5 31t20.5 81v464h139v-473q0 -109 -58.5 -165.5t-165.5 -56.5q-98 0 -177 71z" />
    <glyph glyph-name="ij" unicode="&#x133;" horiz-adv-x="522" 
d="M198 0h-135v482h135v-482zM53 640q0 33 21.5 53.5t56.5 20.5q36 0 57.5 -20.5t21.5 -53.5t-21.5 -53.5t-57.5 -20.5q-35 0 -56.5 20.5t-21.5 53.5zM324 482h135v-513q0 -182 -173 -182q-33 0 -70 7v109q21 -5 53 -5q29 0 42 15t13 48v521zM314 640q0 33 21.5 53.5
t56.5 20.5q36 0 57.5 -20.5t21.5 -53.5t-21.5 -53.5t-57.5 -20.5q-35 0 -56.5 20.5t-21.5 53.5z" />
    <glyph glyph-name="Jcircumflex" unicode="&#x134;" horiz-adv-x="482" 
d="M7 56l63 100q29 -26 53.5 -39t60.5 -13q44 0 64.5 31t20.5 81v464h139v-473q0 -109 -58.5 -165.5t-165.5 -56.5q-98 0 -177 71zM401 896l111 -136v-10h-112l-63 79l-62 -79h-112v10l111 136h127z" />
    <glyph glyph-name="jcircumflex" unicode="&#x135;" horiz-adv-x="261" 
d="M63 482h135v-513q0 -182 -173 -182q-33 0 -70 7v109q21 -5 53 -5q29 0 42 15t13 48v521zM204 713l91 -136v-10h-112l-53 69l-52 -69h-112v10l91 136h147z" />
    <glyph glyph-name="Kcommaaccent" unicode="&#x136;" horiz-adv-x="643" 
d="M220 304h-2v-304h-139v680h139v-329h2l248 329h154v-10l-260 -337l273 -323v-10h-162zM230 -218v10l25 156h135v-10l-59 -156h-101z" />
    <glyph glyph-name="kcommaaccent" unicode="&#x137;" horiz-adv-x="538" 
d="M200 223h-2v-223h-135v700h135v-435h2l169 217h147v-10l-183 -224l192 -238v-10h-153zM179 -218v10l25 156h135v-10l-59 -156h-101z" />
    <glyph glyph-name="kgreenlandic" unicode="&#x138;" horiz-adv-x="538" 
d="M199 211h-2v-211h-133v482h133v-230h2l171 230h145v-7l-188 -237l197 -231v-7h-149z" />
    <glyph glyph-name="Lacute" unicode="&#x139;" horiz-adv-x="533" 
d="M79 680h139v-564h293v-116h-432v680zM295 896v-9l-83 -137h-128v10l59 136h152z" />
    <glyph glyph-name="lacute" unicode="&#x13a;" horiz-adv-x="290" 
d="M61 700h135v-592q0 -12 2.5 -15t13.5 -3h53v-92q-37 -7 -80 -7q-68 0 -96 33.5t-28 107.5v568zM275 896v-9l-83 -137h-128v10l59 136h152z" />
    <glyph glyph-name="Lcommaaccent" unicode="&#x13b;" horiz-adv-x="533" 
d="M79 680h139v-564h293v-116h-432v680zM208 -218v10l25 156h135v-10l-59 -156h-101z" />
    <glyph glyph-name="lcommaaccent" unicode="&#x13c;" horiz-adv-x="290" 
d="M61 700h135v-592q0 -12 2.5 -15t13.5 -3h53v-92q-37 -7 -80 -7q-68 0 -96 33.5t-28 107.5v568zM71 -218v10l25 156h135v-10l-59 -156h-101z" />
    <glyph glyph-name="Lcaron" unicode="&#x13d;" horiz-adv-x="534" 
d="M79 680h139v-564h293v-116h-432v680zM305 514v10l25 156h135v-10l-59 -156h-101z" />
    <glyph glyph-name="lcaron" unicode="&#x13e;" horiz-adv-x="285" 
d="M61 700h135v-592q0 -12 2.5 -15t13.5 -3h53v-92q-37 -7 -80 -7q-68 0 -96 33.5t-28 107.5v568zM238 514v10l25 156h135v-10l-59 -156h-101z" />
    <glyph glyph-name="Ldot" unicode="&#x13f;" horiz-adv-x="553" 
d="M79 680h139v-564h293v-116h-432v680zM328 361q0 39 23 62.5t62 23.5t62 -23.5t23 -62.5t-23 -62.5t-62 -23.5t-62 23.5t-23 62.5z" />
    <glyph glyph-name="ldot" unicode="&#x140;" horiz-adv-x="427" 
d="M61 700h135v-592q0 -12 2.5 -15t13.5 -3h53v-92q-37 -7 -80 -7q-68 0 -96 33.5t-28 107.5v568zM258 361q0 39 23 62.5t62 23.5t62 -23.5t23 -62.5t-23 -62.5t-62 -23.5t-62 23.5t-23 62.5z" />
    <glyph glyph-name="Lslash" unicode="&#x141;" horiz-adv-x="563" 
d="M109 680h139v-253l121 61h10v-119l-131 -66v-187h293v-116h-432v234l-56 -28h-10v119l66 33v322z" />
    <glyph glyph-name="lslash" unicode="&#x142;" horiz-adv-x="334" 
d="M92 700h135v-274l79 40h10v-119l-89 -45v-194q0 -12 2.5 -15t13.5 -3h53v-92q-37 -7 -80 -7q-68 0 -96 33.5t-28 107.5v102l-60 -30h-10v119l70 35v342z" />
    <glyph glyph-name="Nacute" unicode="&#x143;" horiz-adv-x="736" 
d="M515 211h3v469h139v-680h-147l-289 469h-3v-469h-139v680h147zM510 896v-9l-83 -137h-128v10l59 136h152z" />
    <glyph glyph-name="nacute" unicode="&#x144;" horiz-adv-x="581" 
d="M63 482h108l18 -47h2q69 62 154 62q84 0 131 -52.5t47 -140.5v-304h-135v290q0 96 -86 96q-50 0 -104 -41v-345h-135v482zM459 713v-9l-103 -137h-118v10l79 136h142z" />
    <glyph glyph-name="Ncommaaccent" unicode="&#x145;" horiz-adv-x="736" 
d="M515 211h3v469h139v-680h-147l-289 469h-3v-469h-139v680h147zM275 -218v10l25 156h135v-10l-59 -156h-101z" />
    <glyph glyph-name="ncommaaccent" unicode="&#x146;" horiz-adv-x="581" 
d="M63 482h108l18 -47h2q69 62 154 62q84 0 131 -52.5t47 -140.5v-304h-135v290q0 96 -86 96q-50 0 -104 -41v-345h-135v482zM197 -218v10l25 156h135v-10l-59 -156h-101z" />
    <glyph glyph-name="Ncaron" unicode="&#x147;" horiz-adv-x="736" 
d="M515 211h3v469h139v-680h-147l-289 469h-3v-469h-139v680h147zM307 750l-111 136v10h112l63 -79l62 79h112v-10l-111 -136h-127z" />
    <glyph glyph-name="ncaron" unicode="&#x148;" horiz-adv-x="581" 
d="M63 482h108l18 -47h2q69 62 154 62q84 0 131 -52.5t47 -140.5v-304h-135v290q0 96 -86 96q-50 0 -104 -41v-345h-135v482zM225 567l-91 136v10h112l53 -69l52 69h112v-10l-91 -136h-147z" />
    <glyph glyph-name="napostrophe" unicode="&#x149;" horiz-adv-x="581" 
d="M63 482h108l18 -47h2q69 62 154 62q84 0 131 -52.5t47 -140.5v-304h-135v290q0 96 -86 96q-50 0 -104 -41v-345h-135v482zM-44 514v10l25 156h135v-10l-59 -156h-101z" />
    <glyph glyph-name="Eng" unicode="&#x14a;" horiz-adv-x="736" 
d="M515 221h3v459h139v-711q0 -182 -173 -182q-33 0 -70 7v118q21 -5 53 -5q29 0 40 12t11 45v36l-297 469h-3v-469h-139v680h147z" />
    <glyph glyph-name="eng" unicode="&#x14b;" horiz-adv-x="581" 
d="M63 482h108l18 -47h2q69 62 154 62q84 0 131 -52.5t47 -140.5v-335q0 -182 -173 -182q-33 0 -70 7v109q21 -5 53 -5q29 0 42 15t13 48v329q0 96 -86 96q-50 0 -104 -41v-345h-135v482z" />
    <glyph glyph-name="Omacron" unicode="&#x14c;" horiz-adv-x="749" 
d="M192 340q0 -108 43.5 -172t139.5 -64q95 0 138.5 64t43.5 172t-43.5 172t-138.5 64q-96 0 -139.5 -64t-43.5 -172zM702 340q0 -157 -83 -256t-244 -99q-110 0 -185.5 48.5t-109 126.5t-33.5 180t33.5 180t109 126.5t185.5 48.5q161 0 244 -99t83 -256zM520 759h-290v103
h290v-103z" />
    <glyph glyph-name="omacron" unicode="&#x14d;" horiz-adv-x="583" 
d="M175 241q0 -71 31.5 -108t84.5 -37q55 0 86 37t31 108t-31 108t-86 37q-53 0 -84.5 -37t-31.5 -108zM546 241q0 -110 -67 -183t-188 -73q-119 0 -186.5 73t-67.5 183t67.5 183t186.5 73q121 0 188 -73t67 -183zM435 579h-290v103h290v-103z" />
    <glyph glyph-name="Obreve" unicode="&#x14e;" horiz-adv-x="749" 
d="M192 340q0 -108 43.5 -172t139.5 -64q95 0 138.5 64t43.5 172t-43.5 172t-138.5 64q-96 0 -139.5 -64t-43.5 -172zM702 340q0 -157 -83 -256t-244 -99q-110 0 -185.5 48.5t-109 126.5t-33.5 180t33.5 180t109 126.5t185.5 48.5q161 0 244 -99t83 -256zM376 858
q89 0 133 34l42 -64q-53 -77 -175 -77q-120 0 -173 77l42 64q48 -34 131 -34z" />
    <glyph glyph-name="obreve" unicode="&#x14f;" horiz-adv-x="583" 
d="M175 241q0 -71 31.5 -108t84.5 -37q55 0 86 37t31 108t-31 108t-86 37q-53 0 -84.5 -37t-31.5 -108zM546 241q0 -110 -67 -183t-188 -73q-119 0 -186.5 73t-67.5 183t67.5 183t186.5 73q121 0 188 -73t67 -183zM289 674q89 0 133 34l42 -64q-53 -77 -175 -77
q-120 0 -173 77l42 64q48 -34 131 -34z" />
    <glyph glyph-name="Ohungarumlaut" unicode="&#x150;" horiz-adv-x="749" 
d="M192 340q0 -108 43.5 -172t139.5 -64q95 0 138.5 64t43.5 172t-43.5 172t-138.5 64q-96 0 -139.5 -64t-43.5 -172zM702 340q0 -157 -83 -256t-244 -99q-110 0 -185.5 48.5t-109 126.5t-33.5 180t33.5 180t109 126.5t185.5 48.5q161 0 244 -99t83 -256zM439 896v-10
l-103 -136h-118v10l79 136h142zM649 896v-10l-103 -136h-118v10l79 136h142z" />
    <glyph glyph-name="ohungarumlaut" unicode="&#x151;" horiz-adv-x="583" 
d="M175 241q0 -71 31.5 -108t84.5 -37q55 0 86 37t31 108t-31 108t-86 37q-53 0 -84.5 -37t-31.5 -108zM546 241q0 -110 -67 -183t-188 -73q-119 0 -186.5 73t-67.5 183t67.5 183t186.5 73q121 0 188 -73t67 -183zM344 713v-9l-103 -137h-118v10l79 136h142zM554 713v-9
l-103 -137h-118v10l79 136h142z" />
    <glyph glyph-name="OE" unicode="&#x152;" horiz-adv-x="995" 
d="M375 695q63 0 112 -15h453v-116h-317v-163h284v-116h-284v-169h320v-116h-457q-55 -15 -111 -15q-110 0 -185.5 48.5t-109 126.5t-33.5 180t33.5 180t109 126.5t185.5 48.5zM375 104q68 0 109 23v426q-43 23 -109 23q-96 0 -139.5 -64t-43.5 -172t43.5 -172t139.5 -64z
" />
    <glyph glyph-name="oe" unicode="&#x153;" horiz-adv-x="911" 
d="M869 202h-322q4 -51 35.5 -80t85.5 -29q71 0 154 30l31 -97q-86 -41 -195 -41q-106 0 -182 80q-78 -80 -185 -80q-119 0 -186.5 73t-67.5 183t67.5 183t186.5 73q106 0 185 -81q75 81 175 81q111 0 168 -58.5t57 -149.5q0 -47 -7 -87zM175 241q0 -71 31.5 -108t84.5 -37
q55 0 86 37t31 108t-31 108t-86 37q-53 0 -84.5 -37t-31.5 -108zM547 286h205q1 5 1 15q0 98 -101 98q-48 0 -75.5 -33t-29.5 -80z" />
    <glyph glyph-name="Racute" unicode="&#x154;" horiz-adv-x="664" 
d="M218 0h-139v680h287q236 0 236 -205q0 -161 -149 -197l186 -262v-16h-152l-182 269h-87v-269zM218 385h141q47 0 72.5 24t25.5 66t-25.5 65.5t-72.5 23.5h-141v-179zM453 896v-9l-83 -137h-128v10l59 136h152z" />
    <glyph glyph-name="racute" unicode="&#x155;" horiz-adv-x="378" 
d="M63 482h109l19 -58h2q17 29 48 51t74 22q24 0 48 -6l-12 -113q-20 4 -48 4q-67 0 -105 -47v-335h-135v482zM351 713v-9l-103 -137h-118v10l79 136h142z" />
    <glyph glyph-name="Rcommaaccent" unicode="&#x156;" horiz-adv-x="664" 
d="M218 0h-139v680h287q236 0 236 -205q0 -161 -149 -197l186 -262v-16h-152l-182 269h-87v-269zM218 385h141q47 0 72.5 24t25.5 66t-25.5 65.5t-72.5 23.5h-141v-179zM235 -218v10l25 156h135v-10l-59 -156h-101z" />
    <glyph glyph-name="rcommaaccent" unicode="&#x157;" horiz-adv-x="378" 
d="M63 482h109l19 -58h2q17 29 48 51t74 22q24 0 48 -6l-12 -113q-20 4 -48 4q-67 0 -105 -47v-335h-135v482zM40 -218v10l25 156h135v-10l-59 -156h-101z" />
    <glyph glyph-name="Rcaron" unicode="&#x158;" horiz-adv-x="664" 
d="M218 0h-139v680h287q236 0 236 -205q0 -161 -149 -197l186 -262v-16h-152l-182 269h-87v-269zM218 385h141q47 0 72.5 24t25.5 66t-25.5 65.5t-72.5 23.5h-141v-179zM251 750l-111 136v10h112l63 -79l62 79h112v-10l-111 -136h-127z" />
    <glyph glyph-name="rcaron" unicode="&#x159;" horiz-adv-x="378" 
d="M63 482h109l19 -58h2q17 29 48 51t74 22q24 0 48 -6l-12 -113q-20 4 -48 4q-67 0 -105 -47v-335h-135v482zM133 567l-91 136v10h112l53 -69l52 69h112v-10l-91 -136h-147z" />
    <glyph glyph-name="Sacute" unicode="&#x15a;" horiz-adv-x="561" 
d="M38 50l43 109q35 -22 89.5 -39.5t98.5 -17.5q112 0 112 86q0 32 -20.5 49.5t-75.5 36.5l-73 24q-161 52 -161 189q0 95 64 151.5t183 56.5q105 0 201 -49l-42 -111q-88 43 -159 43q-105 0 -105 -79q0 -28 15.5 -47t54.5 -31l71 -23q98 -31 143.5 -76.5t45.5 -121.5
q0 -100 -68 -157.5t-186 -57.5q-117 0 -231 65zM428 896v-9l-83 -137h-128v10l59 136h152z" />
    <glyph glyph-name="sacute" unicode="&#x15b;" horiz-adv-x="468" 
d="M32 31l40 97q80 -41 155 -41q76 0 76 47q0 20 -15.5 31t-50.5 20l-63 15q-131 31 -131 142q0 72 53.5 113.5t146.5 41.5q95 0 180 -35l-37 -96q-78 29 -139 29q-73 0 -73 -44q0 -20 14.5 -30t47.5 -19l61 -15q137 -34 137 -144q0 -74 -55 -116t-148 -42q-109 0 -199 46z
M384 713v-9l-103 -137h-118v10l79 136h142z" />
    <glyph glyph-name="Scircumflex" unicode="&#x15c;" horiz-adv-x="561" 
d="M38 50l43 109q35 -22 89.5 -39.5t98.5 -17.5q112 0 112 86q0 32 -20.5 49.5t-75.5 36.5l-73 24q-161 52 -161 189q0 95 64 151.5t183 56.5q105 0 201 -49l-42 -111q-88 43 -159 43q-105 0 -105 -79q0 -28 15.5 -47t54.5 -31l71 -23q98 -31 143.5 -76.5t45.5 -121.5
q0 -100 -68 -157.5t-186 -57.5q-117 0 -231 65zM343 896l111 -136v-10h-112l-63 79l-62 -79h-112v10l111 136h127z" />
    <glyph glyph-name="scircumflex" unicode="&#x15d;" horiz-adv-x="468" 
d="M32 31l40 97q80 -41 155 -41q76 0 76 47q0 20 -15.5 31t-50.5 20l-63 15q-131 31 -131 142q0 72 53.5 113.5t146.5 41.5q95 0 180 -35l-37 -96q-78 29 -139 29q-73 0 -73 -44q0 -20 14.5 -30t47.5 -19l61 -15q137 -34 137 -144q0 -74 -55 -116t-148 -42q-109 0 -199 46z
M306 713l91 -136v-10h-112l-53 69l-52 -69h-112v10l91 136h147z" />
    <glyph glyph-name="Scedilla" unicode="&#x15e;" horiz-adv-x="561" 
d="M208 -94l-4 6l29 75q-109 12 -195 63l43 109q35 -22 89.5 -39.5t98.5 -17.5q112 0 112 86q0 32 -20.5 49.5t-75.5 36.5l-73 24q-161 52 -161 189q0 95 64 151.5t183 56.5q105 0 201 -49l-42 -111q-88 43 -159 43q-105 0 -105 -79q0 -28 15.5 -47t54.5 -31l71 -23
q98 -31 143.5 -76.5t45.5 -121.5q0 -90 -56 -146t-155 -66l-14 -33q69 -11 69 -73q0 -45 -31 -70t-87 -25q-42 0 -75 12l14 63q24 -8 43 -8q35 0 35 25q0 27 -58 27z" />
    <glyph glyph-name="scedilla" unicode="&#x15f;" horiz-adv-x="469" 
d="M166 -94l-4 6l29 75q-81 5 -159 44l40 97q80 -41 155 -41q76 0 76 47q0 20 -15.5 31t-50.5 20l-63 15q-131 31 -131 142q0 72 53.5 113.5t146.5 41.5q95 0 180 -35l-37 -96q-78 29 -139 29q-73 0 -73 -44q0 -20 14.5 -30t47.5 -19l61 -15q137 -34 137 -144
q0 -66 -44 -107t-120 -49l-14 -32q69 -11 69 -73q0 -45 -31 -70t-87 -25q-42 0 -75 12l14 63q24 -8 43 -8q35 0 35 25q0 27 -58 27z" />
    <glyph glyph-name="Scaron" unicode="&#x160;" horiz-adv-x="561" 
d="M38 50l43 109q35 -22 89.5 -39.5t98.5 -17.5q112 0 112 86q0 32 -20.5 49.5t-75.5 36.5l-73 24q-161 52 -161 189q0 95 64 151.5t183 56.5q105 0 201 -49l-42 -111q-88 43 -159 43q-105 0 -105 -79q0 -28 15.5 -47t54.5 -31l71 -23q98 -31 143.5 -76.5t45.5 -121.5
q0 -100 -68 -157.5t-186 -57.5q-117 0 -231 65zM218 750l-111 136v10h112l63 -79l62 79h112v-10l-111 -136h-127z" />
    <glyph glyph-name="scaron" unicode="&#x161;" horiz-adv-x="468" 
d="M32 31l40 97q80 -41 155 -41q76 0 76 47q0 20 -15.5 31t-50.5 20l-63 15q-131 31 -131 142q0 72 53.5 113.5t146.5 41.5q95 0 180 -35l-37 -96q-78 29 -139 29q-73 0 -73 -44q0 -20 14.5 -30t47.5 -19l61 -15q137 -34 137 -144q0 -74 -55 -116t-148 -42q-109 0 -199 46z
M160 567l-91 136v10h112l53 -69l52 69h112v-10l-91 -136h-147z" />
    <glyph glyph-name="Tcommaaccent" unicode="&#x162;" horiz-adv-x="568" 
d="M211 -94l-4 6l37 88h-30v564h-191v116h522v-116h-192v-564h-29l-23 -45q69 -11 69 -73q0 -45 -31 -70t-87 -25q-42 0 -75 12l14 63q24 -8 43 -8q35 0 35 25q0 27 -58 27z" />
    <glyph glyph-name="tcommaaccent" unicode="&#x163;" horiz-adv-x="415" 
d="M157 -94l-4 6l33 85q-77 28 -77 129v253h-88v73l88 30v112h135v-112h138v-103h-138v-228q0 -55 57 -55q32 0 78 14v-110q-63 -15 -119 -15l-13 -30q69 -11 69 -73q0 -45 -31 -70t-87 -25q-42 0 -75 12l14 63q24 -8 43 -8q35 0 35 25q0 27 -58 27z" />
    <glyph glyph-name="Tcaron" unicode="&#x164;" horiz-adv-x="568" 
d="M23 680h522v-116h-192v-564h-139v564h-191v116zM218 750l-111 136v10h112l63 -79l62 79h112v-10l-111 -136h-127z" />
    <glyph glyph-name="tcaron" unicode="&#x165;" horiz-adv-x="415" 
d="M109 594h135v-112h138v-103h-138v-228q0 -55 57 -55q32 0 78 14v-110q-60 -15 -113 -15q-80 0 -118.5 34t-38.5 107v253h-88v73l88 30v112zM316 514v10l25 156h135v-10l-59 -156h-101z" />
    <glyph glyph-name="Tbar" unicode="&#x166;" horiz-adv-x="568" 
d="M469 308h-116v-308h-139v308h-115v106h115v150h-191v116h522v-116h-192v-150h116v-106z" />
    <glyph glyph-name="tbar" unicode="&#x167;" horiz-adv-x="416" 
d="M333 209h-88v-58q0 -55 57 -55q32 0 78 14v-110q-60 -15 -113 -15q-80 0 -118.5 34t-38.5 107v83h-67v103h67v67h-88v73l88 30v112h135v-112h138v-103h-138v-67h88v-103z" />
    <glyph glyph-name="Utilde" unicode="&#x168;" horiz-adv-x="706" 
d="M71 680h139v-401q0 -175 143 -175q74 0 108.5 47.5t34.5 127.5v401h139v-401q0 -294 -282 -294t-282 294v401zM205 761l-27 70q16 29 45 47.5t61 18.5q33 0 78.5 -22.5t70.5 -22.5q40 0 67 34l27 -68q-17 -31 -46 -49t-59 -18q-31 0 -80 22.5t-70 22.5q-38 0 -67 -35z
" />
    <glyph glyph-name="utilde" unicode="&#x169;" horiz-adv-x="575" 
d="M58 482h135v-290q0 -48 19.5 -72t62.5 -24q48 0 102 41v345h135v-482h-109l-18 47h-2q-70 -62 -150 -62q-84 0 -129.5 52t-45.5 141v304zM140 577l-27 70q16 29 45 47.5t61 18.5q33 0 78.5 -22.5t70.5 -22.5q40 0 67 34l27 -68q-17 -31 -46 -49t-59 -18q-31 0 -80 22.5
t-70 22.5q-38 0 -67 -35z" />
    <glyph glyph-name="Umacron" unicode="&#x16a;" horiz-adv-x="706" 
d="M71 680h139v-401q0 -175 143 -175q74 0 108.5 47.5t34.5 127.5v401h139v-401q0 -294 -282 -294t-282 294v401zM498 759h-290v103h290v-103z" />
    <glyph glyph-name="umacron" unicode="&#x16b;" horiz-adv-x="575" 
d="M58 482h135v-290q0 -48 19.5 -72t62.5 -24q48 0 102 41v345h135v-482h-109l-18 47h-2q-70 -62 -150 -62q-84 0 -129.5 52t-45.5 141v304zM435 579h-290v103h290v-103z" />
    <glyph glyph-name="Ubreve" unicode="&#x16c;" horiz-adv-x="706" 
d="M71 680h139v-401q0 -175 143 -175q74 0 108.5 47.5t34.5 127.5v401h139v-401q0 -294 -282 -294t-282 294v401zM351 858q89 0 133 34l42 -64q-53 -77 -175 -77q-120 0 -173 77l42 64q48 -34 131 -34z" />
    <glyph glyph-name="ubreve" unicode="&#x16d;" horiz-adv-x="575" 
d="M58 482h135v-290q0 -48 19.5 -72t62.5 -24q48 0 102 41v345h135v-482h-109l-18 47h-2q-70 -62 -150 -62q-84 0 -129.5 52t-45.5 141v304zM288 674q89 0 133 34l42 -64q-53 -77 -175 -77q-120 0 -173 77l42 64q48 -34 131 -34z" />
    <glyph glyph-name="Uring" unicode="&#x16e;" horiz-adv-x="706" 
d="M71 680h139v-401q0 -175 143 -175q74 0 108.5 47.5t34.5 127.5v401h139v-401q0 -294 -282 -294t-282 294v401zM311 834q0 -18 11.5 -28.5t30.5 -10.5q41 0 41 39q0 18 -11 28.5t-30 10.5t-30.5 -10.5t-11.5 -28.5zM231 834q0 51 33.5 81.5t88.5 30.5q54 0 87.5 -30.5
t33.5 -81.5q0 -53 -33 -83t-88 -30t-88.5 30.5t-33.5 82.5z" />
    <glyph glyph-name="uring" unicode="&#x16f;" horiz-adv-x="575" 
d="M58 482h135v-290q0 -48 19.5 -72t62.5 -24q48 0 102 41v345h135v-482h-109l-18 47h-2q-70 -62 -150 -62q-84 0 -129.5 52t-45.5 141v304zM243 643q0 -18 11.5 -28.5t30.5 -10.5q41 0 41 39q0 18 -11 28.5t-30 10.5t-30.5 -10.5t-11.5 -28.5zM163 643q0 51 33.5 81.5
t88.5 30.5q54 0 87.5 -30.5t33.5 -81.5q0 -53 -33 -83t-88 -30t-88.5 30.5t-33.5 82.5z" />
    <glyph glyph-name="Uhungarumlaut" unicode="&#x170;" horiz-adv-x="706" 
d="M71 680h139v-401q0 -175 143 -175q74 0 108.5 47.5t34.5 127.5v401h139v-401q0 -294 -282 -294t-282 294v401zM407 896v-10l-103 -136h-118v10l79 136h142zM617 896v-10l-103 -136h-118v10l79 136h142z" />
    <glyph glyph-name="uhungarumlaut" unicode="&#x171;" horiz-adv-x="575" 
d="M58 482h135v-290q0 -48 19.5 -72t62.5 -24q48 0 102 41v345h135v-482h-109l-18 47h-2q-70 -62 -150 -62q-84 0 -129.5 52t-45.5 141v304zM343 713v-9l-103 -137h-118v10l79 136h142zM553 713v-9l-103 -137h-118v10l79 136h142z" />
    <glyph glyph-name="Uogonek" unicode="&#x172;" horiz-adv-x="708" 
d="M377 -213q-54 0 -85.5 29t-31.5 74q0 57 55 97q-243 18 -243 292v401h139v-401q0 -175 143 -175q74 0 108.5 47.5t34.5 127.5v401h139v-401q0 -263 -224 -290q-22 -5 -34.5 -25.5t-12.5 -45.5q0 -44 41 -44q29 0 53 18l11 -80q-40 -25 -93 -25z" />
    <glyph glyph-name="uogonek" unicode="&#x173;" horiz-adv-x="575" 
d="M439 -213q-55 0 -85.5 28.5t-30.5 74.5q0 59 79 111l-17 46h-2q-70 -62 -150 -62q-84 0 -129.5 52t-45.5 141v304h135v-290q0 -48 19.5 -72t62.5 -24q48 0 102 41v345h135v-482q-34 -12 -59.5 -38.5t-25.5 -50.5q0 -37 41 -37q29 0 53 18l11 -80q-40 -25 -93 -25z" />
    <glyph glyph-name="Wcircumflex" unicode="&#x174;" horiz-adv-x="1014" 
d="M995 680v-10l-185 -670h-165l-137 527h-1l-137 -527h-166l-185 670v10h149l115 -530h2l141 530h162l141 -530h2l114 530h150zM572 896l111 -136v-10h-112l-63 79l-62 -79h-112v10l111 136h127z" />
    <glyph glyph-name="wcircumflex" unicode="&#x175;" horiz-adv-x="840" 
d="M822 482v-10l-144 -472h-147l-110 347h-2l-110 -347h-147l-144 472v10h135l89 -334h2l103 334h146l103 -334h2l89 334h135zM494 713l91 -136v-10h-112l-53 69l-52 -69h-112v10l91 136h147z" />
    <glyph glyph-name="Ycircumflex" unicode="&#x176;" horiz-adv-x="604" 
d="M-3 680h152l151 -280h2l151 280h152v-10l-234 -396v-274h-139v274l-235 396v10zM366 896l111 -136v-10h-112l-63 79l-62 -79h-112v10l111 136h127z" />
    <glyph glyph-name="ycircumflex" unicode="&#x177;" horiz-adv-x="530" 
d="M519 482v-10l-207 -531q-61 -154 -193 -154q-38 0 -79 9v107q29 -5 62 -5q62 0 82 53l20 54l-194 467v10h140l116 -328h3l110 328h140zM341 713l91 -136v-10h-112l-53 69l-52 -69h-112v10l91 136h147z" />
    <glyph glyph-name="Ydieresis" unicode="&#x178;" horiz-adv-x="604" 
d="M-3 680h152l151 -280h2l151 280h152v-10l-234 -396v-274h-139v274l-235 396v10zM93 819q0 33 21.5 53.5t56.5 20.5q36 0 57.5 -20.5t21.5 -53.5t-21.5 -53.5t-57.5 -20.5q-35 0 -56.5 20.5t-21.5 53.5zM354 819q0 33 21.5 53.5t56.5 20.5q36 0 57.5 -20.5t21.5 -53.5
t-21.5 -53.5t-57.5 -20.5q-35 0 -56.5 20.5t-21.5 53.5z" />
    <glyph glyph-name="Zacute" unicode="&#x179;" horiz-adv-x="587" 
d="M58 680h483v-100l-333 -462v-2h333v-116h-504v100l332 462v2h-311v116zM435 896v-9l-83 -137h-128v10l59 136h152z" />
    <glyph glyph-name="zacute" unicode="&#x17a;" horiz-adv-x="472" 
d="M49 482h382v-71l-232 -306v-2h232v-103h-397v71l231 306v2h-216v103zM397 713v-9l-103 -137h-118v10l79 136h142z" />
    <glyph glyph-name="Zdotaccent" unicode="&#x17b;" horiz-adv-x="587" 
d="M58 680h483v-100l-333 -462v-2h333v-116h-504v100l332 462v2h-311v116zM226 819q0 33 21.5 53.5t56.5 20.5q36 0 57.5 -20.5t21.5 -53.5t-21.5 -53.5t-57.5 -20.5q-35 0 -56.5 20.5t-21.5 53.5z" />
    <glyph glyph-name="zdotaccent" unicode="&#x17c;" horiz-adv-x="472" 
d="M49 482h382v-71l-232 -306v-2h232v-103h-397v71l231 306v2h-216v103zM163 640q0 33 21.5 53.5t56.5 20.5q36 0 57.5 -20.5t21.5 -53.5t-21.5 -53.5t-57.5 -20.5q-35 0 -56.5 20.5t-21.5 53.5z" />
    <glyph glyph-name="Zcaron" unicode="&#x17d;" horiz-adv-x="587" 
d="M58 680h483v-100l-333 -462v-2h333v-116h-504v100l332 462v2h-311v116zM235 750l-111 136v10h112l63 -79l62 79h112v-10l-111 -136h-127z" />
    <glyph glyph-name="zcaron" unicode="&#x17e;" horiz-adv-x="472" 
d="M49 482h382v-71l-232 -306v-2h232v-103h-397v71l231 306v2h-216v103zM168 567l-91 136v10h112l53 -69l52 69h112v-10l-91 -136h-147z" />
    <glyph glyph-name="florin" unicode="&#x192;" 
d="M234 285h-90l18 101h90l26 150q27 159 182 159q53 0 90 -7l-15 -111q-30 7 -64 7q-28 0 -41 -11t-18 -43l-25 -144h110l-18 -101h-110l-60 -339q-28 -159 -182 -159q-54 0 -89 7l15 111q30 -7 62 -7q28 0 41 11t19 43z" />
    <glyph glyph-name="Aringacute" unicode="&#x1fa;" horiz-adv-x="666" 
d="M211 751q0 51 33.5 81.5t88.5 30.5q54 0 87.5 -30.5t33.5 -81.5q0 -56 -47 -89l257 -661h-153l-45 140h-266l-46 -140h-152l256 660q-47 33 -47 90zM334 539h-3l-93 -286h189zM291 751q0 -18 11.5 -28.5t30.5 -10.5q41 0 41 39q0 18 -11 28.5t-30 10.5t-30.5 -10.5
t-11.5 -28.5zM476 996v-7l-79 -103h-122v8l56 102h145z" />
    <glyph glyph-name="aringacute" unicode="&#x1fb;" horiz-adv-x="543" 
d="M248 634q0 -34 42 -34q41 0 41 34t-41 34q-42 0 -42 -34zM168 634q0 51 33.5 79t88.5 28t88 -28t33 -79q0 -52 -33 -80t-88 -28q-56 0 -89 28t-33 80zM434 880v-7l-79 -103h-122v8l56 102h145zM467 302v-197q0 -12 2.5 -15t13.5 -3h35v-92q-37 -7 -70 -7q-70 0 -96 57h-2
q-27 -23 -70.5 -41.5t-84.5 -18.5q-79 0 -121 42t-42 110q0 81 56 119.5t182 38.5h65v22q0 40 -25.5 54.5t-56.5 14.5q-82 0 -160 -35l-32 103q95 43 199 43q103 0 155 -50.5t52 -144.5zM335 208h-51q-123 0 -123 -59q0 -58 64 -58t110 33v84z" />
    <glyph glyph-name="AEacute" unicode="&#x1fc;" horiz-adv-x="958" 
d="M-19 0v10l403 670h519v-116h-317v-163h284v-116h-284v-169h320v-116h-459v140h-234l-83 -140h-149zM447 544h-3l-167 -292h170v292zM780 896v-9l-83 -137h-128v10l59 136h152z" />
    <glyph glyph-name="aeacute" unicode="&#x1fd;" horiz-adv-x="831" 
d="M788 202h-314q11 -109 118 -109q66 0 149 30l31 -97q-86 -41 -190 -41q-114 0 -183 86q-37 -40 -81.5 -63t-116.5 -23q-79 0 -124 42t-45 110q0 156 216 156h90v24q0 20 -7.5 34t-16 20.5t-24 10t-23 4t-21.5 0.5q-75 0 -153 -35l-32 103q95 43 192 43q106 0 163 -65
q63 65 159 65q111 0 165.5 -58.5t54.5 -149.5q0 -47 -7 -87zM472 286h199q1 5 1 15q0 98 -98 98q-48 0 -74 -32.5t-28 -80.5zM340 206h-88q-94 0 -94 -60q0 -57 63 -57q47 0 83 33t36 84zM588 713v-9l-103 -137h-118v10l79 136h142z" />
    <glyph glyph-name="Oslashacute" unicode="&#x1fe;" horiz-adv-x="749" 
d="M173 -32l-78 51l40 59q-88 94 -88 262q0 102 33.5 180t109 126.5t185.5 48.5q89 0 158 -33l35 53l77 -52l-38 -55q95 -96 95 -268q0 -157 -83 -256t-244 -99q-95 0 -167 37zM557 340q0 91 -31 150l-247 -363q41 -23 96 -23q95 0 138.5 64t43.5 172zM192 340
q0 -90 25 -141l244 358q-36 19 -86 19q-96 0 -139.5 -64t-43.5 -172zM519 896v-9l-83 -137h-128v10l59 136h152z" />
    <glyph glyph-name="oslashacute" unicode="&#x1ff;" horiz-adv-x="583" 
d="M125 -34l-67 57l36 45q-57 69 -57 173q0 110 67.5 183t186.5 73q75 0 127 -28l35 44l69 -54l-35 -44q59 -71 59 -174q0 -110 -67 -183t-188 -73q-74 0 -129 29zM415 246q0 43 -10 70l-176 -217q27 -11 58 -11q60 0 94 40t34 118zM168 236q0 -44 9 -68l174 215
q-25 11 -56 11q-59 0 -93 -40t-34 -118zM452 713v-9l-103 -137h-118v10l79 136h142z" />
    <glyph glyph-name="Scommaaccent" unicode="&#x218;" horiz-adv-x="561" 
d="M38 50l43 109q35 -22 89.5 -39.5t98.5 -17.5q112 0 112 86q0 32 -20.5 49.5t-75.5 36.5l-73 24q-161 52 -161 189q0 95 64 151.5t183 56.5q105 0 201 -49l-42 -111q-88 43 -159 43q-105 0 -105 -79q0 -28 15.5 -47t54.5 -31l71 -23q98 -31 143.5 -76.5t45.5 -121.5
q0 -100 -68 -157.5t-186 -57.5q-117 0 -231 65zM194 -218v10l25 156h135v-10l-59 -156h-101z" />
    <glyph glyph-name="scommaaccent" unicode="&#x219;" horiz-adv-x="468" 
d="M32 31l40 97q80 -41 155 -41q76 0 76 47q0 20 -15.5 31t-50.5 20l-63 15q-131 31 -131 142q0 72 53.5 113.5t146.5 41.5q95 0 180 -35l-37 -96q-78 29 -139 29q-73 0 -73 -44q0 -20 14.5 -30t47.5 -19l61 -15q137 -34 137 -144q0 -74 -55 -116t-148 -42q-109 0 -199 46z
M154 -218v10l25 156h135v-10l-59 -156h-101z" />
    <glyph glyph-name="uni021A" unicode="&#x21a;" horiz-adv-x="568" 
d="M23 680h522v-116h-192v-564h-139v564h-191v116zM189 -218v10l25 156h135v-10l-59 -156h-101z" />
    <glyph glyph-name="uni021B" unicode="&#x21b;" horiz-adv-x="415" 
d="M109 594h135v-112h138v-103h-138v-228q0 -55 57 -55q32 0 78 14v-110q-60 -15 -113 -15q-80 0 -118.5 34t-38.5 107v253h-88v73l88 30v112zM137 -218v10l25 156h135v-10l-59 -156h-101z" />
    <glyph glyph-name="dotlessj" unicode="&#x237;" horiz-adv-x="261" 
d="M63 482h135v-513q0 -182 -173 -182q-33 0 -70 7v109q21 -5 53 -5q29 0 42 15t13 48v521z" />
    <glyph glyph-name="circumflex" unicode="&#x2c6;" 
d="M368 713l91 -136v-10h-112l-53 69l-52 -69h-112v10l91 136h147z" />
    <glyph glyph-name="caron" unicode="&#x2c7;" 
d="M221 567l-91 136v10h112l53 -69l52 69h112v-10l-91 -136h-147z" />
    <glyph glyph-name="uni02C9" unicode="&#x2c9;" 
d="M440 589h-290v103h290v-103z" />
    <glyph glyph-name="breve" unicode="&#x2d8;" 
d="M294 674q89 0 133 34l42 -64q-53 -77 -175 -77q-120 0 -173 77l42 64q48 -34 131 -34z" />
    <glyph glyph-name="dotaccent" unicode="&#x2d9;" 
d="M217 640q0 33 21.5 53.5t56.5 20.5q36 0 57.5 -20.5t21.5 -53.5t-21.5 -53.5t-57.5 -20.5q-35 0 -56.5 20.5t-21.5 53.5z" />
    <glyph glyph-name="ring" unicode="&#x2da;" 
d="M253 643q0 -18 11.5 -28.5t30.5 -10.5q41 0 41 39q0 18 -11 28.5t-30 10.5t-30.5 -10.5t-11.5 -28.5zM173 643q0 51 33.5 81.5t88.5 30.5q54 0 87.5 -30.5t33.5 -81.5q0 -53 -33 -83t-88 -30t-88.5 30.5t-33.5 82.5z" />
    <glyph glyph-name="ogonek" unicode="&#x2db;" 
d="M306 -213q-55 0 -85.5 28.5t-30.5 74.5q0 87 126 140l48 -24q-24 -10 -47 -39.5t-23 -52.5q0 -22 10 -31t31 -9q29 0 53 18l11 -80q-40 -25 -93 -25z" />
    <glyph glyph-name="tilde" unicode="&#x2dc;" 
d="M147 577l-27 70q16 29 45 47.5t61 18.5q33 0 78.5 -22.5t70.5 -22.5q40 0 67 34l27 -68q-17 -31 -46 -49t-59 -18q-31 0 -80 22.5t-70 22.5q-38 0 -67 -35z" />
    <glyph glyph-name="hungarumlaut" unicode="&#x2dd;" 
d="M300 713v-9l-103 -137h-118v10l79 136h142zM510 713v-9l-103 -137h-118v10l79 136h142z" />
    <glyph glyph-name="tonos" unicode="&#x384;" 
d="M411 725v-9l-56 -157h-116v10l32 156h140z" />
    <glyph glyph-name="dieresistonos" unicode="&#x385;" 
d="M59 606q0 33 21.5 53.5t56.5 20.5q36 0 57.5 -20.5t21.5 -53.5t-21.5 -53.5t-57.5 -20.5q-35 0 -56.5 20.5t-21.5 53.5zM414 606q0 33 21.5 53.5t56.5 20.5q36 0 57.5 -20.5t21.5 -53.5t-21.5 -53.5t-57.5 -20.5q-35 0 -56.5 20.5t-21.5 53.5zM405 710v-9l-53 -167h-113
v10l29 166h137z" />
    <glyph glyph-name="Alphatonos" unicode="&#x386;" horiz-adv-x="709" 
d="M456 680l250 -680h-153l-45 140h-266l-46 -140h-152l250 680h162zM376 538h-3l-93 -286h189zM211 680v-9l-53 -157h-118v10l29 156h142z" />
    <glyph glyph-name="anoteleia" unicode="&#x387;" horiz-adv-x="278" 
d="M54 291q0 39 23 62.5t62 23.5t62 -23.5t23 -62.5t-23 -62.5t-62 -23.5t-62 23.5t-23 62.5z" />
    <glyph glyph-name="Epsilontonos" unicode="&#x388;" horiz-adv-x="725" 
d="M214 680h456v-116h-317v-163h284v-116h-284v-169h320v-116h-459v680zM178 680v-9l-53 -157h-118v10l29 156h142z" />
    <glyph glyph-name="Etatonos" unicode="&#x389;" horiz-adv-x="857" 
d="M639 0v285h-286v-285h-139v680h139v-279h286v279h139v-680h-139zM178 680v-9l-53 -157h-118v10l29 156h142z" />
    <glyph glyph-name="Iotatonos" unicode="&#x38a;" horiz-adv-x="432" 
d="M353 680v-680h-139v680h139zM178 680v-9l-53 -157h-118v10l29 156h142z" />
    <glyph glyph-name="Omicrontonos" unicode="&#x38c;" horiz-adv-x="858" 
d="M301 340q0 -108 43.5 -172t139.5 -64q95 0 138.5 64t43.5 172t-43.5 172t-138.5 64q-96 0 -139.5 -64t-43.5 -172zM811 340q0 -157 -83 -256t-244 -99q-110 0 -185.5 48.5t-109 126.5t-33.5 180t33.5 180t109 126.5t185.5 48.5q161 0 244 -99t83 -256zM182 680v-9
l-53 -157h-118v10l29 156h142z" />
    <glyph glyph-name="Upsilontonos" unicode="&#x38e;" horiz-adv-x="841" 
d="M234 680h152l151 -280h2l151 280h152v-10l-234 -396v-274h-139v274l-235 396v10zM190 680v-9l-53 -157h-118v10l29 156h142z" />
    <glyph glyph-name="Omegatonos" unicode="&#x38f;" horiz-adv-x="883" 
d="M165 0v116h142q-60 33 -99 101.5t-39 166.5q0 60 20 114t58.5 99t103 71.5t146.5 26.5q81 0 145.5 -26.5t103.5 -71.5t59 -99.5t20 -113.5q0 -97 -39.5 -165.5t-99.5 -102.5h142v-116h-288v102q44 28 73 61t47.5 84.5t18.5 117.5q0 91 -44 151t-138 60t-138.5 -60
t-44.5 -151q0 -66 18.5 -117.5t47.5 -84.5t73 -61v-102h-288zM184 680v-9l-53 -157h-118v10l29 156h142z" />
    <glyph glyph-name="iotadieresistonos" unicode="&#x390;" horiz-adv-x="303" 
d="M64 482h135v-339q0 -47 43 -47q21 0 43 7v-110q-38 -8 -82 -8q-139 0 -139 146v351zM-106 606q0 33 21.5 53.5t56.5 20.5q36 0 57.5 -20.5t21.5 -53.5t-21.5 -53.5t-57.5 -20.5q-35 0 -56.5 20.5t-21.5 53.5zM249 606q0 33 21.5 53.5t56.5 20.5q36 0 57.5 -20.5
t21.5 -53.5t-21.5 -53.5t-57.5 -20.5q-35 0 -56.5 20.5t-21.5 53.5zM240 710v-9l-53 -167h-113v10l29 166h137z" />
    <glyph glyph-name="Alpha" unicode="&#x391;" horiz-adv-x="668" 
d="M415 680l250 -680h-153l-45 140h-266l-46 -140h-152l250 680h162zM335 538h-3l-93 -286h189z" />
    <glyph glyph-name="Beta" unicode="&#x392;" horiz-adv-x="652" 
d="M218 294v-178h129q62 0 89.5 21t27.5 67q0 47 -28 68.5t-95 21.5h-123zM79 680h249q126 0 189 -44.5t63 -139.5q0 -52 -24.5 -88t-63.5 -53v-2q117 -40 117 -159q0 -98 -60 -146t-190 -48h-280v680zM218 564v-160h104q61 0 87 17.5t26 61.5q0 46 -25.5 63.5t-89.5 17.5
h-102z" />
    <glyph glyph-name="Gamma" unicode="&#x393;" horiz-adv-x="533" 
d="M218 0h-139v680h432v-116h-293v-564z" />
    <glyph glyph-name="uni0394" unicode="&#x394;" horiz-adv-x="666" 
d="M662 5v-5h-658v5l248 675h162zM334 538h-3l-145 -422h295z" />
    <glyph glyph-name="Epsilon" unicode="&#x395;" 
d="M79 680h456v-116h-317v-163h284v-116h-284v-169h320v-116h-459v680z" />
    <glyph glyph-name="Zeta" unicode="&#x396;" horiz-adv-x="587" 
d="M58 680h483v-100l-333 -462v-2h333v-116h-504v100l332 462v2h-311v116z" />
    <glyph glyph-name="Eta" unicode="&#x397;" horiz-adv-x="722" 
d="M504 0v285h-286v-285h-139v680h139v-279h286v279h139v-680h-139z" />
    <glyph glyph-name="Theta" unicode="&#x398;" horiz-adv-x="748" 
d="M492 285h-240v116h240v-116zM192 340q0 -108 43.5 -172t139.5 -64q95 0 138.5 64t43.5 172t-43.5 172t-138.5 64q-96 0 -139.5 -64t-43.5 -172zM702 340q0 -157 -83 -256t-244 -99q-110 0 -185.5 48.5t-109 126.5t-33.5 180t33.5 180t109 126.5t185.5 48.5q161 0 244 -99
t83 -256z" />
    <glyph glyph-name="Iota" unicode="&#x399;" horiz-adv-x="297" 
d="M218 680v-680h-139v680h139z" />
    <glyph glyph-name="Kappa" unicode="&#x39a;" horiz-adv-x="643" 
d="M220 304h-2v-304h-139v680h139v-329h2l248 329h154v-10l-260 -337l273 -323v-10h-162z" />
    <glyph glyph-name="Lambda" unicode="&#x39b;" horiz-adv-x="650" 
d="M323 523l-167 -523h-152l240 680h162l240 -680h-153l-167 523h-3z" />
    <glyph glyph-name="Mu" unicode="&#x39c;" horiz-adv-x="842" 
d="M420 316h2l207 364h134v-680h-139v442h-2l-146 -271h-110l-146 271h-2v-442h-139v680h134z" />
    <glyph glyph-name="Nu" unicode="&#x39d;" horiz-adv-x="736" 
d="M515 211h3v469h139v-680h-147l-289 469h-3v-469h-139v680h147z" />
    <glyph glyph-name="Xi" unicode="&#x39e;" horiz-adv-x="587" 
d="M54 124h479v-124h-479v124zM497 281h-410v124h410v-124zM530 556h-476v124h476v-124z" />
    <glyph glyph-name="Omicron" unicode="&#x39f;" horiz-adv-x="749" 
d="M192 340q0 -108 43.5 -172t139.5 -64q95 0 138.5 64t43.5 172t-43.5 172t-138.5 64q-96 0 -139.5 -64t-43.5 -172zM702 340q0 -157 -83 -256t-244 -99q-110 0 -185.5 48.5t-109 126.5t-33.5 180t33.5 180t109 126.5t185.5 48.5q161 0 244 -99t83 -256z" />
    <glyph glyph-name="Pi" unicode="&#x3a0;" horiz-adv-x="722" 
d="M504 0v564h-286v-564h-139v680h564v-680h-139z" />
    <glyph glyph-name="Rho" unicode="&#x3a1;" horiz-adv-x="596" 
d="M218 0h-139v680h259q118 0 173.5 -60.5t55.5 -164.5t-56 -165t-173 -61h-120v-229zM218 564v-219h110q94 0 94 110q0 109 -94 109h-110z" />
    <glyph glyph-name="Sigma" unicode="&#x3a3;" horiz-adv-x="599" 
d="M40 0v103l174 243l-158 230v104h494v-116h-338l153 -214l-170 -234h355v-116h-510z" />
    <glyph glyph-name="Tau" unicode="&#x3a4;" horiz-adv-x="568" 
d="M23 680h522v-116h-192v-564h-139v564h-191v116z" />
    <glyph glyph-name="Upsilon" unicode="&#x3a5;" horiz-adv-x="604" 
d="M-3 680h152l151 -280h2l151 280h152v-10l-234 -396v-274h-139v274l-235 396v10z" />
    <glyph glyph-name="Phi" unicode="&#x3a6;" horiz-adv-x="820" 
d="M481 680v-60q158 -14 232 -88t74 -192t-74 -192t-232 -88v-60h-139v59q-161 14 -235.5 87.5t-74.5 193.5q0 119 74.5 192.5t235.5 87.5v60h139zM177 340q0 -75 37 -120t128 -56v352q-165 -20 -165 -176zM642 340q0 74 -36.5 119t-124.5 56v-351q89 13 125 57.5t36 118.5z
" />
    <glyph glyph-name="Chi" unicode="&#x3a7;" horiz-adv-x="624" 
d="M21 680h151l139 -256h2l140 256h150v-10l-192 -329l192 -331v-10h-152l-138 257h-2l-138 -257h-152v10l191 331l-191 329v10z" />
    <glyph glyph-name="Psi" unicode="&#x3a8;" horiz-adv-x="762" 
d="M451 680v-411q67 4 95 41.5t28 121.5v248h139v-248q0 -136 -63 -206t-199 -76v-150h-139v150q-136 4 -199.5 75t-63.5 207v248h139v-248q0 -85 28 -122t96 -41v411h139z" />
    <glyph glyph-name="uni03A9" unicode="&#x3a9;" horiz-adv-x="771" 
d="M54 0v116h142q-60 33 -99 101.5t-39 166.5q0 60 20 114t58.5 99t103 71.5t146.5 26.5q81 0 145.5 -26.5t103.5 -71.5t59 -99.5t20 -113.5q0 -97 -39.5 -165.5t-99.5 -102.5h142v-116h-288v102q44 28 73 61t47.5 84.5t18.5 117.5q0 91 -44 151t-138 60t-138.5 -60
t-44.5 -151q0 -66 18.5 -117.5t47.5 -84.5t73 -61v-102h-288z" />
    <glyph glyph-name="Iotadieresis" unicode="&#x3aa;" horiz-adv-x="297" 
d="M218 680v-680h-139v680h139zM-62 819q0 33 21.5 53.5t56.5 20.5q36 0 57.5 -20.5t21.5 -53.5t-21.5 -53.5t-57.5 -20.5q-35 0 -56.5 20.5t-21.5 53.5zM199 819q0 33 21.5 53.5t56.5 20.5q36 0 57.5 -20.5t21.5 -53.5t-21.5 -53.5t-57.5 -20.5q-35 0 -56.5 20.5
t-21.5 53.5z" />
    <glyph glyph-name="Upsilondieresis" unicode="&#x3ab;" horiz-adv-x="604" 
d="M-3 680h152l151 -280h2l151 280h152v-10l-234 -396v-274h-139v274l-235 396v10zM93 819q0 33 21.5 53.5t56.5 20.5q36 0 57.5 -20.5t21.5 -53.5t-21.5 -53.5t-57.5 -20.5q-35 0 -56.5 20.5t-21.5 53.5zM354 819q0 33 21.5 53.5t56.5 20.5q36 0 57.5 -20.5t21.5 -53.5
t-21.5 -53.5t-57.5 -20.5q-35 0 -56.5 20.5t-21.5 53.5z" />
    <glyph glyph-name="alphatonos" unicode="&#x3ac;" horiz-adv-x="621" 
d="M516 242l68 -242h-135l-14 83h-2q-19 -40 -61 -69t-104 -29q-103 0 -166.5 70t-63.5 186t63.5 186t166.5 70q62 0 104 -29t61 -69h2l14 83h135zM396 241q-40 145 -119 145q-46 0 -73.5 -39t-27.5 -106t27.5 -106t73.5 -39q79 0 119 145zM430 725v-9l-56 -157h-116v10
l32 156h140z" />
    <glyph glyph-name="epsilontonos" unicode="&#x3ad;" horiz-adv-x="495" 
d="M385 294v-103h-136q-73 0 -73 -45q0 -50 99 -50q98 0 170 31l23 -105q-86 -37 -193 -37q-237 0 -237 144q0 92 87 122v2q-70 26 -70 106q0 140 221 140q93 0 178 -33l-26 -103q-75 25 -153 25q-83 0 -83 -48q0 -46 65 -46h128zM405 725v-9l-56 -157h-116v10l32 156h140z
" />
    <glyph glyph-name="etatonos" unicode="&#x3ae;" horiz-adv-x="581" 
d="M63 482h108l18 -47h2q69 62 154 62q84 0 131 -52.5t47 -140.5v-502h-135v488q0 96 -86 96q-50 0 -104 -41v-345h-135v482zM433 725v-9l-56 -157h-116v10l32 156h140z" />
    <glyph glyph-name="iotatonos" unicode="&#x3af;" horiz-adv-x="303" 
d="M64 482h135v-339q0 -47 43 -47q21 0 43 7v-110q-38 -8 -82 -8q-139 0 -139 146v351zM249 725v-9l-56 -157h-116v10l32 156h140z" />
    <glyph glyph-name="upsilondieresistonos" unicode="&#x3b0;" horiz-adv-x="565" 
d="M192 482v-269q0 -117 97 -117q45 0 71 35.5t26 107.5q0 99 -43 243h138q40 -143 40 -243q0 -254 -232 -254q-113 0 -172.5 56t-59.5 157v284h135zM380 725v-9l-56 -157h-116v10l32 156h140z" />
    <glyph glyph-name="alpha" unicode="&#x3b1;" horiz-adv-x="621" 
d="M516 242l68 -242h-135l-14 83h-2q-19 -40 -61 -69t-104 -29q-103 0 -166.5 70t-63.5 186t63.5 186t166.5 70q62 0 104 -29t61 -69h2l14 83h135zM396 241q-40 145 -119 145q-46 0 -73.5 -39t-27.5 -106t27.5 -106t73.5 -39q79 0 119 145z" />
    <glyph glyph-name="beta" unicode="&#x3b2;" horiz-adv-x="587" 
d="M200 23h-2v-221h-135v671q0 119 57.5 175.5t173.5 56.5q95 0 150 -52.5t55 -138.5q0 -51 -26.5 -88t-62.5 -53v-2q57 -16 99 -61t42 -115q0 -103 -62.5 -156.5t-161.5 -53.5q-79 0 -127 38zM198 476v-349q34 -31 104 -31q111 0 111 109q0 49 -33.5 77t-99.5 28h-30v103
h29q39 0 60.5 23.5t21.5 68.5q0 39 -20.5 64t-59.5 25q-41 0 -62 -26.5t-21 -91.5z" />
    <glyph glyph-name="gamma" unicode="&#x3b3;" horiz-adv-x="534" 
d="M327 -198h-135v201l-180 469v10h136l111 -345h2q90 170 121 345h136v-10q-43 -205 -191 -474v-196z" />
    <glyph glyph-name="delta" unicode="&#x3b4;" horiz-adv-x="580" 
d="M436 696v-111q-43 9 -78 9q-78 0 -78 -45q0 -19 27.5 -42t66 -49t77.5 -58.5t66.5 -81.5t27.5 -107q0 -89 -69.5 -157.5t-190.5 -68.5q-114 0 -181.5 69.5t-67.5 162.5q0 156 161 236q-52 52 -52 100q0 74 55.5 113t136.5 39q36 0 99 -9zM407 211q0 30 -9.5 55.5t-30 48
t-38 37t-47.5 35.5q-108 -71 -108 -172q0 -53 31 -86t80 -33q56 0 89 32t33 83z" />
    <glyph glyph-name="epsilon" unicode="&#x3b5;" horiz-adv-x="495" 
d="M385 294v-103h-136q-73 0 -73 -45q0 -50 99 -50q98 0 170 31l23 -105q-86 -37 -193 -37q-237 0 -237 144q0 92 87 122v2q-70 26 -70 106q0 140 221 140q93 0 178 -33l-26 -103q-75 25 -153 25q-83 0 -83 -48q0 -46 65 -46h128z" />
    <glyph glyph-name="zeta" unicode="&#x3b6;" horiz-adv-x="466" 
d="M53 700h402v-87q-193 -218 -233 -271q-52 -72 -52 -115q0 -36 26 -61t63 -40.5t74 -33t63 -51.5t26 -83q0 -80 -88 -144l-91 64q41 32 41 64q0 25 -26 43.5t-63 34.5t-74 37t-63 59.5t-26 92.5q0 25 5 48t18.5 49.5t25.5 46t39.5 52.5t45.5 53.5t57.5 65t63.5 71.5v2
h-234v103z" />
    <glyph glyph-name="eta" unicode="&#x3b7;" horiz-adv-x="581" 
d="M63 482h108l18 -47h2q69 62 154 62q84 0 131 -52.5t47 -140.5v-502h-135v488q0 96 -86 96q-50 0 -104 -41v-345h-135v482z" />
    <glyph glyph-name="theta" unicode="&#x3b8;" horiz-adv-x="587" 
d="M542 345q0 -360 -248 -360q-250 0 -250 360t250 360q248 0 248 -360zM294 594q-107 0 -115 -201h228q-8 201 -113 201zM294 96q104 0 112 198h-227q6 -99 33 -148.5t82 -49.5z" />
    <glyph glyph-name="iota" unicode="&#x3b9;" horiz-adv-x="303" 
d="M64 482h135v-339q0 -47 43 -47q21 0 43 7v-110q-38 -8 -82 -8q-139 0 -139 146v351z" />
    <glyph glyph-name="kappa" unicode="&#x3ba;" horiz-adv-x="534" 
d="M198 211h-2v-211h-133v482h133v-230h2l171 230h145v-7l-188 -237l197 -231v-7h-149z" />
    <glyph glyph-name="lambda" unicode="&#x3bb;" horiz-adv-x="531" 
d="M519 10v-10h-140l-110 328h-3l-116 -328h-140v10l194 467l-26 71q-9 25 -22.5 35.5t-36.5 10.5q-20 0 -42 -5v107q34 9 66 9q109 0 149 -111z" />
    <glyph glyph-name="uni03BC" unicode="&#x3bc;" horiz-adv-x="580" 
d="M198 -198h-135v680h135v-290q0 -48 19.5 -72t62.5 -24q48 0 102 41v345h135v-482h-109l-18 47h-2q-67 -62 -133 -62q-34 0 -57 16v-199z" />
    <glyph glyph-name="nu" unicode="&#x3bd;" horiz-adv-x="536" 
d="M519 482v-10q-46 -224 -185 -472h-146l-175 472v10h136l111 -345h2q90 170 121 345h136z" />
    <glyph glyph-name="xi" unicode="&#x3be;" horiz-adv-x="484" 
d="M127 595v2h-104v103h437v-103h-137q-63 0 -95 -26t-32 -72q0 -48 31.5 -74.5t96.5 -26.5h76v-103h-74q-80 0 -115 -22.5t-35 -69.5q0 -34 29 -55.5t70 -34.5t82 -28t70 -46t29 -78q0 -41 -26 -80t-67 -67l-91 64q46 36 46 64q0 24 -29 41t-70 30t-82 31t-70 54.5
t-29 90.5q0 123 129 164v2q-44 13 -76.5 48.5t-32.5 83.5q0 76 69 108z" />
    <glyph glyph-name="omicron" unicode="&#x3bf;" horiz-adv-x="583" 
d="M175 241q0 -71 31.5 -108t84.5 -37q55 0 86 37t31 108t-31 108t-86 37q-53 0 -84.5 -37t-31.5 -108zM546 241q0 -110 -67 -183t-188 -73q-119 0 -186.5 73t-67.5 183t67.5 183t186.5 73q121 0 188 -73t67 -183z" />
    <glyph glyph-name="pi" unicode="&#x3c0;" horiz-adv-x="620" 
d="M2 482h603v-103h-96v-236q0 -47 43 -47q21 0 43 7v-110q-38 -8 -82 -8q-139 0 -139 146v248h-139v-379h-135v379h-98v103z" />
    <glyph glyph-name="rho" unicode="&#x3c1;" horiz-adv-x="581" 
d="M191 267v-137q38 -34 97 -34q117 0 117 145t-117 145q-45 0 -71 -31t-26 -88zM191 -198h-135v462q0 115 63.5 174t168.5 59q127 0 191 -72t64 -184q0 -110 -59 -183t-165 -73q-77 0 -126 45h-2v-228z" />
    <glyph glyph-name="sigma1" unicode="&#x3c2;" horiz-adv-x="465" 
d="M444 468l-27 -103q-53 21 -108 21q-59 0 -95.5 -36.5t-36.5 -115.5q0 -38 25.5 -63.5t61.5 -41t72 -32.5t61.5 -51t25.5 -85q0 -41 -25 -80t-63 -67l-91 64q41 32 41 64q0 20 -18.5 35.5t-45.5 26t-59.5 29t-59.5 41t-45.5 65.5t-18.5 101q0 119 67.5 188t188.5 69
q73 0 150 -29z" />
    <glyph glyph-name="sigma" unicode="&#x3c3;" horiz-adv-x="601" 
d="M473 379v-2q34 -21 53.5 -66t19.5 -96q0 -94 -67.5 -162t-187.5 -68q-119 0 -186.5 71t-67.5 178t67.5 177.5t186.5 70.5h277v-103h-95zM175 234q0 -68 31.5 -103t84.5 -35q55 0 86 35t31 103q0 69 -31 103t-86 34q-54 0 -85 -34.5t-31 -102.5z" />
    <glyph glyph-name="tau" unicode="&#x3c4;" horiz-adv-x="487" 
d="M20 482h437v-103h-162v-228q0 -29 9.5 -42t37.5 -13q32 0 78 14v-110q-60 -15 -113 -15q-79 0 -113 33.5t-34 107.5v253h-140v103z" />
    <glyph glyph-name="upsilon" unicode="&#x3c5;" horiz-adv-x="565" 
d="M192 482v-269q0 -117 97 -117q45 0 71 35.5t26 107.5q0 99 -43 243h138q40 -143 40 -243q0 -254 -232 -254q-113 0 -172.5 56t-59.5 157v284h135z" />
    <glyph glyph-name="phi" unicode="&#x3c6;" horiz-adv-x="724" 
d="M96 482h139q-59 -128 -59 -237q0 -66 27 -102t89 -46v183q0 217 188 217q54 0 95.5 -22t64.5 -58.5t34.5 -77t11.5 -83.5q0 -234 -259 -263v-191h-135v189q-130 14 -190.5 81t-60.5 173q0 103 55 237zM427 268v-170q65 12 93 49.5t28 108.5q0 55 -17 92.5t-48 37.5
q-30 0 -43 -27t-13 -91z" />
    <glyph glyph-name="chi" unicode="&#x3c7;" horiz-adv-x="531" 
d="M8 482h140l118 -246h1l119 246h139v-10l-173 -329l173 -331v-10h-141l-117 247h-1l-117 -247h-141v10l172 331l-172 329v10z" />
    <glyph glyph-name="psi" unicode="&#x3c8;" horiz-adv-x="740" 
d="M440 700v-607q52 0 87.5 37t35.5 109q0 94 -48 243h139q44 -138 44 -243q0 -251 -258 -251v-186h-135v186q-121 0 -184.5 55t-63.5 155v284h135v-274q0 -63 28 -89t85 -26v607h135z" />
    <glyph glyph-name="omega" unicode="&#x3c9;" horiz-adv-x="825" 
d="M567 482h144q27 -54 37.5 -77.5t23 -71t12.5 -94.5q0 -254 -220 -254q-100 0 -151 99h-2q-21 -43 -59.5 -71t-91.5 -28q-219 0 -219 254q0 47 12.5 94.5t23 71t37.5 77.5h144v-10q-82 -134 -82 -233q0 -72 22.5 -107.5t61.5 -35.5t62 29.5t23 87.5v146h135v-152
q0 -54 23 -82.5t61 -28.5q85 0 85 143q0 99 -82 233v10z" />
    <glyph glyph-name="iotadieresis" unicode="&#x3ca;" horiz-adv-x="303" 
d="M64 482h135v-339q0 -47 43 -47q21 0 43 7v-110q-38 -8 -82 -8q-139 0 -139 146v351zM-54 640q0 33 21.5 53.5t56.5 20.5q36 0 57.5 -20.5t21.5 -53.5t-21.5 -53.5t-57.5 -20.5q-35 0 -56.5 20.5t-21.5 53.5zM166 640q0 33 21.5 53.5t56.5 20.5q36 0 57.5 -20.5
t21.5 -53.5t-21.5 -53.5t-57.5 -20.5q-35 0 -56.5 20.5t-21.5 53.5z" />
    <glyph glyph-name="upsilondieresis" unicode="&#x3cb;" horiz-adv-x="565" 
d="M192 482v-269q0 -117 97 -117q45 0 71 35.5t26 107.5q0 99 -43 243h138q40 -143 40 -243q0 -254 -232 -254q-113 0 -172.5 56t-59.5 157v284h135zM89 640q0 33 21.5 53.5t56.5 20.5q36 0 57.5 -20.5t21.5 -53.5t-21.5 -53.5t-57.5 -20.5q-35 0 -56.5 20.5t-21.5 53.5z
M309 640q0 33 21.5 53.5t56.5 20.5q36 0 57.5 -20.5t21.5 -53.5t-21.5 -53.5t-57.5 -20.5q-35 0 -56.5 20.5t-21.5 53.5z" />
    <glyph glyph-name="omicrontonos" unicode="&#x3cc;" horiz-adv-x="583" 
d="M175 241q0 -71 31.5 -108t84.5 -37q55 0 86 37t31 108t-31 108t-86 37q-53 0 -84.5 -37t-31.5 -108zM546 241q0 -110 -67 -183t-188 -73q-119 0 -186.5 73t-67.5 183t67.5 183t186.5 73q121 0 188 -73t67 -183zM413 725v-9l-56 -157h-116v10l32 156h140z" />
    <glyph glyph-name="upsilontonos" unicode="&#x3cd;" horiz-adv-x="565" 
d="M192 482v-269q0 -117 97 -117q45 0 71 35.5t26 107.5q0 99 -43 243h138q40 -143 40 -243q0 -254 -232 -254q-113 0 -172.5 56t-59.5 157v284h135zM392 725v-9l-56 -157h-116v10l32 156h140z" />
    <glyph glyph-name="omegatonos" unicode="&#x3ce;" horiz-adv-x="825" 
d="M567 482h144q27 -54 37.5 -77.5t23 -71t12.5 -94.5q0 -254 -220 -254q-100 0 -151 99h-2q-21 -43 -59.5 -71t-91.5 -28q-219 0 -219 254q0 47 12.5 94.5t23 71t37.5 77.5h144v-10q-82 -134 -82 -233q0 -72 22.5 -107.5t61.5 -35.5t62 29.5t23 87.5v146h135v-152
q0 -54 23 -82.5t61 -28.5q85 0 85 143q0 99 -82 233v10zM535 725v-9l-56 -157h-116v10l32 156h140z" />
    <glyph glyph-name="uni0400" unicode="&#x400;" 
d="M79 680h456v-116h-317v-163h284v-116h-284v-169h320v-116h-459v680zM169 887v9h152l59 -136v-10h-128z" />
    <glyph glyph-name="uni0401" unicode="&#x401;" 
d="M79 680h456v-116h-317v-163h284v-116h-284v-169h320v-116h-459v680zM96 819q0 33 21.5 53.5t56.5 20.5q36 0 57.5 -20.5t21.5 -53.5t-21.5 -53.5t-57.5 -20.5q-35 0 -56.5 20.5t-21.5 53.5zM357 819q0 33 21.5 53.5t56.5 20.5q36 0 57.5 -20.5t21.5 -53.5t-21.5 -53.5
t-57.5 -20.5q-35 0 -56.5 20.5t-21.5 53.5z" />
    <glyph glyph-name="uni0402" unicode="&#x402;" horiz-adv-x="707" 
d="M514 -140l-104 77q124 142 124 255q0 114 -112 114q-55 0 -124 -19v-287h-139v564h-137v116h472v-116h-196v-161q67 19 145 19q114 0 175 -63t61 -167q0 -146 -165 -332z" />
    <glyph glyph-name="uni0403" unicode="&#x403;" horiz-adv-x="557" 
d="M79 680h456v-116h-317v-564h-139v680zM452 896v-9l-83 -137h-128v10l59 136h152z" />
    <glyph glyph-name="uni0404" unicode="&#x404;" horiz-adv-x="604" 
d="M46 340q0 162 86.5 258.5t244.5 96.5q97 0 193 -44l-37 -110q-80 35 -156 35t-123 -47.5t-59 -130.5h267v-116h-267q12 -84 59 -131t123 -47t156 35l37 -110q-96 -44 -193 -44q-158 0 -244.5 96.5t-86.5 258.5z" />
    <glyph glyph-name="uni0405" unicode="&#x405;" horiz-adv-x="561" 
d="M38 50l43 109q35 -22 89.5 -39.5t98.5 -17.5q112 0 112 86q0 32 -20.5 49.5t-75.5 36.5l-73 24q-161 52 -161 189q0 95 64 151.5t183 56.5q105 0 201 -49l-42 -111q-88 43 -159 43q-105 0 -105 -79q0 -28 15.5 -47t54.5 -31l71 -23q98 -31 143.5 -76.5t45.5 -121.5
q0 -100 -68 -157.5t-186 -57.5q-117 0 -231 65z" />
    <glyph glyph-name="uni0406" unicode="&#x406;" horiz-adv-x="297" 
d="M218 680v-680h-139v680h139z" />
    <glyph glyph-name="uni0407" unicode="&#x407;" horiz-adv-x="297" 
d="M218 680v-680h-139v680h139zM-62 819q0 33 21.5 53.5t56.5 20.5q36 0 57.5 -20.5t21.5 -53.5t-21.5 -53.5t-57.5 -20.5q-35 0 -56.5 20.5t-21.5 53.5zM199 819q0 33 21.5 53.5t56.5 20.5q36 0 57.5 -20.5t21.5 -53.5t-21.5 -53.5t-57.5 -20.5q-35 0 -56.5 20.5
t-21.5 53.5z" />
    <glyph glyph-name="uni0408" unicode="&#x408;" horiz-adv-x="482" 
d="M7 56l63 100q29 -26 53.5 -39t60.5 -13q44 0 64.5 31t20.5 81v464h139v-473q0 -109 -58.5 -165.5t-165.5 -56.5q-98 0 -177 71z" />
    <glyph glyph-name="uni0409" unicode="&#x409;" horiz-adv-x="1009" 
d="M151 680h445v-250h141q117 0 177 -55t60 -161q0 -105 -60 -159.5t-177 -54.5h-280v564h-177l-13 -208q-6 -96 -19.5 -161t-32.5 -106t-50.5 -62.5t-66.5 -29t-87 -7.5v119q31 0 49.5 7.5t36 32t27 77t13.5 138.5zM596 314v-198h131q102 0 102 98q0 100 -102 100h-131z
" />
    <glyph glyph-name="uni040A" unicode="&#x40a;" horiz-adv-x="1027" 
d="M475 680h139v-250h141q117 0 177 -55t60 -161q0 -105 -60 -159.5t-177 -54.5h-280v314h-257v-314h-139v680h139v-250h257v250zM614 314v-198h131q102 0 102 98q0 100 -102 100h-131z" />
    <glyph glyph-name="uni040B" unicode="&#x40b;" horiz-adv-x="721" 
d="M676 0h-139v255q0 95 -105 95q-70 0 -134 -26v-324h-139v564h-137v116h472v-116h-196v-126q77 29 173 29t150.5 -53t54.5 -141v-273z" />
    <glyph glyph-name="uni040C" unicode="&#x40c;" horiz-adv-x="643" 
d="M220 304h-2v-304h-139v680h139v-329h2l248 329h154v-10l-260 -337l273 -323v-10h-162zM477 896v-9l-83 -137h-128v10l59 136h152z" />
    <glyph glyph-name="uni040D" unicode="&#x40d;" horiz-adv-x="726" 
d="M218 201h3l269 479h157v-680h-139v479h-3l-269 -479h-157v680h139v-479zM219 887v9h152l59 -136v-10h-128z" />
    <glyph glyph-name="uni040E" unicode="&#x40e;" horiz-adv-x="569" 
d="M567 680v-10l-212 -505q-41 -98 -92 -131.5t-147 -33.5h-42v116h31q50 0 73.5 11t40.5 51l10 25l-217 467v10h153l129 -326h3l123 326h147zM297 858q89 0 133 34l42 -64q-53 -77 -175 -77q-120 0 -173 77l42 64q48 -34 131 -34z" />
    <glyph glyph-name="uni040F" unicode="&#x40f;" horiz-adv-x="712" 
d="M407 -141h-101l-12 141h-215v680h139v-564h276v564h139v-680h-215z" />
    <glyph glyph-name="uni0410" unicode="&#x410;" horiz-adv-x="668" 
d="M415 680l250 -680h-153l-45 140h-266l-46 -140h-152l250 680h162zM335 538h-3l-93 -286h189z" />
    <glyph glyph-name="uni0411" unicode="&#x411;" horiz-adv-x="634" 
d="M79 680h465v-116h-326v-134h141q117 0 177 -55t60 -161q0 -105 -60 -159.5t-177 -54.5h-280v680zM218 314v-198h131q102 0 102 98q0 100 -102 100h-131z" />
    <glyph glyph-name="uni0412" unicode="&#x412;" horiz-adv-x="652" 
d="M218 294v-178h129q62 0 89.5 21t27.5 67q0 47 -28 68.5t-95 21.5h-123zM79 680h249q126 0 189 -44.5t63 -139.5q0 -52 -24.5 -88t-63.5 -53v-2q117 -40 117 -159q0 -98 -60 -146t-190 -48h-280v680zM218 564v-160h104q61 0 87 17.5t26 61.5q0 46 -25.5 63.5t-89.5 17.5
h-102z" />
    <glyph glyph-name="uni0413" unicode="&#x413;" horiz-adv-x="557" 
d="M79 680h456v-116h-317v-564h-139v680z" />
    <glyph glyph-name="uni0414" unicode="&#x414;" horiz-adv-x="730" 
d="M126 -141h-101l-20 257h62q68 87 80 293l14 271h455v-564h78l-20 -257h-101l-10 141h-428zM221 116h256v448h-189l-10 -156q-12 -220 -57 -292z" />
    <glyph glyph-name="uni0415" unicode="&#x415;" 
d="M79 680h456v-116h-317v-163h284v-116h-284v-169h320v-116h-459v680z" />
    <glyph glyph-name="uni0416" unicode="&#x416;" horiz-adv-x="990" 
d="M425 304h-2l-253 -304h-162v10l274 324l-261 336v10h156l246 -329h2v329h140v-329h2l246 329h156v-10l-261 -336l274 -324v-10h-162l-253 304h-2v-304h-140v304z" />
    <glyph glyph-name="uni0417" unicode="&#x417;" horiz-adv-x="560" 
d="M131 285v116h116q108 0 108 89q0 86 -108 86q-81 0 -164 -34l-40 108q93 45 204 45q124 0 188.5 -50.5t64.5 -142.5q0 -56 -30.5 -94.5t-71.5 -52.5v-2q54 -19 87 -62.5t33 -107.5q0 -92 -70.5 -145t-200.5 -53q-128 0 -220 51l37 110q79 -42 183 -42q56 0 91 23.5
t35 65.5q0 48 -29 70t-97 22h-116z" />
    <glyph glyph-name="uni0418" unicode="&#x418;" horiz-adv-x="726" 
d="M218 201h3l269 479h157v-680h-139v479h-3l-269 -479h-157v680h139v-479z" />
    <glyph glyph-name="uni0419" unicode="&#x419;" horiz-adv-x="726" 
d="M370 858q89 0 133 34l42 -64q-53 -77 -175 -77q-120 0 -173 77l42 64q48 -34 131 -34zM218 201h3l269 479h157v-680h-139v479h-3l-269 -479h-157v680h139v-479z" />
    <glyph glyph-name="uni041A" unicode="&#x41a;" horiz-adv-x="643" 
d="M220 304h-2v-304h-139v680h139v-329h2l248 329h154v-10l-260 -337l273 -323v-10h-162z" />
    <glyph glyph-name="uni041B" unicode="&#x41b;" horiz-adv-x="715" 
d="M497 0v564h-217l-13 -208q-6 -96 -19.5 -161t-32.5 -106t-50.5 -62.5t-66.5 -29t-87 -7.5v119q31 0 49.5 7.5t36 32t27 77t13.5 138.5l14 316h485v-680h-139z" />
    <glyph glyph-name="uni041C" unicode="&#x41c;" horiz-adv-x="842" 
d="M420 316h2l207 364h134v-680h-139v442h-2l-146 -271h-110l-146 271h-2v-442h-139v680h134z" />
    <glyph glyph-name="uni041D" unicode="&#x41d;" horiz-adv-x="722" 
d="M504 0v285h-286v-285h-139v680h139v-279h286v279h139v-680h-139z" />
    <glyph glyph-name="uni041E" unicode="&#x41e;" horiz-adv-x="749" 
d="M192 340q0 -108 43.5 -172t139.5 -64q95 0 138.5 64t43.5 172t-43.5 172t-138.5 64q-96 0 -139.5 -64t-43.5 -172zM702 340q0 -157 -83 -256t-244 -99q-110 0 -185.5 48.5t-109 126.5t-33.5 180t33.5 180t109 126.5t185.5 48.5q161 0 244 -99t83 -256z" />
    <glyph glyph-name="uni041F" unicode="&#x41f;" horiz-adv-x="722" 
d="M504 0v564h-286v-564h-139v680h564v-680h-139z" />
    <glyph glyph-name="uni0420" unicode="&#x420;" horiz-adv-x="596" 
d="M218 0h-139v680h259q118 0 173.5 -60.5t55.5 -164.5t-56 -165t-173 -61h-120v-229zM218 564v-219h110q94 0 94 110q0 109 -94 109h-110z" />
    <glyph glyph-name="uni0421" unicode="&#x421;" horiz-adv-x="605" 
d="M46 340q0 162 86.5 258.5t244.5 96.5q97 0 193 -44l-37 -110q-80 35 -156 35q-89 0 -137.5 -64t-48.5 -172t48.5 -172t137.5 -64q76 0 156 35l37 -110q-96 -44 -193 -44q-158 0 -244.5 96.5t-86.5 258.5z" />
    <glyph glyph-name="uni0422" unicode="&#x422;" horiz-adv-x="568" 
d="M23 680h522v-116h-192v-564h-139v564h-191v116z" />
    <glyph glyph-name="uni0423" unicode="&#x423;" horiz-adv-x="569" 
d="M567 680v-10l-212 -505q-41 -98 -92 -131.5t-147 -33.5h-42v116h31q50 0 73.5 11t40.5 51l10 25l-217 467v10h153l129 -326h3l123 326h147z" />
    <glyph glyph-name="uni0424" unicode="&#x424;" horiz-adv-x="820" 
d="M481 680v-60q158 -14 232 -88t74 -192t-74 -192t-232 -88v-60h-139v59q-161 14 -235.5 87.5t-74.5 193.5q0 119 74.5 192.5t235.5 87.5v60h139zM177 340q0 -75 37 -120t128 -56v352q-165 -20 -165 -176zM642 340q0 74 -36.5 119t-124.5 56v-351q89 13 125 57.5t36 118.5z
" />
    <glyph glyph-name="uni0425" unicode="&#x425;" horiz-adv-x="624" 
d="M21 680h151l139 -256h2l140 256h150v-10l-192 -329l192 -331v-10h-152l-138 257h-2l-138 -257h-152v10l191 331l-191 329v10z" />
    <glyph glyph-name="uni0426" unicode="&#x426;" horiz-adv-x="747" 
d="M691 -141h-101l-10 141h-501v680h139v-564h276v564h139v-564h78z" />
    <glyph glyph-name="uni0427" unicode="&#x427;" horiz-adv-x="649" 
d="M53 680h139v-285q0 -95 105 -95q84 0 134 26v354h139v-680h-139v212q-77 -29 -173 -29t-150.5 53t-54.5 141v303z" />
    <glyph glyph-name="uni0428" unicode="&#x428;" horiz-adv-x="1027" 
d="M948 0h-869v680h139v-564h226v564h139v-564h226v564h139v-680z" />
    <glyph glyph-name="uni0429" unicode="&#x429;" horiz-adv-x="1062" 
d="M1006 -141h-101l-10 141h-816v680h139v-564h226v564h139v-564h226v564h139v-564h78z" />
    <glyph glyph-name="uni042A" unicode="&#x42a;" horiz-adv-x="704" 
d="M22 564v116h269v-250h141q117 0 177 -55t60 -161q0 -105 -60 -159.5t-177 -54.5h-280v564h-130zM291 314v-198h131q102 0 102 98q0 100 -102 100h-131z" />
    <glyph glyph-name="uni042B" unicode="&#x42b;" horiz-adv-x="884" 
d="M805 680v-680h-139v680h139zM79 680h139v-250h141q117 0 177 -55t60 -161q0 -105 -60 -159.5t-177 -54.5h-280v680zM218 314v-198h131q102 0 102 98q0 100 -102 100h-131z" />
    <glyph glyph-name="uni042C" unicode="&#x42c;" horiz-adv-x="631" 
d="M79 680h139v-250h141q117 0 177 -55t60 -161q0 -105 -60 -159.5t-177 -54.5h-280v680zM218 314v-198h131q102 0 102 98q0 100 -102 100h-131z" />
    <glyph glyph-name="uni042D" unicode="&#x42d;" horiz-adv-x="605" 
d="M559 340q0 -162 -86.5 -258.5t-244.5 -96.5q-97 0 -193 44l37 110q80 -35 156 -35t123 47t59 131h-267v116h267q-12 83 -59 130.5t-123 47.5t-156 -35l-37 110q96 44 193 44q158 0 244.5 -96.5t86.5 -258.5z" />
    <glyph glyph-name="uni042E" unicode="&#x42e;" horiz-adv-x="1062" 
d="M506 340q0 -108 43.5 -172t139.5 -64q95 0 138.5 64t43.5 172t-43.5 172t-138.5 64q-96 0 -139.5 -64t-43.5 -172zM1016 340q0 -157 -83 -256t-244 -99q-148 0 -229.5 81.5t-96.5 218.5h-145v-285h-139v680h139v-279h146q15 133 97.5 213.5t227.5 80.5q161 0 244 -99
t83 -256z" />
    <glyph glyph-name="uni042F" unicode="&#x42f;" horiz-adv-x="663" 
d="M584 0h-139v257h-88l-186 -257h-147v16l186 250q-74 18 -111.5 70.5t-37.5 132.5q0 99 59.5 155t176.5 56h287v-680zM304 373h141v191h-141q-46 0 -72 -26.5t-26 -68.5t26 -69t72 -27z" />
    <glyph glyph-name="uni0430" unicode="&#x430;" horiz-adv-x="543" 
d="M467 302v-197q0 -12 2.5 -15t13.5 -3h35v-92q-37 -7 -70 -7q-70 0 -96 57h-2q-27 -23 -70.5 -41.5t-84.5 -18.5q-79 0 -121 42t-42 110q0 81 56 119.5t182 38.5h65v22q0 40 -25.5 54.5t-56.5 14.5q-82 0 -160 -35l-32 103q95 43 199 43q103 0 155 -50.5t52 -144.5z
M335 208h-51q-123 0 -123 -59q0 -58 64 -58t110 33v84z" />
    <glyph glyph-name="uni0431" unicode="&#x431;" horiz-adv-x="596" 
d="M178 388h4q56 63 158 63t159 -63.5t57 -166.5q0 -102 -66 -169t-187 -67q-127 0 -191 75t-64 213q0 200 49.5 294t165.5 118q43 9 148 17.5t120 11.5v-122q-21 -6 -109.5 -11.5t-118.5 -10.5q-72 -13 -97.5 -55.5t-27.5 -126.5zM418 221q0 57 -30.5 88t-84.5 31
q-55 0 -86 -31t-31 -88t31.5 -91t85.5 -34q52 0 83.5 34t31.5 91z" />
    <glyph glyph-name="uni0432" unicode="&#x432;" horiz-adv-x="535" 
d="M194 203v-107h97q72 0 72 53q0 54 -72 54h-97zM63 482h236q175 0 175 -130q0 -73 -67 -105v-1q40 -12 64.5 -39.5t24.5 -70.5q0 -136 -187 -136h-246v482zM194 389v-101h75q42 0 57 13t15 37q0 23 -15 37t-57 14h-75z" />
    <glyph glyph-name="uni0433" unicode="&#x433;" horiz-adv-x="445" 
d="M63 482h363v-103h-232v-379h-131v482z" />
    <glyph glyph-name="uni0434" unicode="&#x434;" horiz-adv-x="608" 
d="M124 -120h-91l-20 225h54q43 50 53 198l9 179h390v-377h55l-19 -225h-91l-13 120h-316zM212 105h176v274h-137l-5 -74q-9 -147 -34 -200z" />
    <glyph glyph-name="uni0435" unicode="&#x435;" horiz-adv-x="539" 
d="M497 202h-322q4 -51 35.5 -80t85.5 -29q71 0 154 30l31 -97q-86 -41 -195 -41q-120 0 -184 72.5t-64 184.5q0 108 64 181.5t177 73.5q111 0 168 -58.5t57 -149.5q0 -47 -7 -87zM175 286h205q1 5 1 15q0 98 -101 98q-48 0 -75.5 -33t-29.5 -80z" />
    <glyph glyph-name="uni0436" unicode="&#x436;" horiz-adv-x="812" 
d="M339 211h-2l-177 -211h-149v7l197 231l-188 237v7h145l172 -228h2v228h134v-228h2l172 228h145v-7l-188 -237l197 -231v-7h-149l-177 211h-2v-211h-134v211z" />
    <glyph glyph-name="uni0437" unicode="&#x437;" horiz-adv-x="486" 
d="M108 191v103h123q34 0 48 11t14 35q0 48 -79 48q-85 0 -147 -25l-26 103q82 33 172 33q217 0 217 -140q0 -80 -69 -106v-2q86 -30 86 -122q0 -144 -232 -144q-105 0 -188 37l23 105q67 -31 165 -31q94 0 94 50q0 45 -70 45h-131z" />
    <glyph glyph-name="uni0438" unicode="&#x438;" horiz-adv-x="588" 
d="M194 180h3l180 302h148v-482h-131v302h-3l-180 -302h-148v482h131v-302z" />
    <glyph glyph-name="uni0439" unicode="&#x439;" horiz-adv-x="588" 
d="M194 180h3l180 302h148v-482h-131v302h-3l-180 -302h-148v482h131v-302zM297 674q89 0 133 34l42 -64q-53 -77 -175 -77q-120 0 -173 77l42 64q48 -34 131 -34z" />
    <glyph glyph-name="uni043A" unicode="&#x43a;" horiz-adv-x="534" 
d="M198 211h-2v-211h-133v482h133v-230h2l171 230h145v-7l-188 -237l197 -231v-7h-149z" />
    <glyph glyph-name="uni043B" unicode="&#x43b;" horiz-adv-x="595" 
d="M400 0v379h-148l-11 -134q-11 -148 -62 -200t-159 -52v109q46 0 69.5 31t29.5 123l12 226h401v-482h-132z" />
    <glyph glyph-name="uni043C" unicode="&#x43c;" horiz-adv-x="684" 
d="M341 231h2l151 251h127v-482h-131v276h-2l-93 -161h-107l-92 161h-2v-276h-131v482h127z" />
    <glyph glyph-name="uni043D" unicode="&#x43d;" horiz-adv-x="582" 
d="M388 0v188h-194v-188h-131v482h131v-189h194v189h131v-482h-131z" />
    <glyph glyph-name="uni043E" unicode="&#x43e;" horiz-adv-x="583" 
d="M175 241q0 -71 31.5 -108t84.5 -37q55 0 86 37t31 108t-31 108t-86 37q-53 0 -84.5 -37t-31.5 -108zM546 241q0 -110 -67 -183t-188 -73q-119 0 -186.5 73t-67.5 183t67.5 183t186.5 73q121 0 188 -73t67 -183z" />
    <glyph glyph-name="uni043F" unicode="&#x43f;" horiz-adv-x="582" 
d="M388 0v379h-194v-379h-131v482h456v-482h-131z" />
    <glyph glyph-name="uni0440" unicode="&#x440;" horiz-adv-x="586" 
d="M198 357v-232q45 -29 97 -29q58 0 86 38.5t28 106.5t-28 106.5t-86 38.5q-52 0 -97 -29zM63 482h99l19 -43h2q77 58 154 58q100 0 155 -72.5t55 -183.5t-55 -183.5t-155 -72.5q-31 0 -60.5 10t-40.5 16.5t-36 23.5h-2v-233h-135v680z" />
    <glyph glyph-name="uni0441" unicode="&#x441;" horiz-adv-x="479" 
d="M38 241q0 118 67 187t189 69q73 0 150 -29l-27 -103q-65 21 -107 21q-59 0 -96.5 -35.5t-37.5 -109.5q0 -75 36.5 -110t97.5 -35q42 0 107 21l27 -103q-77 -29 -150 -29q-122 0 -189 69t-67 187z" />
    <glyph glyph-name="uni0442" unicode="&#x442;" horiz-adv-x="459" 
d="M20 482h419v-103h-145v-379h-131v379h-143v103z" />
    <glyph glyph-name="uni0443" unicode="&#x443;" horiz-adv-x="530" 
d="M519 482v-10l-207 -531q-61 -154 -193 -154q-38 0 -79 9v107q29 -5 62 -5q62 0 82 53l20 54l-194 467v10h140l116 -328h3l110 328h140z" />
    <glyph glyph-name="uni0444" unicode="&#x444;" horiz-adv-x="865" 
d="M500 367v-252q40 -19 83 -19q57 0 80.5 37.5t23.5 107.5t-23.5 107.5t-80.5 37.5q-43 0 -83 -19zM365 115v252q-40 19 -83 19q-57 0 -80.5 -37.5t-23.5 -107.5t23.5 -107.5t80.5 -37.5q43 0 83 19zM500 465h2q52 32 123 32q100 0 150 -71.5t50 -184.5t-50 -184.5
t-150 -71.5q-66 0 -123 36h-2v-219h-135v219h-2q-57 -36 -123 -36q-100 0 -150 71.5t-50 184.5t50 184.5t150 71.5q73 0 123 -32h2v235h135v-235z" />
    <glyph glyph-name="uni0445" unicode="&#x445;" horiz-adv-x="539" 
d="M271 168h-2l-103 -168h-145v10l153 231l-153 231v10h145l103 -169h2l102 169h145v-10l-153 -231l153 -231v-10h-145z" />
    <glyph glyph-name="uni0446" unicode="&#x446;" horiz-adv-x="609" 
d="M561 -120h-91l-13 120h-394v482h131v-380h186v380h132v-380h69z" />
    <glyph glyph-name="uni0447" unicode="&#x447;" horiz-adv-x="520" 
d="M41 482h131v-198q0 -48 67 -48q61 0 87 17v229h131v-482h-131v152q-48 -22 -127 -22q-73 0 -115.5 41.5t-42.5 102.5v208z" />
    <glyph glyph-name="uni0448" unicode="&#x448;" horiz-adv-x="815" 
d="M752 0h-689v482h131v-380h148v380h131v-380h147v380h132v-482z" />
    <glyph glyph-name="uni0449" unicode="&#x449;" horiz-adv-x="849" 
d="M801 -120h-91l-13 120h-634v482h131v-380h148v380h131v-380h147v380h132v-380h69z" />
    <glyph glyph-name="uni044A" unicode="&#x44a;" horiz-adv-x="568" 
d="M23 379v103h226v-161h100q190 0 190 -162q0 -159 -190 -159h-231v379h-95zM249 217v-115h92q60 0 60 57q0 58 -60 58h-92z" />
    <glyph glyph-name="uni044B" unicode="&#x44b;" horiz-adv-x="739" 
d="M63 482h131v-162h100q190 0 190 -161q0 -159 -190 -159h-231v482zM194 217v-115h92q60 0 60 57q0 58 -60 58h-92zM676 0h-135v482h135v-482z" />
    <glyph glyph-name="uni044C" unicode="&#x44c;" horiz-adv-x="513" 
d="M63 482h131v-162h100q190 0 190 -161q0 -159 -190 -159h-231v482zM194 217v-115h92q60 0 60 57q0 58 -60 58h-92z" />
    <glyph glyph-name="uni044D" unicode="&#x44d;" horiz-adv-x="489" 
d="M451 241q0 -115 -68.5 -183.5t-194.5 -68.5q-87 0 -155 32l35 103q67 -26 120 -26q46 0 78 24t43 65h-189v106h189q-12 42 -43.5 67t-77.5 25q-50 0 -120 -27l-35 104q72 31 155 31q126 0 194.5 -68.5t68.5 -183.5z" />
    <glyph glyph-name="uni044E" unicode="&#x44e;" horiz-adv-x="845" 
d="M808 241q0 -110 -67 -183t-188 -73q-104 0 -169.5 56.5t-80.5 146.5h-109v-188h-131v482h131v-189h109q15 91 80 147.5t170 56.5q121 0 188 -73t67 -183zM437 241q0 -71 31.5 -108t84.5 -37q55 0 86 37t31 108t-31 108t-86 37q-53 0 -84.5 -37t-31.5 -108z" />
    <glyph glyph-name="uni044F" unicode="&#x44f;" horiz-adv-x="548" 
d="M485 0h-131v159h-53l-139 -159h-138v11l139 157q-112 30 -112 153q0 74 47.5 117.5t145.5 43.5h241v-482zM354 262v117h-103q-31 0 -46.5 -16.5t-15.5 -41.5t16 -42t46 -17h103z" />
    <glyph glyph-name="uni0450" unicode="&#x450;" horiz-adv-x="539" 
d="M497 202h-322q4 -51 35.5 -80t85.5 -29q71 0 154 30l31 -97q-86 -41 -195 -41q-120 0 -184 72.5t-64 184.5q0 108 64 181.5t177 73.5q111 0 168 -58.5t57 -149.5q0 -47 -7 -87zM175 286h205q1 5 1 15q0 98 -101 98q-48 0 -75.5 -33t-29.5 -80zM140 704v9h142l79 -136v-10
h-118z" />
    <glyph glyph-name="uni0451" unicode="&#x451;" horiz-adv-x="539" 
d="M497 202h-322q4 -51 35.5 -80t85.5 -29q71 0 154 30l31 -97q-86 -41 -195 -41q-120 0 -184 72.5t-64 184.5q0 108 64 181.5t177 73.5q111 0 168 -58.5t57 -149.5q0 -47 -7 -87zM175 286h205q1 5 1 15q0 98 -101 98q-48 0 -75.5 -33t-29.5 -80zM96 640q0 33 21.5 53.5
t56.5 20.5q36 0 57.5 -20.5t21.5 -53.5t-21.5 -53.5t-57.5 -20.5q-35 0 -56.5 20.5t-21.5 53.5zM316 640q0 33 21.5 53.5t56.5 20.5q36 0 57.5 -20.5t21.5 -53.5t-21.5 -53.5t-57.5 -20.5q-35 0 -56.5 20.5t-21.5 53.5z" />
    <glyph glyph-name="uni0452" unicode="&#x452;" horiz-adv-x="572" 
d="M198 0h-135v540h-50v103h50v57h135v-57h105v-103h-105v-98h2q60 55 144 55q88 0 135 -61t47 -181q0 -189 -100 -412l-111 51q73 175 73 361q0 70 -21 100.5t-65 30.5q-58 0 -104 -46v-340z" />
    <glyph glyph-name="uni0453" unicode="&#x453;" horiz-adv-x="445" 
d="M63 482h363v-103h-232v-379h-131v482zM399 713v-9l-103 -137h-118v10l79 136h142z" />
    <glyph glyph-name="uni0454" unicode="&#x454;" horiz-adv-x="487" 
d="M38 241q0 115 69 183.5t194 68.5q83 0 155 -31l-35 -104q-70 27 -120 27q-46 0 -77.5 -25t-43.5 -67h189v-106h-189q11 -41 43 -65t78 -24q53 0 120 26l35 -103q-68 -32 -155 -32q-125 0 -194 68.5t-69 183.5z" />
    <glyph glyph-name="uni0455" unicode="&#x455;" horiz-adv-x="468" 
d="M32 31l40 97q80 -41 155 -41q76 0 76 47q0 20 -15.5 31t-50.5 20l-63 15q-131 31 -131 142q0 72 53.5 113.5t146.5 41.5q95 0 180 -35l-37 -96q-78 29 -139 29q-73 0 -73 -44q0 -20 14.5 -30t47.5 -19l61 -15q137 -34 137 -144q0 -74 -55 -116t-148 -42q-109 0 -199 46z
" />
    <glyph glyph-name="uni0456" unicode="&#x456;" horiz-adv-x="261" 
d="M198 0h-135v482h135v-482zM53 640q0 33 21.5 53.5t56.5 20.5q36 0 57.5 -20.5t21.5 -53.5t-21.5 -53.5t-57.5 -20.5q-35 0 -56.5 20.5t-21.5 53.5z" />
    <glyph glyph-name="uni0457" unicode="&#x457;" horiz-adv-x="261" 
d="M198 0h-135v482h135v-482zM-58 640q0 33 21.5 53.5t56.5 20.5q36 0 57.5 -20.5t21.5 -53.5t-21.5 -53.5t-57.5 -20.5q-35 0 -56.5 20.5t-21.5 53.5zM162 640q0 33 21.5 53.5t56.5 20.5q36 0 57.5 -20.5t21.5 -53.5t-21.5 -53.5t-57.5 -20.5q-35 0 -56.5 20.5t-21.5 53.5z
" />
    <glyph glyph-name="uni0458" unicode="&#x458;" horiz-adv-x="261" 
d="M63 482h135v-513q0 -182 -173 -182q-33 0 -70 7v109q21 -5 53 -5q29 0 42 15t13 48v521zM53 640q0 33 21.5 53.5t56.5 20.5q36 0 57.5 -20.5t21.5 -53.5t-21.5 -53.5t-57.5 -20.5q-35 0 -56.5 20.5t-21.5 53.5z" />
    <glyph glyph-name="uni0459" unicode="&#x459;" horiz-adv-x="815" 
d="M131 482h365v-162h100q190 0 190 -161q0 -159 -190 -159h-231v379h-113l-11 -134q-11 -148 -62 -200t-159 -52v109q46 0 69.5 31t29.5 123zM496 217v-115h92q60 0 60 57q0 58 -60 58h-92z" />
    <glyph glyph-name="uni045A" unicode="&#x45a;" horiz-adv-x="821" 
d="M371 482h131v-162h100q190 0 190 -161q0 -159 -190 -159h-231v217h-177v-217h-131v482h131v-162h177v162zM502 217v-115h92q60 0 60 57q0 58 -60 58h-92z" />
    <glyph glyph-name="uni045B" unicode="&#x45b;" horiz-adv-x="581" 
d="M303 540h-105v-98h2q60 55 144 55q85 0 132 -52.5t47 -141.5v-303h-135v290q0 96 -86 96q-58 0 -104 -46v-340h-135v540h-50v103h50v57h135v-57h105v-103z" />
    <glyph glyph-name="uni045C" unicode="&#x45c;" horiz-adv-x="534" 
d="M198 211h-2v-211h-133v482h133v-230h2l171 230h145v-7l-188 -237l197 -231v-7h-149zM439 713v-9l-103 -137h-118v10l79 136h142z" />
    <glyph glyph-name="uni045D" unicode="&#x45d;" horiz-adv-x="588" 
d="M194 180h3l180 302h148v-482h-131v302h-3l-180 -302h-148v482h131v-302zM148 704v9h142l79 -136v-10h-118z" />
    <glyph glyph-name="uni045E" unicode="&#x45e;" horiz-adv-x="530" 
d="M519 482v-10l-207 -531q-61 -154 -193 -154q-38 0 -79 9v107q29 -5 62 -5q62 0 82 53l20 54l-194 467v10h140l116 -328h3l110 328h140zM273 674q89 0 133 34l42 -64q-53 -77 -175 -77q-120 0 -173 77l42 64q48 -34 131 -34z" />
    <glyph glyph-name="uni045F" unicode="&#x45f;" horiz-adv-x="575" 
d="M334 -120h-91l-14 120h-166v482h131v-380h186v380h132v-482h-165z" />
    <glyph glyph-name="uni0462" unicode="&#x462;" horiz-adv-x="714" 
d="M166 680h139v-50h194v-116h-194v-84h141q117 0 177 -55t60 -161q0 -105 -60 -159.5t-177 -54.5h-280v514h-139v116h139v50zM305 314v-198h131q102 0 102 98q0 100 -102 100h-131z" />
    <glyph glyph-name="uni0463" unicode="&#x463;" horiz-adv-x="564" 
d="M118 701h131v-219h159v-103h-159v-59h100q190 0 190 -161q0 -159 -190 -159h-231v379h-95v103h95v219zM249 217v-115h92q60 0 60 57q0 58 -60 58h-92z" />
    <glyph glyph-name="uni0472" unicode="&#x472;" horiz-adv-x="748" 
d="M702 340q0 -157 -83 -256t-244 -99q-110 0 -185.5 48.5t-109 126.5t-33.5 180t33.5 180t109 126.5t185.5 48.5q161 0 244 -99t83 -256zM375 104q157 0 179 184h-359q9 -86 53 -135t127 -49zM375 576q-158 0 -180 -178h358q-22 178 -178 178z" />
    <glyph glyph-name="uni0473" unicode="&#x473;" horiz-adv-x="583" 
d="M546 241q0 -110 -67 -183t-188 -73q-119 0 -186.5 73t-67.5 183t67.5 183t186.5 73q121 0 188 -73t67 -183zM291 96q44 0 73 24.5t39 72.5h-224q21 -97 112 -97zM291 386q-43 0 -72.5 -24.5t-39.5 -71.5h224q-19 96 -112 96z" />
    <glyph glyph-name="uni0474" unicode="&#x474;" horiz-adv-x="679" 
d="M662 695v-119q-29 0 -45.5 -14t-27.5 -47l-174 -515h-169l-240 670v10h151l173 -534h3l134 412q25 74 67.5 105.5t127.5 31.5z" />
    <glyph glyph-name="uni0475" unicode="&#x475;" horiz-adv-x="553" 
d="M530 493v-108q-37 0 -52 -44l-119 -341h-169l-178 475v7h145l117 -354h3l86 257q20 55 56 81.5t111 26.5z" />
    <glyph glyph-name="uni0490" unicode="&#x490;" horiz-adv-x="554" 
d="M410 821h108l17 -257h-317v-564h-139v680h314z" />
    <glyph glyph-name="uni0491" unicode="&#x491;" horiz-adv-x="443" 
d="M323 588h93l10 -209h-232v-379h-131v482h243z" />
    <glyph glyph-name="uni0E3F" unicode="&#xe3f;" 
d="M336 770v-92q189 -14 189 -182q0 -52 -21.5 -88t-54.5 -53v-2q101 -39 101 -159q0 -97 -50.5 -143.5t-163.5 -50.5v-108h-78v108h-187v680h187v90h78zM408 204q0 42 -16.5 62.5t-55.5 25.5v-175q38 4 55 24.5t17 62.5zM208 294v-178h50v178h-50zM208 564v-160h50v160h-50
zM394 483q0 37 -14 55.5t-44 23.5v-156q30 5 44 22.5t14 54.5z" />
    <glyph glyph-name="Wgrave" unicode="&#x1e80;" horiz-adv-x="1014" 
d="M995 680v-10l-185 -670h-165l-137 527h-1l-137 -527h-166l-185 670v10h149l115 -530h2l141 530h162l141 -530h2l114 530h150zM363 887v9h152l59 -136v-10h-128z" />
    <glyph glyph-name="wgrave" unicode="&#x1e81;" horiz-adv-x="840" 
d="M822 482v-10l-144 -472h-147l-110 347h-2l-110 -347h-147l-144 472v10h135l89 -334h2l103 334h146l103 -334h2l89 334h135zM259 704v9h142l79 -136v-10h-118z" />
    <glyph glyph-name="Wacute" unicode="&#x1e82;" horiz-adv-x="1014" 
d="M995 680v-10l-185 -670h-165l-137 527h-1l-137 -527h-166l-185 670v10h149l115 -530h2l141 530h162l141 -530h2l114 530h150zM653 896v-9l-83 -137h-128v10l59 136h152z" />
    <glyph glyph-name="wacute" unicode="&#x1e83;" horiz-adv-x="840" 
d="M822 482v-10l-144 -472h-147l-110 347h-2l-110 -347h-147l-144 472v10h135l89 -334h2l103 334h146l103 -334h2l89 334h135zM580 713v-9l-103 -137h-118v10l79 136h142z" />
    <glyph glyph-name="Wdieresis" unicode="&#x1e84;" horiz-adv-x="1014" 
d="M995 680v-10l-185 -670h-165l-137 527h-1l-137 -527h-166l-185 670v10h149l115 -530h2l141 530h162l141 -530h2l114 530h150zM299 819q0 33 21.5 53.5t56.5 20.5q36 0 57.5 -20.5t21.5 -53.5t-21.5 -53.5t-57.5 -20.5q-35 0 -56.5 20.5t-21.5 53.5zM560 819
q0 33 21.5 53.5t56.5 20.5q36 0 57.5 -20.5t21.5 -53.5t-21.5 -53.5t-57.5 -20.5q-35 0 -56.5 20.5t-21.5 53.5z" />
    <glyph glyph-name="wdieresis" unicode="&#x1e85;" horiz-adv-x="840" 
d="M822 482v-10l-144 -472h-147l-110 347h-2l-110 -347h-147l-144 472v10h135l89 -334h2l103 334h146l103 -334h2l89 334h135zM232 640q0 33 21.5 53.5t56.5 20.5q36 0 57.5 -20.5t21.5 -53.5t-21.5 -53.5t-57.5 -20.5q-35 0 -56.5 20.5t-21.5 53.5zM452 640q0 33 21.5 53.5
t56.5 20.5q36 0 57.5 -20.5t21.5 -53.5t-21.5 -53.5t-57.5 -20.5q-35 0 -56.5 20.5t-21.5 53.5z" />
    <glyph glyph-name="uni1E9E" unicode="&#x1e9e;" horiz-adv-x="696" 
d="M71 0v381q0 147 69.5 230.5t215.5 83.5q108 0 235 -70v-97l-110 -137v-2q85 -10 132 -59t47 -130q0 -98 -64.5 -156.5t-170.5 -58.5q-56 0 -120 10v116q60 -10 94 -10q114 0 114 100q0 42 -25.5 68.5t-76.5 26.5h-73v88l124 164q-50 27 -113 27q-68 0 -103.5 -47.5
t-35.5 -138.5v-389h-139z" />
    <glyph glyph-name="Ygrave" unicode="&#x1ef2;" horiz-adv-x="604" 
d="M-3 680h152l151 -280h2l151 280h152v-10l-234 -396v-274h-139v274l-235 396v10zM154 887v9h152l59 -136v-10h-128z" />
    <glyph glyph-name="ygrave" unicode="&#x1ef3;" horiz-adv-x="530" 
d="M519 482v-10l-207 -531q-61 -154 -193 -154q-38 0 -79 9v107q29 -5 62 -5q62 0 82 53l20 54l-194 467v10h140l116 -328h3l110 328h140zM107 704v9h142l79 -136v-10h-118z" />
    <glyph glyph-name="endash" unicode="&#x2013;" horiz-adv-x="584" 
d="M522 220h-460v103h460v-103z" />
    <glyph glyph-name="emdash" unicode="&#x2014;" horiz-adv-x="920" 
d="M858 220h-796v103h796v-103z" />
    <glyph glyph-name="quoteleft" unicode="&#x2018;" horiz-adv-x="280" 
d="M242 680v-10l-66 -293h-135v10l100 293h101z" />
    <glyph glyph-name="quoteright" unicode="&#x2019;" horiz-adv-x="277" 
d="M47 377v10l66 293h135v-10l-100 -293h-101z" />
    <glyph glyph-name="quotesinglbase" unicode="&#x201a;" horiz-adv-x="270" 
d="M15 -161v10l66 293h135v-10l-100 -293h-101z" />
    <glyph glyph-name="quotedblleft" unicode="&#x201c;" horiz-adv-x="489" 
d="M451 680v-10l-66 -293h-135v10l100 293h101zM242 680v-10l-66 -293h-135v10l100 293h101z" />
    <glyph glyph-name="quotedblright" unicode="&#x201d;" horiz-adv-x="487" 
d="M47 377v10l66 293h135v-10l-100 -293h-101zM257 377v10l66 293h135v-10l-100 -293h-101z" />
    <glyph glyph-name="quotedblbase" unicode="&#x201e;" horiz-adv-x="480" 
d="M15 -161v10l66 293h135v-10l-100 -293h-101zM225 -161v10l66 293h135v-10l-100 -293h-101z" />
    <glyph glyph-name="dagger" unicode="&#x2020;" horiz-adv-x="463" 
d="M27 482h161v218h89v-218h159v-85h-159v-595h-89v595h-161v85z" />
    <glyph glyph-name="daggerdbl" unicode="&#x2021;" horiz-adv-x="494" 
d="M43 482h161v218h89v-218h158v-85h-158v-292h158v-85h-158v-218h-89v218h-161v85h161v292h-161v85z" />
    <glyph glyph-name="bullet" unicode="&#x2022;" horiz-adv-x="376" 
d="M75 291q0 51 31 82.5t82 31.5t82 -31.5t31 -82.5t-31 -82.5t-82 -31.5t-82 31.5t-31 82.5z" />
    <glyph glyph-name="ellipsis" unicode="&#x2026;" horiz-adv-x="775" 
d="M51 71q0 39 23 62.5t62 23.5t62 -23.5t23 -62.5t-23 -62.5t-62 -23.5t-62 23.5t-23 62.5zM303 71q0 39 23 62.5t62 23.5t62 -23.5t23 -62.5t-23 -62.5t-62 -23.5t-62 23.5t-23 62.5zM554 71q0 39 23 62.5t62 23.5t62 -23.5t23 -62.5t-23 -62.5t-62 -23.5t-62 23.5
t-23 62.5z" />
    <glyph glyph-name="perthousand" unicode="&#x2030;" horiz-adv-x="1163" 
d="M923 175q0 -102 55 -102q59 0 59 102q0 104 -59 104q-55 0 -55 -104zM1133 175q0 -84 -41 -133.5t-114 -49.5q-70 0 -111 50t-41 133q0 84 41 134.5t111 50.5q73 0 114 -50t41 -135zM130 503q0 -102 55 -102q59 0 59 102q0 104 -59 104q-55 0 -55 -104zM340 503
q0 -84 -41 -133.5t-114 -49.5q-70 0 -111 50t-41 133q0 84 41 134.5t111 50.5q73 0 114 -50t41 -135zM567 175q0 -102 55 -102q59 0 59 102q0 104 -59 104q-55 0 -55 -104zM777 175q0 -84 -41 -133.5t-114 -49.5q-70 0 -111 50t-41 133q0 84 41 134.5t111 50.5q73 0 114 -50
t41 -135zM231 0h-104v10l456 670h104v-10z" />
    <glyph glyph-name="guilsinglleft" unicode="&#x2039;" horiz-adv-x="321" 
d="M34 264v12l161 219l83 -49l-107 -177l108 -176l-84 -48z" />
    <glyph glyph-name="guilsinglright" unicode="&#x203a;" horiz-adv-x="322" 
d="M288 276v-12l-161 -219l-83 49l107 177l-108 176l84 48z" />
    <glyph glyph-name="fraction" unicode="&#x2044;" horiz-adv-x="160" 
d="M-96 0h-104v10l456 670h104v-10z" />
    <glyph glyph-name="zerosuperior" unicode="&#x2070;" horiz-adv-x="359" 
d="M123 623q0 -102 55 -102q59 0 59 102q0 104 -59 104q-55 0 -55 -104zM333 623q0 -84 -41 -133.5t-114 -49.5q-70 0 -111 50t-41 133q0 84 41 134.5t111 50.5q73 0 114 -50t41 -135z" />
    <glyph glyph-name="foursuperior" unicode="&#x2074;" horiz-adv-x="340" 
d="M187 692h91v-93h42v-76h-42v-75h-91v75h-172v68l90 209h93l-81 -200v-1h70v93z" />
    <glyph glyph-name="fivesuperior" unicode="&#x2075;" horiz-adv-x="314" 
d="M54 595l-12 13l18 192h216v-77h-135l-4 -45h16q136 0 136 -115q0 -58 -41 -90.5t-118 -32.5q-67 0 -115 17l21 81q43 -18 99 -18t56 42q0 38 -58 38q-37 0 -79 -5z" />
    <glyph glyph-name="sixsuperior" unicode="&#x2076;" horiz-adv-x="331" 
d="M256 800v-5l-93 -119v-1q26 7 48 7q42 0 73 -30t31 -84q0 -57 -39.5 -92.5t-104.5 -35.5q-73 0 -110.5 37.5t-37.5 90.5q0 46 31 91l96 141h106zM219 566q0 47 -48 47q-52 0 -52 -47t52 -47q48 0 48 47z" />
    <glyph glyph-name="sevensuperior" unicode="&#x2077;" horiz-adv-x="303" 
d="M43 448v5l147 269v1h-172v77h272v-71l-149 -281h-98z" />
    <glyph glyph-name="eightsuperior" unicode="&#x2078;" horiz-adv-x="344" 
d="M172 515q54 0 54 41q0 40 -54 40q-55 0 -55 -40q0 -41 55 -41zM172 808q59 0 95.5 -27t36.5 -71q0 -55 -54 -77v-1q69 -21 69 -87q0 -48 -40.5 -76.5t-106.5 -28.5q-67 0 -107 28.5t-40 76.5q0 65 70 87v1q-55 22 -55 77q0 44 36 71t96 27zM172 667q45 0 45 36t-45 36
q-43 0 -43 -36t43 -36z" />
    <glyph glyph-name="ninesuperior" unicode="&#x2079;" horiz-adv-x="331" 
d="M75 448v6l93 118v1q-19 -7 -47 -7q-43 0 -74 30.5t-31 83.5q0 58 40 93t106 35q71 0 108.5 -37.5t37.5 -90.5q0 -46 -31 -91l-96 -141h-106zM113 681q0 -46 49 -46q50 0 50 46q0 49 -50 49q-49 0 -49 -49z" />
    <glyph glyph-name="plussuperior" unicode="&#x207a;" horiz-adv-x="265" 
d="M170 733v-67h68v-77h-68v-67h-77v67h-66v77h66v67h77z" />
    <glyph glyph-name="minussuperior" unicode="&#x207b;" horiz-adv-x="287" 
d="M249 589h-211v77h211v-77z" />
    <glyph glyph-name="parenleftsuperior" unicode="&#x207d;" horiz-adv-x="179" 
d="M21 623q0 125 85 254l56 -29q-55 -119 -55 -225q0 -104 55 -225l-56 -28q-85 129 -85 253z" />
    <glyph glyph-name="parenrightsuperior" unicode="&#x207e;" horiz-adv-x="179" 
d="M158 623q0 -124 -85 -253l-56 28q55 121 55 225q0 106 -55 225l56 29q85 -129 85 -254z" />
    <glyph glyph-name="zeroinferior" unicode="&#x2080;" horiz-adv-x="359" 
d="M123 55q0 -102 55 -102q59 0 59 102q0 104 -59 104q-55 0 -55 -104zM333 55q0 -84 -41 -133.5t-114 -49.5q-70 0 -111 50t-41 133q0 84 41 134.5t111 50.5q73 0 114 -50t41 -135z" />
    <glyph glyph-name="oneinferior" unicode="&#x2081;" horiz-adv-x="261" 
d="M24 90h-9v84l130 58h70v-352h-92v254h-2z" />
    <glyph glyph-name="twoinferior" unicode="&#x2082;" horiz-adv-x="328" 
d="M159 -42v-2h141v-76h-275v70l147 117q26 21 26 50q0 19 -12 31.5t-32 12.5q-35 0 -77 -42l-53 60q54 61 135 61q60 0 98 -30.5t38 -86.5q0 -61 -68 -112z" />
    <glyph glyph-name="threeinferior" unicode="&#x2083;" horiz-adv-x="324" 
d="M78 17v77h69q45 0 45 33q0 34 -50 34q-51 0 -90 -17l-26 73q59 23 119 23q69 0 106 -26t37 -74q0 -34 -16.5 -53t-39.5 -22v-1q66 -20 66 -88q0 -104 -158 -104q-69 0 -123 27l24 75q44 -22 98 -22q63 0 63 37q0 17 -12 22.5t-42 5.5h-70z" />
    <glyph glyph-name="fourinferior" unicode="&#x2084;" horiz-adv-x="340" 
d="M187 124h91v-93h42v-76h-42v-75h-91v75h-172v68l90 209h93l-81 -200v-1h70v93z" />
    <glyph glyph-name="fiveinferior" unicode="&#x2085;" horiz-adv-x="313" 
d="M53 27l-12 13l18 192h216v-77h-135l-4 -45h16q136 0 136 -115q0 -58 -41 -90.5t-118 -32.5q-67 0 -115 17l21 81q43 -18 99 -18t56 42q0 38 -58 38q-37 0 -79 -5z" />
    <glyph glyph-name="sixinferior" unicode="&#x2086;" horiz-adv-x="332" 
d="M256 232v-5l-93 -119v-1q26 7 48 7q42 0 73 -30t31 -84q0 -57 -39.5 -92.5t-104.5 -35.5q-73 0 -110.5 37.5t-37.5 90.5q0 46 31 91l96 141h106zM219 -2q0 47 -48 47q-52 0 -52 -47t52 -47q48 0 48 47z" />
    <glyph glyph-name="seveninferior" unicode="&#x2087;" horiz-adv-x="302" 
d="M42 -120v5l147 269v1h-172v77h272v-71l-149 -281h-98z" />
    <glyph glyph-name="eightinferior" unicode="&#x2088;" horiz-adv-x="344" 
d="M172 -53q54 0 54 41q0 40 -54 40q-55 0 -55 -40q0 -41 55 -41zM172 240q59 0 95.5 -27t36.5 -71q0 -55 -54 -77v-1q69 -21 69 -87q0 -48 -40.5 -76.5t-106.5 -28.5q-67 0 -107 28.5t-40 76.5q0 65 70 87v1q-55 22 -55 77q0 44 36 71t96 27zM172 99q45 0 45 36t-45 36
q-43 0 -43 -36t43 -36z" />
    <glyph glyph-name="nineinferior" unicode="&#x2089;" horiz-adv-x="332" 
d="M76 -120v6l93 118v1q-19 -7 -47 -7q-43 0 -74 30.5t-31 83.5q0 58 40 93t106 35q71 0 108.5 -37.5t37.5 -90.5q0 -46 -31 -91l-96 -141h-106zM114 113q0 -46 49 -46q50 0 50 46q0 49 -50 49q-49 0 -49 -49z" />
    <glyph glyph-name="parenleftinferior" unicode="&#x208d;" horiz-adv-x="180" 
d="M22 55q0 125 85 254l56 -29q-55 -119 -55 -225q0 -104 55 -225l-56 -28q-85 129 -85 253z" />
    <glyph glyph-name="parenrightinferior" unicode="&#x208e;" horiz-adv-x="180" 
d="M158 55q0 -124 -85 -253l-56 28q55 121 55 225q0 106 -55 225l56 29q85 -129 85 -254z" />
    <glyph glyph-name="uni20A1" unicode="&#x20a1;" 
d="M511 770l-18 -95q27 -9 62 -24l-37 -110q-30 12 -47 18l-85 -455q67 5 132 35l37 -110q-93 -44 -190 -44h-2l-18 -93h-68l19 99q-20 4 -48 11l-20 -110h-69l26 139q-72 44 -109.5 123.5t-37.5 185.5q0 147 70.5 240t201.5 111l15 79h68l-15 -75q31 -2 49 -5l15 80h69z
M356 576l-84 -447q31 -16 46 -20l87 465q-26 2 -40 2h-9zM183 340q0 -94 33 -150l68 368q-101 -53 -101 -218z" />
    <glyph glyph-name="lira" unicode="&#x20a4;" horiz-adv-x="569" 
d="M438 207h-163q-10 -50 -49 -89v-2h293v-116h-456v96q69 38 69 101v10h-79v103h68l-8 62h-60v103h53v12q0 108 58 158t177 50q98 0 193 -45l-37 -110q-84 36 -156 36q-46 0 -68 -20t-22 -69v-12h187v-103h-177l9 -62h168v-103z" />
    <glyph glyph-name="uni20A6" unicode="&#x20a6;" horiz-adv-x="683" 
d="M659 218h-49v-218h-195l-85 218h-131v-218h-127v218h-48v89h48v69h-48v89h48v215h196l83 -215h132v215h127v-215h49v-89h-49v-69h49v-89zM385 376l26 -69h75l-2 69h-99zM268 376h-73l3 -69h97zM491 101h3l-5 117h-43zM189 579h-3l5 -114h42z" />
    <glyph glyph-name="rupee" unicode="&#x20a8;" 
d="M518 405h-75q-12 -70 -60.5 -111.5t-132.5 -49.5l237 -228v-16h-160l-260 261v86h112q105 0 121 58h-248l30 101h218q-16 58 -121 58h-127l30 116h466l-30 -101h-141v-2q45 -27 61 -71h110z" />
    <glyph glyph-name="uni20AA" unicode="&#x20aa;" horiz-adv-x="750" 
d="M520 194h-119v227q0 85 -25 114t-96 29h-92v-564h-139v680h231q141 0 190.5 -59.5t49.5 -202.5v-224zM567 681h139v-419q0 -139 -58 -200.5t-202 -61.5h-211v486h119v-370h92q71 0 96 29t25 114v422z" />
    <glyph glyph-name="dong" unicode="&#x20ab;" 
d="M544 568h-44v-438h-107l-13 27h-2q-64 -39 -139 -39q-93 0 -145.5 59.5t-52.5 149.5q0 89 53 148.5t145 59.5q68 0 124 -31h2v64h-96v88h96v44h135v-44h44v-88zM365 243v166q-43 17 -83 17q-103 0 -103 -99q0 -101 103 -101q27 0 83 17zM499 0h-425v88h425v-88z" />
    <glyph glyph-name="Euro" unicode="&#x20ac;" 
d="M432 204h-190q45 -100 144 -100q74 0 145 35l37 -110q-90 -44 -182 -44q-115 0 -187.5 57.5t-100.5 161.5h-82l31 101h34q-1 12 -1 35q0 22 1 35h-65l30 101h52q28 104 100.5 161.5t187.5 57.5q92 0 182 -44l-37 -110q-71 35 -145 35q-48 0 -86.5 -26t-58.5 -74h264
l-29 -101h-257q-1 -13 -1 -35q0 -23 1 -35h242z" />
    <glyph glyph-name="uni20AD" unicode="&#x20ad;" 
d="M537 283h-146l182 -273v-10h-160l-169 283h-27v-283h-139v283h-53v103h53v294h139v-294h27l163 294h155v-10l-174 -284h149v-103z" />
    <glyph glyph-name="uni20AE" unicode="&#x20ae;" 
d="M461 326v-89l-97 -34v-203h-139v156l-96 -33v89l96 33v61l-96 -33v89l96 33v169h-191v116h522v-116h-192v-122l97 34v-89l-97 -34v-61z" />
    <glyph glyph-name="uni20B1" unicode="&#x20b1;" 
d="M568 305h-66q-51 -156 -231 -156h-49v-149h-139v305h-48v86h48v49h-48v86h48v154h188q181 0 232 -154h65v-86h-50q1 -7 1 -25q0 -17 -1 -24h50v-86zM380 415q0 18 -1 25h-161v-49h161q1 7 1 24zM218 263h49q56 0 85 44h-134v-44zM218 566v-42h133q-30 42 -84 42h-49z" />
    <glyph glyph-name="uni20B2" unicode="&#x20b2;" 
d="M341 770v-75q115 -5 189 -49l-37 -108q-72 37 -152 38v-472q50 7 69 18v133l-39 11v99h168v-321q-80 -52 -198 -58v-94h-82v98q-106 18 -164 112t-58 238q0 86 23.5 157t74.5 123t124 68v82h82zM183 340q0 -187 76 -226v448q-76 -45 -76 -222z" />
    <glyph glyph-name="uni20B4" unicode="&#x20b4;" 
d="M542 207h-330q-2 -14 -2 -19q0 -86 99 -86q38 0 92 18t83 39l40 -109q-41 -26 -102.5 -45.5t-112.5 -19.5q-111 0 -171.5 54.5t-60.5 145.5q0 15 1 22h-35v98h104q7 6 25.5 21t26.5 21l42 30h-198v98h330q2 5 2 24q0 79 -95 79q-27 0 -71 -12.5t-77 -30.5l-40 111
q45 23 97.5 36t90.5 13q111 0 169.5 -54.5t58.5 -142.5q0 -9 -2 -23h36v-98h-106q-42 -34 -56 -43l-44 -29h206v-98z" />
    <glyph glyph-name="uni20B5" unicode="&#x20b5;" 
d="M380 770v-75q94 -5 175 -44l-37 -110q-68 31 -138 35v-472q70 4 138 35l37 -110q-81 -39 -175 -44v-93h-88v99q-123 22 -189 114t-66 235q0 142 66 234.5t189 114.5v81h88zM182 340q0 -84 28 -141.5t82 -80.5v444q-53 -23 -81.5 -81t-28.5 -141z" />
    <glyph glyph-name="afii61289" unicode="&#x2113;" horiz-adv-x="385" 
d="M326 110l29 -84q-48 -41 -119 -41q-55 0 -86 32t-31 96v107q-18 -18 -58 -47l-41 74q63 46 99 86v215q0 84 35 125.5t95 41.5q54 0 83 -34.5t29 -99.5q0 -152 -154 -297v-147q0 -57 44 -57q37 0 75 30zM271 569q0 52 -33 52q-31 0 -31 -55v-167q30 32 47 79t17 91z" />
    <glyph glyph-name="afii61352" unicode="&#x2116;" horiz-adv-x="1106" 
d="M515 211h3v469h139v-680h-147l-289 469h-3v-469h-139v680h147zM828 502q0 -78 69 -78t69 78t-69 78t-69 -78zM1066 502q0 -69 -45 -115t-124 -46q-78 0 -123.5 46t-45.5 115t45.5 115t123.5 46q79 0 124 -46t45 -115zM1038 196h-283v87h283v-87z" />
    <glyph glyph-name="uni2117" unicode="&#x2117;" horiz-adv-x="802" 
d="M46 340q0 151 102 253t253 102t253 -102t102 -253t-102 -253t-253 -102t-253 102t-102 253zM117 340q0 -122 84 -204.5t207 -82.5q121 0 199 82t78 205t-81 205t-203 82t-203 -82t-81 -205zM371 153h-91v374h152q69 0 101 -35.5t32 -93.5t-32.5 -93.5t-100.5 -35.5h-61
v-116zM371 453v-110h50q49 0 49 55q0 28 -11.5 41.5t-37.5 13.5h-50z" />
    <glyph glyph-name="trademark" unicode="&#x2122;" horiz-adv-x="738" 
d="M54 700h245v-64h-82v-216h-80v216h-83v64zM507 557h1l73 143h87v-280h-81v172h-1l-45 -115h-66l-46 115h-1v-172h-79v280h88z" />
    <glyph glyph-name="Omega" unicode="&#x2126;" horiz-adv-x="774" 
d="M55 0v116h142q-60 33 -99 101.5t-39 166.5q0 60 20 114t58.5 99t103 71.5t146.5 26.5q81 0 145.5 -26.5t103.5 -71.5t59 -99.5t20 -113.5q0 -97 -39.5 -165.5t-99.5 -102.5h142v-116h-288v102q44 28 73 61t47.5 84.5t18.5 117.5q0 91 -44 151t-138 60t-138.5 -60
t-44.5 -151q0 -66 18.5 -117.5t47.5 -84.5t73 -61v-102h-288z" />
    <glyph glyph-name="estimated" unicode="&#x212e;" horiz-adv-x="656" 
d="M540 133l37 -27q-47 -65 -104 -93t-138 -28q-126 0 -205 88t-79 217q0 130 78.5 216t205.5 86q125 0 204 -81t83 -211l-7 -10h-445v-201q65 -62 165 -62q135 0 205 106zM501 330v161q-67 63 -166 63q-103 0 -165 -63v-161h331z" />
    <glyph glyph-name="onethird" unicode="&#x2153;" horiz-adv-x="773" 
d="M196 0h-104v10l456 670h104v-10zM516 137v77h69q45 0 45 33q0 34 -50 34q-51 0 -90 -17l-26 73q59 23 119 23q69 0 106 -26t37 -74q0 -34 -16.5 -53t-39.5 -22v-1q66 -20 66 -88q0 -104 -158 -104q-69 0 -123 27l24 75q44 -22 98 -22q63 0 63 37q0 17 -12 22.5t-42 5.5
h-70zM39 538h-9v84l130 58h70v-352h-92v254h-2z" />
    <glyph glyph-name="twothirds" unicode="&#x2154;" horiz-adv-x="824" 
d="M248 0h-104v10l456 670h104v-10zM568 137v77h69q45 0 45 33q0 34 -50 34q-51 0 -90 -17l-26 73q59 23 119 23q69 0 106 -26t37 -74q0 -34 -16.5 -53t-39.5 -22v-1q66 -20 66 -88q0 -104 -158 -104q-69 0 -123 27l24 75q44 -22 98 -22q63 0 63 37q0 17 -12 22.5t-42 5.5
h-70zM176 404v-2h141v-76h-275v70l147 117q26 21 26 50q0 19 -12 31.5t-32 12.5q-35 0 -77 -42l-53 60q54 61 135 61q60 0 98 -30.5t38 -86.5q0 -61 -68 -112z" />
    <glyph glyph-name="oneeighth" unicode="&#x215b;" horiz-adv-x="773" 
d="M39 538h-9v84l130 58h70v-352h-92v254h-2zM196 0h-104v10l456 670h104v-10zM592 67q54 0 54 41q0 40 -54 40q-55 0 -55 -40q0 -41 55 -41zM592 360q59 0 95.5 -27t36.5 -71q0 -55 -54 -77v-1q69 -21 69 -87q0 -48 -40.5 -76.5t-106.5 -28.5q-67 0 -107 28.5t-40 76.5
q0 65 70 87v1q-55 22 -55 77q0 44 36 71t96 27zM592 219q45 0 45 36t-45 36q-43 0 -43 -36t43 -36z" />
    <glyph glyph-name="threeeighths" unicode="&#x215c;" horiz-adv-x="813" 
d="M237 0h-104v10l456 670h104v-10zM633 67q54 0 54 41q0 40 -54 40q-55 0 -55 -40q0 -41 55 -41zM633 360q59 0 95.5 -27t36.5 -71q0 -55 -54 -77v-1q69 -21 69 -87q0 -48 -40.5 -76.5t-106.5 -28.5q-67 0 -107 28.5t-40 76.5q0 65 70 87v1q-55 22 -55 77q0 44 36 71t96 27
zM633 219q45 0 45 36t-45 36q-43 0 -43 -36t43 -36zM94 462v77h69q45 0 45 33q0 34 -50 34q-51 0 -90 -17l-26 73q59 23 119 23q69 0 106 -26t37 -74q0 -34 -16.5 -53t-39.5 -22v-1q66 -20 66 -88q0 -104 -158 -104q-69 0 -123 27l24 75q44 -22 98 -22q63 0 63 37
q0 17 -12 22.5t-42 5.5h-70z" />
    <glyph glyph-name="fiveeighths" unicode="&#x215d;" horiz-adv-x="796" 
d="M220 0h-104v10l456 670h104v-10zM616 67q54 0 54 41q0 40 -54 40q-55 0 -55 -40q0 -41 55 -41zM616 360q59 0 95.5 -27t36.5 -71q0 -55 -54 -77v-1q69 -21 69 -87q0 -48 -40.5 -76.5t-106.5 -28.5q-67 0 -107 28.5t-40 76.5q0 65 70 87v1q-55 22 -55 77q0 44 36 71t96 27
zM616 219q45 0 45 36t-45 36q-43 0 -43 -36t43 -36zM70 475l-12 13l18 192h216v-77h-135l-4 -45h16q136 0 136 -115q0 -58 -41 -90.5t-118 -32.5q-67 0 -115 17l21 81q43 -18 99 -18t56 42q0 38 -58 38q-37 0 -79 -5z" />
    <glyph glyph-name="seveneighths" unicode="&#x215e;" horiz-adv-x="754" 
d="M178 0h-104v10l456 670h104v-10zM574 67q54 0 54 41q0 40 -54 40q-55 0 -55 -40q0 -41 55 -41zM574 360q59 0 95.5 -27t36.5 -71q0 -55 -54 -77v-1q69 -21 69 -87q0 -48 -40.5 -76.5t-106.5 -28.5q-67 0 -107 28.5t-40 76.5q0 65 70 87v1q-55 22 -55 77q0 44 36 71t96 27
zM574 219q45 0 45 36t-45 36q-43 0 -43 -36t43 -36zM63 328v5l147 269v1h-172v77h272v-71l-149 -281h-98z" />
    <glyph glyph-name="arrowleft" unicode="&#x2190;" horiz-adv-x="892" 
d="M40 339l380 380l89 -89l-248 -232h631v-118h-631l248 -232l-89 -89z" />
    <glyph glyph-name="arrowup" unicode="&#x2191;" horiz-adv-x="892" 
d="M465 763l380 -380l-89 -89l-232 249v-631h-119l1 631l-232 -249l-89 89z" />
    <glyph glyph-name="arrowright" unicode="&#x2192;" horiz-adv-x="892" 
d="M892 339l-380 -380l-89 89l248 232h-631v118h631l-248 232l89 89z" />
    <glyph glyph-name="arrowdown" unicode="&#x2193;" horiz-adv-x="892" 
d="M465 -88l-380 380l89 89l232 -249v631h119l-1 -631l232 249l89 -89z" />
    <glyph glyph-name="uni2196" unicode="&#x2196;" horiz-adv-x="888" 
d="M159 662h538v-126l-339 11l446 -445l-85 -85l-446 447l12 -340h-126v538z" />
    <glyph glyph-name="uni2197" unicode="&#x2197;" horiz-adv-x="888" 
d="M804 662v-538h-126l11 339l-445 -446l-85 85l447 446l-340 -11v125h538z" />
    <glyph glyph-name="uni2198" unicode="&#x2198;" horiz-adv-x="888" 
d="M804 18h-538v126l339 -11l-446 445l85 85l446 -447l-12 340h126v-538z" />
    <glyph glyph-name="uni2199" unicode="&#x2199;" horiz-adv-x="888" 
d="M159 18v538h126l-11 -339l445 446l85 -85l-447 -446l340 12v-126h-538z" />
    <glyph glyph-name="partialdiff" unicode="&#x2202;" horiz-adv-x="604" 
d="M158 582l18 118q185 0 282.5 -99.5t97.5 -269.5q0 -155 -75 -250.5t-206 -95.5q-112 0 -177.5 70.5t-65.5 175.5q0 117 63 183.5t152 66.5q46 0 83.5 -14t53.5 -27t35 -33l2 2q-27 168 -263 173zM416 292q-58 71 -129 71q-52 0 -81 -36.5t-29 -95.5q0 -55 30 -91.5
t79 -36.5q59 0 92.5 52.5t37.5 136.5z" />
    <glyph glyph-name="Delta" unicode="&#x2206;" horiz-adv-x="708" 
d="M683 5v-5h-658v5l248 675h162zM355 538h-3l-145 -422h295z" />
    <glyph glyph-name="product" unicode="&#x220f;" horiz-adv-x="714" 
d="M500 -198v782h-286v-782h-139v898h564v-898h-139z" />
    <glyph glyph-name="summation" unicode="&#x2211;" horiz-adv-x="608" 
d="M32 -198v103l274 353l-258 338v104h509v-116h-353l253 -322l-270 -344h385v-116h-540z" />
    <glyph glyph-name="minus" unicode="&#x2212;" 
d="M40 323h510v-103h-510v103z" />
    <glyph glyph-name="uni2215" unicode="&#x2215;" horiz-adv-x="560" 
d="M104 0h-104v10l456 670h104v-10z" />
    <glyph glyph-name="uni2219" unicode="&#x2219;" horiz-adv-x="278" 
d="M54 291q0 39 23 62.5t62 23.5t62 -23.5t23 -62.5t-23 -62.5t-62 -23.5t-62 23.5t-23 62.5z" />
    <glyph glyph-name="radical" unicode="&#x221a;" horiz-adv-x="640" 
d="M8 212v10h127l121 -280h2l260 738h124l-313 -878h-140z" />
    <glyph glyph-name="infinity" unicode="&#x221e;" horiz-adv-x="743" 
d="M538 113q-47 0 -82.5 18.5t-82.5 69.5q-48 -50 -86 -69t-83 -19q-67 0 -111 44.5t-44 113.5q0 70 44 113.5t113 43.5q44 0 80 -18.5t86 -70.5q52 53 86 71t79 18q68 0 112.5 -43t44.5 -114q0 -70 -44 -114t-112 -44zM528 211q26 0 41.5 17t15.5 43q0 24 -15.5 41.5
t-41.5 17.5q-33 0 -86 -60q31 -33 49.5 -46t36.5 -13zM216 211q33 0 85 60q-30 33 -48.5 46t-36.5 13q-27 0 -42.5 -17t-15.5 -42q0 -27 15.5 -43.5t42.5 -16.5z" />
    <glyph glyph-name="integral" unicode="&#x222b;" horiz-adv-x="520" 
d="M141 -48l103 584q28 159 182 159q53 0 90 -7l-15 -111q-30 7 -64 7q-28 0 -40.5 -11t-18.5 -43l-103 -584q-28 -159 -182 -159q-54 0 -89 7l15 111q30 -7 62 -7q28 0 41 11t19 43z" />
    <glyph glyph-name="approxequal" unicode="&#x2248;" 
d="M88 335l-48 63q46 65 130 65q44 0 133 -27.5t125 -27.5q44 0 71 24l48 -63q-47 -64 -129 -64q-39 0 -130.5 27.5t-128.5 27.5q-46 0 -71 -25zM88 110l-48 63q46 65 130 65q44 0 133 -27.5t125 -27.5q44 0 71 24l48 -63q-47 -64 -129 -64q-39 0 -130.5 27.5t-128.5 27.5
q-46 0 -71 -25z" />
    <glyph glyph-name="notequal" unicode="&#x2260;" 
d="M237 0h-110v10l41 97h-109v103h152l52 123h-204v103h248l44 105h110v-10l-40 -95h108v-103h-152l-52 -123h204v-103h-247z" />
    <glyph glyph-name="lessequal" unicode="&#x2264;" 
d="M544 136h-10l-500 195v99l500 195h10v-109l-380 -134v-3l380 -134v-109zM34 103h510v-103h-510v103z" />
    <glyph glyph-name="greaterequal" unicode="&#x2265;" 
d="M55 136h-10v109l380 134v3l-380 134v109h10l500 -195v-99zM45 103h510v-103h-510v103z" />
    <glyph glyph-name="lozenge" unicode="&#x25ca;" horiz-adv-x="581" 
d="M241 0l-215 327l212 353h101l216 -333l-211 -347h-103zM294 126l127 214l-133 213l-128 -221z" />
    <glyph glyph-name="whitecircle" unicode="&#x25cb;" horiz-adv-x="800" 
d="M60 340q0 145 97.5 242.5t242.5 97.5t242.5 -97.5t97.5 -242.5t-97.5 -242.5t-242.5 -97.5t-242.5 97.5t-97.5 242.5zM125 340q0 -117 79 -196.5t196 -79.5t195.5 79.5t78.5 196.5t-78.5 196.5t-195.5 79.5t-196 -79.5t-79 -196.5z" />
    <glyph glyph-name="blackcircle" unicode="&#x25cf;" horiz-adv-x="800" 
d="M60 341q0 144 97.5 241.5t241.5 97.5q145 0 243 -97.5t98 -241.5q0 -145 -98 -243t-243 -98q-144 0 -241.5 98t-97.5 243z" />
    <glyph glyph-name="uni25DC" unicode="&#x25dc;" horiz-adv-x="340" 
d="M340 680v-64q-117 0 -196 -79.5t-79 -196.5h-65q0 145 97.5 242.5t242.5 97.5z" />
    <glyph glyph-name="uni25DD" unicode="&#x25dd;" horiz-adv-x="340" 
d="M0 616v64q145 0 242.5 -97.5t97.5 -242.5h-66q0 117 -78.5 196.5t-195.5 79.5z" />
    <glyph glyph-name="uni25DE" unicode="&#x25de;" horiz-adv-x="340" 
d="M0 0v64q117 0 195.5 79.5t78.5 196.5h66q0 -145 -97.5 -242.5t-242.5 -97.5z" />
    <glyph glyph-name="uni25DF" unicode="&#x25df;" horiz-adv-x="340" 
d="M340 64v-64q-145 0 -242.5 97.5t-97.5 242.5h65q0 -117 79 -196.5t196 -79.5z" />
    <glyph glyph-name="uniEA01" unicode="&#xea01;" horiz-adv-x="1000" 
d="M69 -96v861h861v-861h-861zM142 -23h715v715h-715v-715zM589 110v188h-176v-188h-116v469h116v-188h176v188h115v-469h-115z" />
    <glyph glyph-name="uniEA02" unicode="&#xea02;" horiz-adv-x="1000" 
d="M69 -96v861h861v-861h-861zM142 -23h715v715h-715v-715zM287 344q0 112 62 178.5t174 66.5q72 0 138 -30l-30 -92q-56 26 -108 26q-50 0 -82 -38.5t-32 -110.5t32 -110t82 -38q51 0 108 25l30 -92q-69 -30 -138 -30q-112 0 -174 66.5t-62 178.5z" />
    <glyph glyph-name="uniEA03" unicode="&#xea03;" horiz-adv-x="1000" 
d="M69 -96v861h861v-861h-861zM142 -23h715v715h-715v-715zM320 141l29 92q27 -15 68 -27t74 -12q64 0 64 47q0 17 -12 26.5t-49 21.5l-54 17q-115 38 -115 136q0 69 47.5 108t129.5 39q80 0 149 -30l-30 -92q-57 28 -119 28q-58 0 -58 -45q0 -15 9 -24t34 -17l52 -16
q70 -22 102.5 -53.5t32.5 -84.5q0 -72 -51 -114t-129 -42q-92 0 -174 42z" />
    <glyph glyph-name="uniEA04" unicode="&#xea04;" horiz-adv-x="1000" 
d="M69 -96v861h861v-861h-861zM589 298v-188h115v469h-115v-188h-176v188h-116v-469h116v188h176z" />
    <glyph glyph-name="uniEA05" unicode="&#xea05;" horiz-adv-x="1000" 
d="M69 -96v861h861v-861h-861zM287 344q0 -112 62 -178.5t174 -66.5q69 0 138 30l-30 92q-57 -25 -108 -25q-50 0 -82 38t-32 110t32 110.5t82 38.5q52 0 108 -26l30 92q-66 30 -138 30q-112 0 -174 -66.5t-62 -178.5z" />
    <glyph glyph-name="uniEA06" unicode="&#xea06;" horiz-adv-x="1000" 
d="M69 -96v861h861v-861h-861zM349 233l-29 -92q82 -42 174 -42q78 0 129 42t51 114q0 53 -32.5 84.5t-102.5 53.5l-52 16q-25 8 -34 17t-9 24q0 45 58 45q62 0 119 -28l30 92q-69 30 -149 30q-82 0 -129.5 -39t-47.5 -108q0 -98 115 -136l54 -17q37 -12 49 -21.5t12 -26.5
q0 -47 -64 -47q-33 0 -74 12t-68 27z" />
    <glyph glyph-name="commaaccent" unicode="&#xf6c3;" 
d="M215 -218v10l25 156h135v-10l-59 -156h-101z" />
    <glyph glyph-name="commainferior" unicode="&#xf6e1;" horiz-adv-x="191" 
d="M11 -221v8l39 215h111v-8l-67 -215h-83z" />
    <glyph glyph-name="commasuperior" unicode="&#xf6e2;" horiz-adv-x="192" 
d="M11 346v8l39 215h111v-8l-67 -215h-83z" />
    <glyph glyph-name="hypheninferior" unicode="&#xf6e5;" horiz-adv-x="267" 
d="M229 21h-191v77h191v-77z" />
    <glyph glyph-name="hyphensuperior" unicode="&#xf6e6;" horiz-adv-x="267" 
d="M229 589h-191v77h191v-77z" />
    <glyph glyph-name="periodinferior" unicode="&#xf6e7;" horiz-adv-x="188" 
d="M28 -62q0 30 18 49t48 19t48 -19t18 -49q0 -29 -18 -47.5t-48 -18.5t-48 18.5t-18 47.5z" />
    <glyph glyph-name="periodsuperior" unicode="&#xf6e8;" horiz-adv-x="190" 
d="M29 506q0 30 18 49t48 19t48 -19t18 -49q0 -29 -18 -47.5t-48 -18.5t-48 18.5t-18 47.5z" />
    <glyph glyph-name="uniF8FF" unicode="&#xf8ff;" horiz-adv-x="559" 
d="M73 0v680h413v-680h-413zM131 58h297v564h-297v-564z" />
    <glyph glyph-name="fi" unicode="&#xfb01;" horiz-adv-x="643" 
d="M580 0h-135v379h-205v-379h-135v379h-85v73l85 30v64q0 81 43.5 120t120.5 39q49 0 86 -7v-111q-33 7 -65 7q-28 0 -39 -11t-11 -43v-58h340v-482zM435 630q0 33 21.5 53.5t56.5 20.5q36 0 57.5 -20.5t21.5 -53.5t-21.5 -53.5t-57.5 -20.5q-35 0 -56.5 20.5t-21.5 53.5z
" />
    <glyph glyph-name="fl" unicode="&#xfb02;" horiz-adv-x="672" 
d="M240 0h-135v379h-85v73l85 30v64q0 81 43.5 120t120.5 39q49 0 86 -7v-111q-33 7 -65 7q-28 0 -39 -11t-11 -43v-58h120v-103h-120v-379zM443 700h135v-592q0 -12 2.5 -15t13.5 -3h53v-92q-37 -7 -80 -7q-68 0 -96 33.5t-28 107.5v568z" />
    <glyph glyph-name="zero.lf" horiz-adv-x="648" 
d="M196 340q0 -118 29.5 -177t99.5 -59t98.5 59t28.5 177t-28.5 177t-98.5 59t-99.5 -59t-29.5 -177zM597 340q0 -355 -272 -355q-274 0 -274 355t274 355q272 0 272 -355z" />
    <glyph glyph-name="one.lf" horiz-adv-x="407" 
d="M40 491h-12v119l196 70h104v-680h-139v542h-2z" />
    <glyph glyph-name="two.lf" horiz-adv-x="569" 
d="M233 118v-2h286v-116h-475v100l254 247q34 32 51.5 62t17.5 70t-29.5 68.5t-74.5 28.5q-44 0 -78 -18.5t-70 -52.5l-73 90q35 38 94 69t127 31q112 0 180.5 -57.5t68.5 -158.5q0 -95 -108 -203z" />
    <glyph glyph-name="three.lf" horiz-adv-x="573" 
d="M137 285v116h116q108 0 108 89q0 86 -108 86q-81 0 -164 -34l-40 108q93 45 204 45q124 0 188.5 -50.5t64.5 -142.5q0 -56 -30.5 -94.5t-71.5 -52.5v-2q54 -19 87 -62.5t33 -107.5q0 -92 -70.5 -145t-200.5 -53q-128 0 -220 51l37 110q79 -42 183 -42q56 0 91 23.5
t35 65.5q0 48 -29 70t-97 22h-116z" />
    <glyph glyph-name="four.lf" horiz-adv-x="627" 
d="M364 459h139v-199h90v-116h-90v-144h-139v144h-337v100l212 436h143l-198 -418v-2h180v199z" />
    <glyph glyph-name="five.lf" horiz-adv-x="560" 
d="M94 306l-17 17l38 357h374v-116h-256l-14 -135q22 2 44 2q253 0 253 -219q0 -107 -75.5 -167t-208.5 -60q-98 0 -203 37l32 117q84 -35 175 -35q67 0 101 28t34 80q0 100 -140 100q-51 0 -137 -6z" />
    <glyph glyph-name="six.lf" horiz-adv-x="591" 
d="M428 680v-10l-157 -230l1 -2q28 13 75 13q93 0 153 -64.5t60 -165.5t-69 -168.5t-191 -67.5q-125 0 -193.5 67t-68.5 169q0 88 48 165l188 294h154zM415 221q0 111 -115 111q-56 0 -86.5 -27.5t-30.5 -83.5t31 -86.5t86 -30.5q54 0 84.5 30.5t30.5 86.5z" />
    <glyph glyph-name="seven.lf" horiz-adv-x="522" 
d="M93 0v10l255 552v2h-319v116h470v-100l-260 -580h-146z" />
    <glyph glyph-name="eight.lf" horiz-adv-x="616" 
d="M308 104q58 0 86.5 25.5t28.5 69.5t-28.5 69.5t-86.5 25.5q-115 0 -115 -95q0 -44 28.5 -69.5t86.5 -25.5zM308 695q116 0 174.5 -52t58.5 -138q0 -107 -88 -146v-2q53 -21 84 -65.5t31 -107.5q0 -92 -67 -145.5t-193 -53.5t-193 53.5t-67 145.5q0 63 31 107.5t84 65.5v2
q-88 39 -88 146q0 86 58.5 138t174.5 52zM308 410q88 0 88 83t-88 83t-88 -83t88 -83z" />
    <glyph glyph-name="nine.lf" horiz-adv-x="591" 
d="M163 0v10l157 230l-1 2q-28 -13 -75 -13q-93 0 -153 64.5t-60 165.5t69 168.5t191 67.5q123 0 192.5 -67.5t69.5 -168.5q0 -88 -48 -165l-188 -294h-154zM176 459q0 -111 115 -111q56 0 86.5 27.5t30.5 83.5t-31 86.5t-86 30.5q-54 0 -84.5 -30.5t-30.5 -86.5z" />
    <glyph glyph-name="a.alt" horiz-adv-x="525" 
d="M332 208h-69q-95 0 -95 -60q0 -57 60 -57q55 0 104 33v84zM467 0h-100l-19 43h-2q-27 -23 -68.5 -40.5t-82.5 -17.5q-79 0 -121 42t-42 110q0 158 216 158h84v18q0 73 -86 73q-78 0 -156 -35l-32 103q95 43 195 43q103 0 158.5 -52.5t55.5 -146.5v-298z" />
    <glyph glyph-name="agrave.alt" horiz-adv-x="525" 
d="M332 208h-69q-95 0 -95 -60q0 -57 60 -57q55 0 104 33v84zM467 0h-100l-19 43h-2q-27 -23 -68.5 -40.5t-82.5 -17.5q-79 0 -121 42t-42 110q0 158 216 158h84v18q0 73 -86 73q-78 0 -156 -35l-32 103q95 43 195 43q103 0 158.5 -52.5t55.5 -146.5v-298zM112 704v9h142
l79 -136v-10h-118z" />
    <glyph glyph-name="aacute.alt" horiz-adv-x="525" 
d="M332 208h-69q-95 0 -95 -60q0 -57 60 -57q55 0 104 33v84zM467 0h-100l-19 43h-2q-27 -23 -68.5 -40.5t-82.5 -17.5q-79 0 -121 42t-42 110q0 158 216 158h84v18q0 73 -86 73q-78 0 -156 -35l-32 103q95 43 195 43q103 0 158.5 -52.5t55.5 -146.5v-298zM419 713v-9
l-103 -137h-118v10l79 136h142z" />
    <glyph glyph-name="acircumflex.alt" horiz-adv-x="525" 
d="M332 208h-69q-95 0 -95 -60q0 -57 60 -57q55 0 104 33v84zM467 0h-100l-19 43h-2q-27 -23 -68.5 -40.5t-82.5 -17.5q-79 0 -121 42t-42 110q0 158 216 158h84v18q0 73 -86 73q-78 0 -156 -35l-32 103q95 43 195 43q103 0 158.5 -52.5t55.5 -146.5v-298zM342 713l91 -136
v-10h-112l-53 69l-52 -69h-112v10l91 136h147z" />
    <glyph glyph-name="atilde.alt" horiz-adv-x="525" 
d="M332 208h-69q-95 0 -95 -60q0 -57 60 -57q55 0 104 33v84zM467 0h-100l-19 43h-2q-27 -23 -68.5 -40.5t-82.5 -17.5q-79 0 -121 42t-42 110q0 158 216 158h84v18q0 73 -86 73q-78 0 -156 -35l-32 103q95 43 195 43q103 0 158.5 -52.5t55.5 -146.5v-298zM122 577l-27 70
q16 29 45 47.5t61 18.5q33 0 78.5 -22.5t70.5 -22.5q40 0 67 34l27 -68q-17 -31 -46 -49t-59 -18q-31 0 -80 22.5t-70 22.5q-38 0 -67 -35z" />
    <glyph glyph-name="adieresis.alt" horiz-adv-x="525" 
d="M332 208h-69q-95 0 -95 -60q0 -57 60 -57q55 0 104 33v84zM467 0h-100l-19 43h-2q-27 -23 -68.5 -40.5t-82.5 -17.5q-79 0 -121 42t-42 110q0 158 216 158h84v18q0 73 -86 73q-78 0 -156 -35l-32 103q95 43 195 43q103 0 158.5 -52.5t55.5 -146.5v-298zM81 640
q0 33 21.5 53.5t56.5 20.5q36 0 57.5 -20.5t21.5 -53.5t-21.5 -53.5t-57.5 -20.5q-35 0 -56.5 20.5t-21.5 53.5zM301 640q0 33 21.5 53.5t56.5 20.5q36 0 57.5 -20.5t21.5 -53.5t-21.5 -53.5t-57.5 -20.5q-35 0 -56.5 20.5t-21.5 53.5z" />
    <glyph glyph-name="aring.alt" horiz-adv-x="525" 
d="M332 208h-69q-95 0 -95 -60q0 -57 60 -57q55 0 104 33v84zM467 0h-100l-19 43h-2q-27 -23 -68.5 -40.5t-82.5 -17.5q-79 0 -121 42t-42 110q0 158 216 158h84v18q0 73 -86 73q-78 0 -156 -35l-32 103q95 43 195 43q103 0 158.5 -52.5t55.5 -146.5v-298zM227 643
q0 -18 11.5 -28.5t30.5 -10.5q41 0 41 39q0 18 -11 28.5t-30 10.5t-30.5 -10.5t-11.5 -28.5zM147 643q0 51 33.5 81.5t88.5 30.5q54 0 87.5 -30.5t33.5 -81.5q0 -53 -33 -83t-88 -30t-88.5 30.5t-33.5 82.5z" />
    <glyph glyph-name="amacron.alt" horiz-adv-x="525" 
d="M332 208h-69q-95 0 -95 -60q0 -57 60 -57q55 0 104 33v84zM467 0h-100l-19 43h-2q-27 -23 -68.5 -40.5t-82.5 -17.5q-79 0 -121 42t-42 110q0 158 216 158h84v18q0 73 -86 73q-78 0 -156 -35l-32 103q95 43 195 43q103 0 158.5 -52.5t55.5 -146.5v-298zM414 579h-290v103
h290v-103z" />
    <glyph glyph-name="abreve.alt" horiz-adv-x="525" 
d="M332 208h-69q-95 0 -95 -60q0 -57 60 -57q55 0 104 33v84zM467 0h-100l-19 43h-2q-27 -23 -68.5 -40.5t-82.5 -17.5q-79 0 -121 42t-42 110q0 158 216 158h84v18q0 73 -86 73q-78 0 -156 -35l-32 103q95 43 195 43q103 0 158.5 -52.5t55.5 -146.5v-298zM268 674
q89 0 133 34l42 -64q-53 -77 -175 -77q-120 0 -173 77l42 64q48 -34 131 -34z" />
    <glyph glyph-name="aogonek.alt" horiz-adv-x="525" 
d="M407 -213q-55 0 -85.5 28.5t-30.5 74.5q0 68 74 114l-17 39h-2q-27 -23 -68.5 -40.5t-82.5 -17.5q-79 0 -121 42t-42 110q0 158 216 158h84v18q0 73 -86 73q-78 0 -156 -35l-32 103q95 43 195 43q103 0 158.5 -52.5t55.5 -146.5v-298q-31 -12 -51.5 -37.5t-20.5 -48.5
q0 -22 10 -31t31 -9q29 0 53 18l11 -80q-40 -25 -93 -25zM332 208h-69q-95 0 -95 -60q0 -57 60 -57q55 0 104 33v84z" />
    <glyph glyph-name="aringacute.alt" horiz-adv-x="525" 
d="M235 634q0 -34 42 -34q41 0 41 34t-41 34q-42 0 -42 -34zM155 634q0 51 33.5 79t88.5 28t88 -28t33 -79q0 -52 -33 -80t-88 -28q-56 0 -89 28t-33 80zM332 208h-69q-95 0 -95 -60q0 -57 60 -57q55 0 104 33v84zM467 0h-100l-19 43h-2q-27 -23 -68.5 -40.5t-82.5 -17.5
q-79 0 -121 42t-42 110q0 158 216 158h84v18q0 73 -86 73q-78 0 -156 -35l-32 103q95 43 195 43q103 0 158.5 -52.5t55.5 -146.5v-298zM422 880v-7l-79 -103h-122v8l56 102h145z" />
    <glyph glyph-name="uni0444.alt" horiz-adv-x="720" 
d="M38 241q0 101 62 168.5t192 81.5v209h135v-211q133 -15 194 -81t61 -167t-61 -167t-194 -81v-191h-135v189q-130 14 -192 81t-62 169zM176 241q0 -136 116 -154v307q-116 -18 -116 -153zM544 241q0 130 -117 152v-305q117 22 117 153z" />
    <glyph glyph-name="Euro.alt" horiz-adv-x="614" 
d="M440 204h-188q45 -100 144 -100q74 0 145 35l37 -110q-90 -44 -182 -44q-115 0 -187.5 57.5t-100.5 161.5h-67v101h50q-1 12 -1 35q0 22 1 35h-50v101h67q28 104 100.5 161.5t187.5 57.5q92 0 182 -44l-37 -110q-71 35 -145 35q-48 0 -86.5 -26t-58.5 -74h189v-101h-211
q-1 -13 -1 -35q0 -23 1 -35h211v-101z" />
    <glyph glyph-name="rupee.alt" 
d="M523 405h-75q-12 -70 -60.5 -111.5t-132.5 -49.5l237 -228v-16h-160l-260 261v86h112q105 0 121 58h-233l-1 101h234q-16 58 -121 58h-112l-1 116h452v-101h-141v-2q45 -27 61 -71h80v-101z" />
    <glyph glyph-name="registered.alt" horiz-adv-x="802" 
d="M46 340q0 151 102 253t253 102t253 -102t102 -253t-102 -253t-253 -102t-253 102t-102 253zM117 340q0 -122 84 -204.5t207 -82.5q121 0 199 82t78 205t-81 205t-203 82t-203 -82t-81 -205zM336 153h-91v374h171q138 0 138 -116q0 -89 -82 -111l102 -138v-9h-100l-97 141
h-41v-141zM336 368h76q47 0 47 43q0 42 -47 42h-76v-85z" />
    <glyph glyph-name="guillemotleft.case" horiz-adv-x="565" 
d="M45 335v12l161 219l83 -49l-107 -177l108 -176l-84 -48zM266 335v12l161 219l83 -49l-107 -177l108 -176l-84 -48z" />
    <glyph glyph-name="bracketleft.case" horiz-adv-x="341" 
d="M75 790h232v-73l-117 -23v-706l117 -23v-73h-232v898z" />
    <glyph glyph-name="guilsinglright.case" horiz-adv-x="343" 
d="M298 347v-12l-161 -219l-83 49l107 177l-108 176l84 48z" />
    <glyph glyph-name="bar.case" horiz-adv-x="239" 
d="M164 790v-898h-89v898h89z" />
    <glyph glyph-name="periodcentered.case" horiz-adv-x="286" 
d="M58 340q0 39 23 62.5t62 23.5t62 -23.5t23 -62.5t-23 -62.5t-62 -23.5t-62 23.5t-23 62.5z" />
    <glyph glyph-name="bullet.case" horiz-adv-x="372" 
d="M73 340q0 51 31 82.5t82 31.5t82 -31.5t31 -82.5t-31 -82.5t-82 -31.5t-82 31.5t-31 82.5z" />
    <glyph glyph-name="emdash.case" horiz-adv-x="928" 
d="M862 291h-796v103h796v-103z" />
    <glyph glyph-name="bracketright.case" horiz-adv-x="341" 
d="M34 790h232v-898h-232v73l117 23v706l-117 23v73z" />
    <glyph glyph-name="endash.case" horiz-adv-x="592" 
d="M526 291h-460v103h460v-103z" />
    <glyph glyph-name="hyphen.case" horiz-adv-x="422" 
d="M356 289h-290v103h290v-103z" />
    <glyph glyph-name="guillemotright.case" horiz-adv-x="564" 
d="M298 347v-12l-161 -219l-83 49l107 177l-108 176l84 48zM519 347v-12l-161 -219l-83 49l107 177l-108 176l84 48z" />
    <glyph glyph-name="parenleft.case" horiz-adv-x="294" 
d="M45 341q0 136 37.5 257t96.5 208l78 -34q-87 -190 -87 -431t87 -431l-78 -34q-59 87 -96.5 208t-37.5 257z" />
    <glyph glyph-name="guilsinglleft.case" horiz-adv-x="344" 
d="M45 335v12l161 219l83 -49l-107 -177l108 -176l-84 -48z" />
    <glyph glyph-name="braceright.case" horiz-adv-x="367" 
d="M345 389v-96q-40 0 -64.5 -20.5t-24.5 -58.5v-132q0 -96 -40 -143t-145 -47h-36v73q106 0 106 108v138q0 60 20 90.5t66 38.5v2q-46 8 -66 38.5t-20 90.5v138q0 108 -106 108v73h36q105 0 145 -47t40 -143v-132q0 -38 24.5 -58.5t64.5 -20.5z" />
    <glyph glyph-name="braceleft.case" horiz-adv-x="367" 
d="M22 293v96q40 0 64.5 20.5t24.5 58.5v132q0 96 40 143t145 47h36v-73q-106 0 -106 -108v-138q0 -60 -20 -90.5t-66 -38.5v-2q46 -8 66 -38.5t20 -90.5v-138q0 -108 106 -108v-73h-36q-105 0 -145 47t-40 143v132q0 38 -24.5 58.5t-64.5 20.5z" />
    <glyph glyph-name="parenright.case" horiz-adv-x="294" 
d="M249 341q0 -136 -37.5 -257t-96.5 -208l-78 34q87 190 87 431t-87 431l78 34q59 -87 96.5 -208t37.5 -257z" />
    <glyph glyph-name="minus.case" horiz-adv-x="800" 
d="M622 290h-445v93h445v-93z" />
    <glyph glyph-name="zero.num" horiz-adv-x="359" 
d="M123 503q0 -102 55 -102q59 0 59 102q0 104 -59 104q-55 0 -55 -104zM333 503q0 -84 -41 -133.5t-114 -49.5q-70 0 -111 50t-41 133q0 84 41 134.5t111 50.5q73 0 114 -50t41 -135z" />
    <glyph glyph-name="one.num" horiz-adv-x="261" 
d="M25 538h-9v84l130 58h70v-352h-92v254h-2z" />
    <glyph glyph-name="two.num" horiz-adv-x="328" 
d="M159 406v-2h141v-76h-275v70l147 117q26 21 26 50q0 19 -12 31.5t-32 12.5q-35 0 -77 -42l-53 60q54 61 135 61q60 0 98 -30.5t38 -86.5q0 -61 -68 -112z" />
    <glyph glyph-name="three.num" horiz-adv-x="324" 
d="M78 465v77h69q45 0 45 33q0 34 -50 34q-51 0 -90 -17l-26 73q59 23 119 23q69 0 106 -26t37 -74q0 -34 -16.5 -53t-39.5 -22v-1q66 -20 66 -88q0 -104 -158 -104q-69 0 -123 27l24 75q44 -22 98 -22q63 0 63 37q0 17 -12 22.5t-42 5.5h-70z" />
    <glyph glyph-name="four.num" horiz-adv-x="340" 
d="M187 572h91v-93h42v-76h-42v-75h-91v75h-172v68l90 209h93l-81 -200v-1h70v93z" />
    <glyph glyph-name="five.num" horiz-adv-x="314" 
d="M54 475l-12 13l18 192h216v-77h-135l-4 -45h16q136 0 136 -115q0 -58 -41 -90.5t-118 -32.5q-67 0 -115 17l21 81q43 -18 99 -18t56 42q0 38 -58 38q-37 0 -79 -5z" />
    <glyph glyph-name="six.num" horiz-adv-x="331" 
d="M256 680v-5l-93 -119v-1q26 7 48 7q42 0 73 -30t31 -84q0 -57 -39.5 -92.5t-104.5 -35.5q-73 0 -110.5 37.5t-37.5 90.5q0 46 31 91l96 141h106zM219 446q0 47 -48 47q-52 0 -52 -47t52 -47q48 0 48 47z" />
    <glyph glyph-name="seven.num" horiz-adv-x="303" 
d="M43 328v5l147 269v1h-172v77h272v-71l-149 -281h-98z" />
    <glyph glyph-name="eight.num" horiz-adv-x="344" 
d="M172 395q54 0 54 41q0 40 -54 40q-55 0 -55 -40q0 -41 55 -41zM172 688q59 0 95.5 -27t36.5 -71q0 -55 -54 -77v-1q69 -21 69 -87q0 -48 -40.5 -76.5t-106.5 -28.5q-67 0 -107 28.5t-40 76.5q0 65 70 87v1q-55 22 -55 77q0 44 36 71t96 27zM172 547q45 0 45 36t-45 36
q-43 0 -43 -36t43 -36z" />
    <glyph glyph-name="nine.num" horiz-adv-x="331" 
d="M75 328v6l93 118v1q-19 -7 -47 -7q-43 0 -74 30.5t-31 83.5q0 58 40 93t106 35q71 0 108.5 -37.5t37.5 -90.5q0 -46 -31 -91l-96 -141h-106zM113 561q0 -46 49 -46q50 0 50 46q0 49 -50 49q-49 0 -49 -49z" />
    <glyph glyph-name="comma.num" horiz-adv-x="192" 
d="M11 226v8l39 215h111v-8l-67 -215h-83z" />
    <glyph glyph-name="plus.num" horiz-adv-x="265" 
d="M170 613v-67h68v-77h-68v-67h-77v67h-66v77h66v67h77z" />
    <glyph glyph-name="hyphen.num" horiz-adv-x="267" 
d="M229 469h-191v77h191v-77z" />
    <glyph glyph-name="minus.num" horiz-adv-x="287" 
d="M249 469h-211v77h211v-77z" />
    <glyph glyph-name="parenleft.num" horiz-adv-x="179" 
d="M21 503q0 125 85 254l56 -29q-55 -119 -55 -225q0 -104 55 -225l-56 -28q-85 129 -85 253z" />
    <glyph glyph-name="period.num" horiz-adv-x="190" 
d="M29 386q0 30 18 49t48 19t48 -19t18 -49q0 -29 -18 -47.5t-48 -18.5t-48 18.5t-18 47.5z" />
    <glyph glyph-name="parenright.num" horiz-adv-x="179" 
d="M158 503q0 -124 -85 -253l-56 28q55 121 55 225q0 106 -55 225l56 29q85 -129 85 -254z" />
    <glyph glyph-name="zero.denom" horiz-adv-x="359" 
d="M123 175q0 -102 55 -102q59 0 59 102q0 104 -59 104q-55 0 -55 -104zM333 175q0 -84 -41 -133.5t-114 -49.5q-70 0 -111 50t-41 133q0 84 41 134.5t111 50.5q73 0 114 -50t41 -135z" />
    <glyph glyph-name="one.denom" horiz-adv-x="261" 
d="M24 210h-9v84l130 58h70v-352h-92v254h-2z" />
    <glyph glyph-name="two.denom" horiz-adv-x="328" 
d="M159 78v-2h141v-76h-275v70l147 117q26 21 26 50q0 19 -12 31.5t-32 12.5q-35 0 -77 -42l-53 60q54 61 135 61q60 0 98 -30.5t38 -86.5q0 -61 -68 -112z" />
    <glyph glyph-name="three.denom" horiz-adv-x="324" 
d="M78 137v77h69q45 0 45 33q0 34 -50 34q-51 0 -90 -17l-26 73q59 23 119 23q69 0 106 -26t37 -74q0 -34 -16.5 -53t-39.5 -22v-1q66 -20 66 -88q0 -104 -158 -104q-69 0 -123 27l24 75q44 -22 98 -22q63 0 63 37q0 17 -12 22.5t-42 5.5h-70z" />
    <glyph glyph-name="four.denom" horiz-adv-x="340" 
d="M187 244h91v-93h42v-76h-42v-75h-91v75h-172v68l90 209h93l-81 -200v-1h70v93z" />
    <glyph glyph-name="five.denom" horiz-adv-x="313" 
d="M53 147l-12 13l18 192h216v-77h-135l-4 -45h16q136 0 136 -115q0 -58 -41 -90.5t-118 -32.5q-67 0 -115 17l21 81q43 -18 99 -18t56 42q0 38 -58 38q-37 0 -79 -5z" />
    <glyph glyph-name="six.denom" horiz-adv-x="332" 
d="M256 352v-5l-93 -119v-1q26 7 48 7q42 0 73 -30t31 -84q0 -57 -39.5 -92.5t-104.5 -35.5q-73 0 -110.5 37.5t-37.5 90.5q0 46 31 91l96 141h106zM219 118q0 47 -48 47q-52 0 -52 -47t52 -47q48 0 48 47z" />
    <glyph glyph-name="seven.denom" horiz-adv-x="302" 
d="M42 0v5l147 269v1h-172v77h272v-71l-149 -281h-98z" />
    <glyph glyph-name="eight.denom" horiz-adv-x="344" 
d="M172 67q54 0 54 41q0 40 -54 40q-55 0 -55 -40q0 -41 55 -41zM172 360q59 0 95.5 -27t36.5 -71q0 -55 -54 -77v-1q69 -21 69 -87q0 -48 -40.5 -76.5t-106.5 -28.5q-67 0 -107 28.5t-40 76.5q0 65 70 87v1q-55 22 -55 77q0 44 36 71t96 27zM172 219q45 0 45 36t-45 36
q-43 0 -43 -36t43 -36z" />
    <glyph glyph-name="nine.denom" horiz-adv-x="332" 
d="M76 0v6l93 118v1q-19 -7 -47 -7q-43 0 -74 30.5t-31 83.5q0 58 40 93t106 35q71 0 108.5 -37.5t37.5 -90.5q0 -46 -31 -91l-96 -141h-106zM114 233q0 -46 49 -46q50 0 50 46q0 49 -50 49q-49 0 -49 -49z" />
    <glyph glyph-name="comma.denom" horiz-adv-x="191" 
d="M11 -101v8l39 215h111v-8l-67 -215h-83z" />
    <glyph glyph-name="plus.denom" horiz-adv-x="263" 
d="M169 285v-67h68v-77h-68v-67h-77v67h-66v77h66v67h77z" />
    <glyph glyph-name="parenright.denom" horiz-adv-x="180" 
d="M158 175q0 -124 -85 -253l-56 28q55 121 55 225q0 106 -55 225l56 29q85 -129 85 -254z" />
    <glyph glyph-name="hyphen.denom" horiz-adv-x="267" 
d="M229 141h-191v77h191v-77z" />
    <glyph glyph-name="minus.denom" horiz-adv-x="287" 
d="M249 141h-211v77h211v-77z" />
    <glyph glyph-name="parenleft.denom" horiz-adv-x="180" 
d="M22 175q0 125 85 254l56 -29q-55 -119 -55 -225q0 -104 55 -225l-56 -28q-85 129 -85 253z" />
    <glyph glyph-name="period.denom" horiz-adv-x="188" 
d="M28 58q0 30 18 49t48 19t48 -19t18 -49q0 -29 -18 -47.5t-48 -18.5t-48 18.5t-18 47.5z" />
    <glyph glyph-name="minusinferior" horiz-adv-x="287" 
d="M249 21h-211v77h211v-77z" />
    <glyph glyph-name="plusinferior" horiz-adv-x="263" 
d="M169 165v-67h68v-77h-68v-67h-77v67h-66v77h66v67h77z" />
    <glyph glyph-name="commaaccent.alt" 
d="M375 723v-10l-25 -156h-135v10l59 156h101z" />
    <glyph glyph-name="caron.alt" 
d="M215 514v10l25 156h135v-10l-59 -156h-101z" />
    <glyph glyph-name="commaaccent.cap" 
d="M215 -218v10l25 156h135v-10l-59 -156h-101z" />
    <glyph glyph-name="grave.cap" 
d="M189 887v9h152l59 -136v-10h-128z" />
    <glyph glyph-name="acute.cap" 
d="M400 896v-9l-83 -137h-128v10l59 136h152z" />
    <glyph glyph-name="circumflex.cap" 
d="M358 896l111 -136v-10h-112l-63 79l-62 -79h-112v10l111 136h127z" />
    <glyph glyph-name="caron.cap" 
d="M231 750l-111 136v10h112l63 -79l62 79h112v-10l-111 -136h-127z" />
    <glyph glyph-name="tilde.cap" 
d="M147 761l-27 70q16 29 45 47.5t61 18.5q33 0 78.5 -22.5t70.5 -22.5q40 0 67 34l27 -68q-17 -31 -46 -49t-59 -18q-31 0 -80 22.5t-70 22.5q-38 0 -67 -35z" />
    <glyph glyph-name="dieresis.cap" 
d="M86 819q0 33 21.5 53.5t56.5 20.5q36 0 57.5 -20.5t21.5 -53.5t-21.5 -53.5t-57.5 -20.5q-35 0 -56.5 20.5t-21.5 53.5zM347 819q0 33 21.5 53.5t56.5 20.5q36 0 57.5 -20.5t21.5 -53.5t-21.5 -53.5t-57.5 -20.5q-35 0 -56.5 20.5t-21.5 53.5z" />
    <glyph glyph-name="macron.cap" 
d="M440 759h-290v103h290v-103z" />
    <glyph glyph-name="tonos.cap" 
d="M405 680v-9l-53 -157h-118v10l29 156h142z" />
    <glyph glyph-name="breve.cap" 
d="M294 858q89 0 133 34l42 -64q-53 -77 -175 -77q-120 0 -173 77l42 64q48 -34 131 -34z" />
    <glyph glyph-name="ring.cap" 
d="M253 834q0 -18 11.5 -28.5t30.5 -10.5q41 0 41 39q0 18 -11 28.5t-30 10.5t-30.5 -10.5t-11.5 -28.5zM173 834q0 51 33.5 81.5t88.5 30.5q54 0 87.5 -30.5t33.5 -81.5q0 -53 -33 -83t-88 -30t-88.5 30.5t-33.5 82.5z" />
    <glyph glyph-name="hungarumlaut.cap" 
d="M300 896v-10l-103 -136h-118v10l79 136h142zM510 896v-10l-103 -136h-118v10l79 136h142z" />
    <glyph glyph-name="dotaccent.cap" 
d="M216 819q0 33 21.5 53.5t56.5 20.5q36 0 57.5 -20.5t21.5 -53.5t-21.5 -53.5t-57.5 -20.5q-35 0 -56.5 20.5t-21.5 53.5z" />
    </font>
</defs>
</svg>
